<svg width="24" height="24" viewBox="0 0 24 24" fill="none" xmlns="http://www.w3.org/2000/svg">
    <path
        d="M11.9596 2C6.4679 2 2 6.4679 2 11.9596C2 17.4517 6.4679 21.92 11.9596 21.92C17.4513 21.92 21.9192 17.4517 21.9192 11.9596C21.9196 6.4679 17.4517 2 11.9596 2ZM17.4625 11.2315V11.2319L14.5793 13.318L15.6897 16.7119C15.7074 16.7649 15.7166 16.8215 15.7166 16.8792C15.7166 17.1757 15.4767 17.4164 15.1802 17.4164C15.0623 17.4164 14.954 17.3787 14.8657 17.3149L11.96 15.2131L9.05428 17.3149C8.96602 17.3787 8.85771 17.4164 8.74016 17.4164C8.44329 17.4164 8.20299 17.1761 8.20299 16.8792C8.20299 16.8211 8.21261 16.7649 8.23027 16.7119L9.34112 13.318L6.45787 11.2319V11.2315C6.32307 11.1344 6.23562 10.9759 6.23562 10.797C6.23562 10.5005 6.47552 10.2606 6.77239 10.2606H10.3417L11.4469 6.88231C11.5143 6.66287 11.7185 6.5032 11.9604 6.5032C12.2019 6.5032 12.4065 6.66287 12.4735 6.88231L13.5787 10.2606H17.148C17.4445 10.2606 17.6848 10.5005 17.6848 10.797C17.6844 10.9759 17.5969 11.1344 17.4625 11.2315Z"
        fill="#8064A2" />
</svg>