<svg width="160" height="160" viewBox="0 0 160 160" fill="none" xmlns="http://www.w3.org/2000/svg">
<g opacity="0.5">
<rect width="160" height="160" rx="8" fill="#C0504D" fill-opacity="0.5"/>
<path d="M108.933 66.1456V66.5248L104.675 82.2748C104.172 84.1442 103.063 85.7939 101.522 86.9656C99.9805 88.1372 98.0943 88.7647 96.1584 88.7498H73.8459C71.6555 88.7587 69.5414 87.9457 67.9213 86.4714C66.3012 84.9972 65.2931 82.9689 65.0959 80.7873L63.2001 59.3206C63.1344 58.5935 62.7983 57.9174 62.2583 57.4259C61.7183 56.9345 61.0136 56.6635 60.2834 56.6665H53.9543C53.1807 56.6665 52.4389 56.3592 51.8919 55.8122C51.3449 55.2652 51.0376 54.5234 51.0376 53.7498C51.0376 52.9763 51.3449 52.2344 51.8919 51.6874C52.4389 51.1404 53.1807 50.8331 53.9543 50.8331H60.2834C62.4739 50.8243 64.588 51.6373 66.208 53.1115C67.8281 54.5858 68.8363 56.6141 69.0334 58.7956V59.5831H103.129C103.961 59.5766 104.784 59.7479 105.544 60.0856C106.304 60.4232 106.983 60.9194 107.535 61.5408C108.087 62.1623 108.5 62.8947 108.747 63.6888C108.993 64.483 109.067 65.3207 108.963 66.1456H108.933Z" fill="white"/>
<path d="M71.4543 109.167C75.4813 109.167 78.7459 105.902 78.7459 101.875C78.7459 97.848 75.4813 94.5834 71.4543 94.5834C67.4272 94.5834 64.1626 97.848 64.1626 101.875C64.1626 105.902 67.4272 109.167 71.4543 109.167Z" fill="white"/>
<path d="M94.7878 109.167C98.8148 109.167 102.079 105.902 102.079 101.875C102.079 97.848 98.8148 94.5834 94.7878 94.5834C90.7607 94.5834 87.4961 97.848 87.4961 101.875C87.4961 105.902 90.7607 109.167 94.7878 109.167Z" fill="white"/>
</g>
</svg>
