<svg width="160" height="160" viewBox="0 0 160 160" fill="none" xmlns="http://www.w3.org/2000/svg">
<g opacity="0.5">
<rect width="160" height="160" rx="8" fill="#0096C8" fill-opacity="0.5"/>
<g clip-path="url(#clip0_1932_36328)">
<rect x="59" y="67.75" width="42" height="33.25" fill="white"/>
<path d="M91.6667 75.7118C90.8208 74.866 89.4208 74.866 88.575 75.7118L75.8875 88.3993L71.25 83.7618C70.4042 82.916 69.0042 82.916 68.1583 83.7618C67.3125 84.6077 67.3125 86.0077 68.1583 86.8535L73.8167 92.5118C74.9542 93.6493 76.7917 93.6493 77.9292 92.5118L91.6375 78.8035C92.5125 77.9577 92.5125 76.5577 91.6667 75.7118ZM100.417 53.7493H97.5V50.8327C97.5 49.2285 96.1875 47.916 94.5833 47.916C92.9792 47.916 91.6667 49.2285 91.6667 50.8327V53.7493H68.3333V50.8327C68.3333 49.2285 67.0208 47.916 65.4167 47.916C63.8125 47.916 62.5 49.2285 62.5 50.8327V53.7493H59.5833C56.3458 53.7493 53.7792 56.3743 53.7792 59.5827L53.75 100.416C53.75 103.624 56.3458 106.249 59.5833 106.249H100.417C103.625 106.249 106.25 103.624 106.25 100.416V59.5827C106.25 56.3743 103.625 53.7493 100.417 53.7493ZM97.5 100.416H62.5C60.8958 100.416 59.5833 99.1035 59.5833 97.4993V68.3327H100.417V97.4993C100.417 99.1035 99.1042 100.416 97.5 100.416Z" fill="white"/>
<path opacity="0.5" d="M91.8927 75.3844C91.0469 74.5385 89.6469 74.5385 88.801 75.3844L76.1135 88.0719L71.476 83.4344C70.6302 82.5885 69.2302 82.5885 68.3844 83.4344C67.5385 84.2802 67.5385 85.6802 68.3844 86.526L74.0427 92.1844C75.1802 93.3219 77.0177 93.3219 78.1552 92.1844L91.8635 78.476C92.7385 77.6302 92.7385 76.2302 91.8927 75.3844Z" fill="#0096C8"/>
</g>
</g>
<defs>
<clipPath id="clip0_1932_36328">
<rect width="70" height="70" fill="white" transform="translate(45 45)"/>
</clipPath>
</defs>
</svg>
