<svg width="102" height="94" viewBox="0 0 102 94" fill="none" xmlns="http://www.w3.org/2000/svg">
<g opacity="0.5">
<rect width="102" height="94" rx="8" fill="#C0504D" fill-opacity="0.5"/>
<path d="M69.445 38.1679V38.4096L66.7303 48.4502C66.4094 49.642 65.7024 50.6936 64.72 51.4406C63.7375 52.1875 62.535 52.5876 61.3009 52.578H47.0767C45.6803 52.5837 44.3325 52.0654 43.2997 51.1256C42.267 50.1857 41.6242 48.8927 41.4986 47.502L40.29 33.817C40.2481 33.3534 40.0338 32.9224 39.6896 32.6091C39.3453 32.2958 38.8961 32.123 38.4306 32.1249H34.3958C33.9026 32.1249 33.4297 31.929 33.081 31.5803C32.7323 31.2316 32.5364 30.7587 32.5364 30.2655C32.5364 29.7724 32.7323 29.2995 33.081 28.9508C33.4297 28.6021 33.9026 28.4062 34.3958 28.4062H38.4306C39.827 28.4005 41.1747 28.9188 42.2075 29.8586C43.2403 30.7985 43.8831 32.0915 44.0087 33.4823V33.9843H65.7448C66.2749 33.9801 66.7997 34.0893 67.2841 34.3046C67.7685 34.5198 68.2013 34.8362 68.5534 35.2323C68.9056 35.6285 69.169 36.0954 69.3259 36.6017C69.4829 37.108 69.5298 37.642 69.4636 38.1679H69.445Z" fill="white"/>
<path d="M45.552 65.5939C48.1193 65.5939 50.2004 63.5127 50.2004 60.9454C50.2004 58.3782 48.1193 56.297 45.552 56.297C42.9847 56.297 40.9036 58.3782 40.9036 60.9454C40.9036 63.5127 42.9847 65.5939 45.552 65.5939Z" fill="white"/>
<path d="M60.4271 65.5939C62.9944 65.5939 65.0756 63.5127 65.0756 60.9454C65.0756 58.3782 62.9944 56.297 60.4271 56.297C57.8599 56.297 55.7787 58.3782 55.7787 60.9454C55.7787 63.5127 57.8599 65.5939 60.4271 65.5939Z" fill="white"/>
</g>
</svg>
