<svg width="160" height="160" viewBox="0 0 160 160" fill="none" xmlns="http://www.w3.org/2000/svg">
<g opacity="0.5">
<rect width="160" height="160" rx="8" fill="#77933C"/>
<g clip-path="url(#clip0_2523_37756)">
<path d="M79.9997 50.834C68.7122 50.834 59.583 59.9632 59.583 71.2507C59.583 86.5632 79.9997 109.167 79.9997 109.167C79.9997 109.167 100.416 86.5632 100.416 71.2507C100.416 59.9632 91.2872 50.834 79.9997 50.834ZM79.9997 78.5423C75.9747 78.5423 72.708 75.2757 72.708 71.2507C72.708 67.2257 75.9747 63.959 79.9997 63.959C84.0247 63.959 87.2913 67.2257 87.2913 71.2507C87.2913 75.2757 84.0247 78.5423 79.9997 78.5423Z" fill="white"/>
</g>
</g>
<defs>
<clipPath id="clip0_2523_37756">
<rect width="70" height="70" fill="white" transform="translate(45 45)"/>
</clipPath>
</defs>
</svg>
