<svg width="160" height="160" viewBox="0 0 160 160" fill="none" xmlns="http://www.w3.org/2000/svg">
<circle cx="80" cy="80" r="80" fill="#E4E6E7"/>
<g clip-path="url(#clip0_1969_35990)">
<path d="M80 82.9154C86.9869 82.9154 93.3446 84.9387 98.0183 87.7906C100.354 89.216 102.348 90.8962 103.788 92.7197C105.206 94.5141 106.25 96.6616 106.25 98.957C106.25 101.421 105.051 103.364 103.325 104.749C101.691 106.062 99.5364 106.93 97.2457 107.537C92.6446 108.755 86.5013 109.165 80 109.165C73.4988 109.165 67.3553 108.755 62.7542 107.537C60.4636 106.93 58.3094 106.062 56.6744 104.749C54.9492 103.364 53.75 101.421 53.75 98.957C53.75 96.6616 54.7943 94.5141 56.2116 92.7197C57.6522 90.8962 59.6458 89.216 61.9816 87.7906C66.6553 84.9387 73.0132 82.9154 80 82.9154ZM80 50.832C88.0541 50.832 94.5833 57.3612 94.5833 65.4154C94.5833 73.4695 88.0541 79.9987 80 79.9987C71.9459 79.9987 65.4167 73.4695 65.4167 65.4154C65.4167 57.3612 71.9459 50.832 80 50.832Z" fill="white"/>
</g>
<defs>
<clipPath id="clip0_1969_35990">
<rect width="70" height="70" fill="white" transform="translate(45 45)"/>
</clipPath>
</defs>
</svg>
