<svg width="160" height="160" viewBox="0 0 160 160" fill="none" xmlns="http://www.w3.org/2000/svg">
<g opacity="0.5">
<rect width="160" height="160" rx="8" fill="#8064A2" fill-opacity="0.5"/>
<g clip-path="url(#clip0_1743_42835)">
<path d="M80 82.1875C84.7542 82.1875 88.9542 83.325 92.3667 84.8125C95.5167 86.2125 97.5 89.3625 97.5 92.775V97.5H62.5V92.8042C62.5 89.3625 64.4833 86.2125 67.6333 84.8417C71.0458 83.325 75.2458 82.1875 80 82.1875ZM56.6667 82.9167C59.875 82.9167 62.5 80.2917 62.5 77.0833C62.5 73.875 59.875 71.25 56.6667 71.25C53.4583 71.25 50.8333 73.875 50.8333 77.0833C50.8333 80.2917 53.4583 82.9167 56.6667 82.9167ZM59.9625 86.125C58.8833 85.95 57.8042 85.8333 56.6667 85.8333C53.7792 85.8333 51.0375 86.4458 48.5583 87.525C46.4 88.4583 45 90.5583 45 92.9208V97.5H58.125V92.8042C58.125 90.3833 58.7958 88.1083 59.9625 86.125ZM103.333 82.9167C106.542 82.9167 109.167 80.2917 109.167 77.0833C109.167 73.875 106.542 71.25 103.333 71.25C100.125 71.25 97.5 73.875 97.5 77.0833C97.5 80.2917 100.125 82.9167 103.333 82.9167ZM115 92.9208C115 90.5583 113.6 88.4583 111.442 87.525C108.963 86.4458 106.221 85.8333 103.333 85.8333C102.196 85.8333 101.117 85.95 100.038 86.125C101.204 88.1083 101.875 90.3833 101.875 92.8042V97.5H115V92.9208ZM80 62.5C84.8417 62.5 88.75 66.4083 88.75 71.25C88.75 76.0917 84.8417 80 80 80C75.1583 80 71.25 76.0917 71.25 71.25C71.25 66.4083 75.1583 62.5 80 62.5Z" fill="white"/>
</g>
</g>
<defs>
<clipPath id="clip0_1743_42835">
<rect width="70" height="70" fill="white" transform="translate(45 45)"/>
</clipPath>
</defs>
</svg>
