<svg width="24" height="24" viewBox="0 0 24 24" fill="none" xmlns="http://www.w3.org/2000/svg">
<circle cx="12" cy="12.0078" r="12" fill="#8064A2"/>
<path d="M9.54815 11.2856C9.54603 11.7917 9.54815 12.2978 9.55029 12.804C10.3988 12.8316 11.2495 12.8189 12.098 12.8316C11.7238 14.7137 9.16326 15.3241 7.80858 14.0949C6.4156 13.0167 6.48152 10.6518 7.92979 9.65017C8.94208 8.84204 10.3818 9.04193 11.3941 9.74161C11.7918 9.37371 12.1639 8.98027 12.5233 8.57195C11.6812 7.89993 10.6477 7.42143 9.54815 7.47248C7.25351 7.39591 5.14386 9.4056 5.10559 11.7003C4.95883 13.576 6.1923 15.4155 7.93405 16.0791C9.66939 16.7468 11.8939 16.2917 13.0019 14.7329C13.7334 13.7482 13.8908 12.4808 13.8057 11.2898C12.3851 11.2792 10.9666 11.2813 9.54815 11.2856Z" fill="white"/>
<path d="M17.8453 11.2796C17.841 10.8563 17.8389 10.431 17.8368 10.0078C17.4136 10.0078 16.9925 10.0078 16.5714 10.0078C16.5672 10.431 16.5629 10.8542 16.5608 11.2796C16.1355 11.2817 15.7123 11.2838 15.2891 11.2881C15.2891 11.7113 15.2891 12.1323 15.2891 12.5534C15.7123 12.5577 16.1376 12.562 16.5608 12.5662C16.5651 12.9894 16.5651 13.4126 16.5693 13.8358C16.9925 13.8358 17.4136 13.8358 17.8368 13.8358C17.8389 13.4126 17.841 12.9894 17.8453 12.5641C18.2706 12.5598 18.6938 12.5577 19.117 12.5534C19.117 12.1323 19.117 11.7091 19.117 11.2881C18.6938 11.2838 18.2685 11.2838 17.8453 11.2796Z" fill="white"/>
</svg>
