<svg width="24" height="24" viewBox="0 0 24 24" fill="none" xmlns="http://www.w3.org/2000/svg">
<circle cx="12" cy="12.0078" r="12" fill="#8064A2"/>
<path d="M11.9985 5.17969C10.1445 5.17969 9.91204 5.18755 9.1839 5.22077C8.45729 5.25394 7.96103 5.36932 7.52678 5.53809C7.07787 5.71255 6.69716 5.94598 6.31765 6.32549C5.93814 6.705 5.70471 7.08571 5.53025 7.53462C5.36148 7.96884 5.2461 8.4651 5.21293 9.19171C5.17971 9.91985 5.17188 10.1523 5.17188 12.0063C5.17188 13.8603 5.17971 14.0928 5.21293 14.8209C5.2461 15.5476 5.36148 16.0438 5.53025 16.478C5.70471 16.927 5.93814 17.3077 6.31765 17.6872C6.69716 18.0667 7.07787 18.3001 7.52678 18.4746C7.96103 18.6433 8.45729 18.7588 9.1839 18.7919C9.91204 18.8251 10.1445 18.833 11.9985 18.833C13.8525 18.833 14.085 18.8251 14.8131 18.7919C15.5398 18.7588 16.036 18.6433 16.4702 18.4746C16.9191 18.3001 17.2998 18.0667 17.6794 17.6872C18.0589 17.3077 18.2923 16.927 18.4668 16.478C18.6355 16.0438 18.7509 15.5476 18.7841 14.8209C18.8173 14.0928 18.8252 13.8603 18.8252 12.0063C18.8252 10.1523 18.8173 9.91985 18.7841 9.19171C18.7509 8.4651 18.6355 7.96884 18.4668 7.53462C18.2923 7.08571 18.0589 6.705 17.6794 6.32549C17.2998 5.94598 16.9191 5.71255 16.4702 5.53809C16.036 5.36932 15.5398 5.25394 14.8131 5.22077C14.085 5.18755 13.8525 5.17969 11.9985 5.17969ZM11.9985 6.40974C13.8213 6.40974 14.0372 6.41668 14.7571 6.44952C15.4227 6.4799 15.7841 6.59111 16.0247 6.68457C16.3433 6.80841 16.5707 6.95637 16.8096 7.19524C17.0485 7.43411 17.1964 7.66155 17.3203 7.98017C17.4138 8.22072 17.525 8.58219 17.5553 9.24778C17.5882 9.96762 17.5951 10.1835 17.5951 12.0063C17.5951 13.8291 17.5882 14.045 17.5553 14.7649C17.525 15.4305 17.4138 15.7919 17.3203 16.0325C17.1964 16.3511 17.0485 16.5785 16.8096 16.8174C16.5707 17.0563 16.3433 17.2043 16.0247 17.3281C15.7841 17.4216 15.4227 17.5328 14.7571 17.5631C14.0373 17.596 13.8214 17.603 11.9985 17.603C10.1756 17.603 9.95973 17.596 9.23997 17.5631C8.57438 17.5328 8.21291 17.4216 7.97236 17.3281C7.65371 17.2043 7.4263 17.0563 7.1874 16.8174C6.94853 16.5785 6.80057 16.3511 6.67676 16.0325C6.58327 15.7919 6.47206 15.4305 6.44168 14.7649C6.40884 14.045 6.4019 13.8291 6.4019 12.0063C6.4019 10.1835 6.40884 9.96762 6.44168 9.24778C6.47206 8.58219 6.58327 8.22072 6.67676 7.98017C6.80057 7.66155 6.94853 7.43411 7.1874 7.19524C7.4263 6.95637 7.65371 6.80841 7.97236 6.68457C8.21291 6.59111 8.57438 6.4799 9.23997 6.44952C9.95981 6.41668 10.1757 6.40974 11.9985 6.40974Z" fill="white"/>
<path d="M11.9978 14.2889C10.741 14.2889 9.72221 13.2701 9.72221 12.0134C9.72221 10.7566 10.741 9.73784 11.9978 9.73784C13.2545 9.73784 14.2733 10.7566 14.2733 12.0134C14.2733 13.2701 13.2545 14.2889 11.9978 14.2889ZM11.9978 8.50781C10.0617 8.50781 8.49219 10.0773 8.49219 12.0134C8.49219 13.9495 10.0617 15.519 11.9978 15.519C13.9338 15.519 15.5033 13.9495 15.5033 12.0134C15.5033 10.0773 13.9338 8.50781 11.9978 8.50781Z" fill="white"/>
<path d="M16.4587 8.35825C16.4587 8.81068 16.0919 9.17743 15.6395 9.17743C15.1871 9.17743 14.8203 8.81068 14.8203 8.35825C14.8203 7.90581 15.1871 7.53906 15.6395 7.53906C16.0919 7.53906 16.4587 7.90581 16.4587 8.35825Z" fill="white"/>
</svg>
