<svg width="24" height="24" viewBox="0 0 24 24" fill="none" xmlns="http://www.w3.org/2000/svg">
<circle cx="12" cy="12.0078" r="12" fill="#8064A2"/>
<path d="M17.3333 6.00781H6.66667C5.2 6.00781 4 7.20781 4 8.67448V15.3411C4 16.8078 5.2 18.0078 6.66667 18.0078H17.3333C18.8 18.0078 20 16.8078 20 15.3411V8.67448C20 7.20781 18.8 6.00781 17.3333 6.00781ZM18.4 9.87448L13.1333 13.4078C12.8 13.6078 12.4 13.7411 12 13.7411C11.6 13.7411 11.2 13.6078 10.8667 13.4078L5.6 9.87448C5.33333 9.67448 5.26667 9.27448 5.46667 8.94115C5.66667 8.67448 6.06667 8.60781 6.4 8.80781L11.6667 12.3411C11.8667 12.4745 12.2 12.4745 12.4 12.3411L17.6667 8.80781C18 8.60781 18.4 8.67448 18.6 9.00781C18.7333 9.27448 18.6667 9.67448 18.4 9.87448Z" fill="white"/>
</svg>
