<svg width="24" height="24" viewBox="0 0 24 24" fill="none" xmlns="http://www.w3.org/2000/svg">
<circle cx="12" cy="12.0078" r="12" fill="#8064A2"/>
<g clip-path="url(#clip0_2677_77489)">
<path d="M11.9999 4.02344C7.58169 4.02344 4 7.60522 4 12.0234C4 15.4126 6.10859 18.31 9.08459 19.4756C9.01459 18.8426 8.95144 17.8692 9.11237 17.1782C9.25769 16.5538 10.0504 13.2017 10.0504 13.2017C10.0504 13.2017 9.81109 12.7225 9.81109 12.0139C9.81109 10.9015 10.4558 10.0711 11.2587 10.0711C11.9412 10.0711 12.2709 10.5835 12.2709 11.198C12.2709 11.8844 11.8339 12.9106 11.6083 13.8616C11.4199 14.6579 12.0077 15.3072 12.793 15.3072C14.2149 15.3072 15.3079 13.808 15.3079 11.6438C15.3079 9.72841 13.9315 8.38916 11.9662 8.38916C9.68997 8.38916 8.35384 10.0965 8.35384 11.8609C8.35384 12.5485 8.61869 13.2857 8.94922 13.6865C9.01453 13.7657 9.02416 13.8352 9.00472 13.916C8.94394 14.1687 8.80903 14.7121 8.7825 14.8232C8.74759 14.9697 8.66653 15.0008 8.51497 14.9303C7.51578 14.4651 6.89112 13.0044 6.89112 11.8311C6.89112 9.30747 8.72463 6.98997 12.177 6.98997C14.9522 6.98997 17.1089 8.96744 17.1089 11.6103C17.1089 14.3674 15.3705 16.5863 12.9576 16.5863C12.147 16.5863 11.3848 16.1652 11.124 15.6677C11.124 15.6677 10.7228 17.1952 10.6256 17.5695C10.4449 18.2644 9.95741 19.1354 9.63128 19.6667C10.3799 19.8984 11.1753 20.0234 11.9999 20.0234C16.4183 20.0234 20 16.4418 20 12.0234C20 7.60522 16.4183 4.02344 11.9999 4.02344Z" fill="white"/>
</g>
<defs>
<clipPath id="clip0_2677_77489">
<rect width="16" height="16" fill="white" transform="translate(4 4.00781)"/>
</clipPath>
</defs>
</svg>
