<svg width="24" height="24" viewBox="0 0 24 24" fill="none" xmlns="http://www.w3.org/2000/svg">
<circle cx="12" cy="12.0078" r="12" fill="#8064A2"/>
<path d="M9.03169 18.5086C15.0694 18.5086 18.3718 13.5064 18.3718 9.16847C18.3718 9.02641 18.3718 8.88497 18.3623 8.74416C19.0047 8.27944 19.5593 7.70409 20 7.04497C19.4009 7.31044 18.7653 7.4845 18.1146 7.56144C18.7997 7.15131 19.3128 6.50575 19.5577 5.74575C18.9134 6.12809 18.2084 6.39759 17.4733 6.54256C16.8526 5.88253 15.9857 5.50781 15.0798 5.50781C13.2772 5.50781 11.794 6.99106 11.794 8.79356C11.794 9.04362 11.8225 9.29291 11.879 9.53647C9.24097 9.40425 6.77966 8.15644 5.11359 6.10672C4.24722 7.59816 4.6955 9.53097 6.12991 10.4888C5.60756 10.4733 5.09644 10.3324 4.64 10.0779V10.1195C4.64044 11.6762 5.74772 13.0292 7.27359 13.3374C6.79034 13.4692 6.28319 13.4885 5.79138 13.3938C6.22034 14.7277 7.45734 15.6471 8.85825 15.6734C7.69606 16.5868 6.25959 17.0829 4.78144 17.0814C4.52025 17.0809 4.25931 17.0651 4 17.0341C5.50106 17.9973 7.24813 18.5084 9.03169 18.5061" fill="white"/>
</svg>
