<svg width="24" height="24" viewBox="0 0 24 24" fill="none" xmlns="http://www.w3.org/2000/svg">
<circle cx="12" cy="12.0078" r="12" fill="#8064A2"/>
<path d="M18.8871 8.53456C18.7217 7.91209 18.2346 7.42181 17.6161 7.25541C16.4951 6.95313 12 6.95312 12 6.95312C12 6.95312 7.50481 6.95313 6.38375 7.25544C5.76528 7.42184 5.27819 7.91209 5.11287 8.53459C4.8125 9.66288 4.8125 12.017 4.8125 12.017C4.8125 12.017 4.8125 14.3712 5.11287 15.4995C5.27819 16.122 5.76528 16.5918 6.38375 16.7582C7.50481 17.0605 12 17.0605 12 17.0605C12 17.0605 16.4951 17.0605 17.6161 16.7582C18.2346 16.5918 18.7217 16.1219 18.8871 15.4994C19.1874 14.3712 19.1874 12.017 19.1874 12.017C19.1874 12.017 19.1874 9.66288 18.8871 8.53456Z" fill="white"/>
<path d="M10.5312 14.1537V9.87891L14.2883 12.0163L10.5312 14.1537Z" fill="#8064A2"/>
</svg>
