<svg width="24" height="24" viewBox="0 0 24 24" fill="none" xmlns="http://www.w3.org/2000/svg">
<circle cx="12" cy="12" r="12" fill="#EBEDF0"/>
<path d="M18.8871 8.52675C18.7218 7.90428 18.2347 7.414 17.6162 7.24759C16.4952 6.94531 12 6.94531 12 6.94531C12 6.94531 7.50487 6.94531 6.38381 7.24763C5.76534 7.41403 5.27825 7.90428 5.11294 8.52678C4.81256 9.65506 4.81256 12.0092 4.81256 12.0092C4.81256 12.0092 4.81256 14.3634 5.11294 15.4917C5.27825 16.1142 5.76534 16.584 6.38381 16.7504C7.50487 17.0527 12 17.0527 12 17.0527C12 17.0527 16.4952 17.0527 17.6162 16.7504C18.2347 16.584 18.7218 16.1141 18.8871 15.4916C19.1875 14.3634 19.1875 12.0092 19.1875 12.0092C19.1875 12.0092 19.1875 9.65506 18.8871 8.52675Z" fill="#6D747A"/>
<path d="M10.5298 14.1498V9.875L14.2869 12.0124L10.5298 14.1498Z" fill="#EBEDF0"/>
</svg>
