<svg width="25" height="24" viewBox="0 0 25 24" fill="none" xmlns="http://www.w3.org/2000/svg">
<circle cx="12.6016" cy="12" r="12" fill="#8064A2"/>
<path d="M12.6001 5.17188C10.7461 5.17188 10.5136 5.17973 9.78546 5.21296C9.05885 5.24612 8.56259 5.36151 8.12834 5.53028C7.67943 5.70474 7.29873 5.93816 6.91921 6.31768C6.5397 6.69719 6.30627 7.0779 6.13181 7.52681C5.96305 7.96103 5.84766 8.45729 5.81449 9.1839C5.78127 9.91204 5.77344 10.1445 5.77344 11.9985C5.77344 13.8525 5.78127 14.085 5.81449 14.8131C5.84766 15.5398 5.96305 16.036 6.13181 16.4702C6.30627 16.9191 6.5397 17.2998 6.91921 17.6794C7.29873 18.0589 7.67943 18.2923 8.12834 18.4668C8.56259 18.6355 9.05885 18.7509 9.78546 18.7841C10.5136 18.8173 10.7461 18.8252 12.6001 18.8252C14.4541 18.8252 14.6866 18.8173 15.4147 18.7841C16.1413 18.7509 16.6376 18.6355 17.0718 18.4668C17.5207 18.2923 17.9014 18.0589 18.2809 17.6794C18.6605 17.2998 18.8939 16.9191 19.0683 16.4702C19.2371 16.036 19.3525 15.5398 19.3856 14.8131C19.4189 14.085 19.4267 13.8525 19.4267 11.9985C19.4267 10.1445 19.4189 9.91204 19.3856 9.1839C19.3525 8.45729 19.2371 7.96103 19.0683 7.52681C18.8939 7.0779 18.6605 6.69719 18.2809 6.31768C17.9014 5.93816 17.5207 5.70474 17.0718 5.53028C16.6376 5.36151 16.1413 5.24612 15.4147 5.21296C14.6866 5.17973 14.4541 5.17188 12.6001 5.17188ZM12.6001 6.40193C14.4229 6.40193 14.6388 6.40886 15.3586 6.44171C16.0242 6.47208 16.3857 6.5833 16.6262 6.67676C16.9449 6.8006 17.1723 6.94855 17.4112 7.18743C17.6501 7.4263 17.798 7.65374 17.9218 7.97236C18.0153 8.21291 18.1265 8.57438 18.1569 9.23997C18.1897 9.95981 18.1967 10.1757 18.1967 11.9985C18.1967 13.8213 18.1897 14.0372 18.1569 14.7571C18.1265 15.4227 18.0153 15.7841 17.9218 16.0247C17.798 16.3433 17.6501 16.5707 17.4112 16.8096C17.1723 17.0485 16.9449 17.1964 16.6262 17.3203C16.3857 17.4138 16.0242 17.525 15.3586 17.5553C14.6389 17.5882 14.423 17.5951 12.6001 17.5951C10.7772 17.5951 10.5613 17.5882 9.84153 17.5553C9.17594 17.525 8.81447 17.4138 8.57392 17.3203C8.25527 17.1964 8.02786 17.0485 7.78896 16.8096C7.55009 16.5707 7.40213 16.3433 7.27832 16.0247C7.18483 15.7841 7.07362 15.4227 7.04324 14.7571C7.0104 14.0372 7.00346 13.8213 7.00346 11.9985C7.00346 10.1757 7.0104 9.95981 7.04324 9.23997C7.07362 8.57438 7.18483 8.21291 7.27832 7.97236C7.40213 7.65374 7.55009 7.4263 7.78896 7.18743C8.02786 6.94855 8.25527 6.8006 8.57392 6.67676C8.81447 6.5833 9.17594 6.47208 9.84153 6.44171C10.5614 6.40886 10.7773 6.40193 12.6001 6.40193Z" fill="white"/>
<path d="M12.5993 14.2811C11.3426 14.2811 10.3238 13.2623 10.3238 12.0056C10.3238 10.7488 11.3426 9.73002 12.5993 9.73002C13.8561 9.73002 14.8749 10.7488 14.8749 12.0056C14.8749 13.2623 13.8561 14.2811 12.5993 14.2811ZM12.5993 8.5C10.6632 8.5 9.09375 10.0695 9.09375 12.0056C9.09375 13.9417 10.6632 15.5111 12.5993 15.5111C14.5354 15.5111 16.1049 13.9417 16.1049 12.0056C16.1049 10.0695 14.5354 8.5 12.5993 8.5Z" fill="white"/>
<path d="M17.0603 8.35043C17.0603 8.80287 16.6935 9.16962 16.2411 9.16962C15.7887 9.16962 15.4219 8.80287 15.4219 8.35043C15.4219 7.898 15.7887 7.53125 16.2411 7.53125C16.6935 7.53125 17.0603 7.898 17.0603 8.35043Z" fill="white"/>
</svg>
