<svg width="25" height="24" viewBox="0 0 25 24" fill="none" xmlns="http://www.w3.org/2000/svg">
<circle cx="12.6016" cy="12" r="12" fill="#8064A2"/>
<path d="M10.6308 18.3587C11.2708 18.552 11.9175 18.6654 12.6042 18.6654C14.3723 18.6654 16.068 17.963 17.3182 16.7127C18.5685 15.4625 19.2708 13.7668 19.2708 11.9987C19.2708 11.1232 19.0984 10.2563 18.7634 9.44747C18.4283 8.63864 17.9373 7.90371 17.3182 7.28465C16.6992 6.6656 15.9642 6.17453 15.1554 5.8395C14.3466 5.50447 13.4796 5.33203 12.6042 5.33203C11.7287 5.33203 10.8618 5.50447 10.0529 5.8395C9.24411 6.17453 8.50918 6.6656 7.89012 7.28465C6.63988 8.5349 5.9375 10.2306 5.9375 11.9987C5.9375 14.832 7.7175 17.2654 10.2308 18.2254C10.1708 17.7054 10.1108 16.8454 10.2308 16.252L10.9975 12.9587C10.9975 12.9587 10.8042 12.572 10.8042 11.9587C10.8042 11.0387 11.3775 10.352 12.0308 10.352C12.6042 10.352 12.8708 10.772 12.8708 11.312C12.8708 11.8854 12.4908 12.7054 12.2975 13.492C12.1842 14.1454 12.6442 14.7187 13.3108 14.7187C14.4975 14.7187 15.4175 13.452 15.4175 11.6654C15.4175 10.0654 14.2708 8.97203 12.6242 8.97203C10.7442 8.97203 9.6375 10.372 9.6375 11.8454C9.6375 12.4187 9.82417 12.9987 10.1308 13.3787C10.1908 13.4187 10.1908 13.472 10.1708 13.572L9.9775 14.2987C9.9775 14.412 9.90417 14.452 9.79083 14.372C8.9375 13.9987 8.44417 12.7854 8.44417 11.8054C8.44417 9.6987 9.9375 7.78536 12.8175 7.78536C15.1108 7.78536 16.8975 9.43203 16.8975 11.6187C16.8975 13.912 15.4775 15.752 13.4442 15.752C12.7975 15.752 12.1642 15.4054 11.9375 14.9987L11.4908 16.5787C11.3375 17.152 10.9175 17.9187 10.6308 18.3787V18.3587Z" fill="white"/>
</svg>
