<svg width="25" height="24" viewBox="0 0 25 24" fill="none" xmlns="http://www.w3.org/2000/svg">
<circle cx="12.6016" cy="12" r="12" fill="#8064A2"/>
<g clip-path="url(#clip0_3831_151229)">
<path d="M9.63325 18.5008C15.671 18.5008 18.9734 13.4986 18.9734 9.16066C18.9734 9.01859 18.9734 8.87716 18.9638 8.73634C19.6063 8.27163 20.1608 7.69628 20.6016 7.03716C20.0025 7.30263 19.3669 7.47669 18.7161 7.55363C19.4012 7.1435 19.9143 6.49794 20.1593 5.73794C19.515 6.12028 18.8099 6.38978 18.0748 6.53475C17.4542 5.87472 16.5873 5.5 15.6813 5.5C13.8787 5.5 12.3955 6.98325 12.3955 8.78575C12.3955 9.03581 12.4241 9.28509 12.4806 9.52866C9.84253 9.39644 7.38122 8.14863 5.71516 6.09891C4.84878 7.59034 5.29706 9.52316 6.73147 10.481C6.20912 10.4655 5.698 10.3246 5.24156 10.0701V10.1117C5.242 11.6684 6.34928 13.0214 7.87516 13.3296C7.39191 13.4614 6.88475 13.4807 6.39294 13.3859C6.82191 14.7198 8.05891 15.6393 9.45981 15.6656C8.29763 16.579 6.86116 17.0751 5.383 17.0736C5.12181 17.0731 4.86088 17.0573 4.60156 17.0262C6.10263 17.9895 7.84969 18.5006 9.63325 18.4983" fill="white"/>
</g>
<defs>
<clipPath id="clip0_3831_151229">
<rect width="16" height="16" fill="white" transform="translate(4.60156 4)"/>
</clipPath>
</defs>
</svg>
