<svg width="25" height="24" viewBox="0 0 25 24" fill="none" xmlns="http://www.w3.org/2000/svg">
<circle cx="12.6016" cy="12" r="12" fill="#8064A2"/>
<path d="M11.2708 13.9987L14.7308 11.9987L11.2708 9.9987V13.9987ZM18.9775 8.7787C19.0642 9.09203 19.1242 9.51203 19.1642 10.0454C19.2108 10.5787 19.2308 11.0387 19.2308 11.4387L19.2708 11.9987C19.2708 13.4587 19.1642 14.532 18.9775 15.2187C18.8108 15.8187 18.4242 16.2054 17.8242 16.372C17.5108 16.4587 16.9375 16.5187 16.0575 16.5587C15.1908 16.6054 14.3975 16.6254 13.6642 16.6254L12.6042 16.6654C9.81083 16.6654 8.07083 16.5587 7.38417 16.372C6.78417 16.2054 6.3975 15.8187 6.23083 15.2187C6.14417 14.9054 6.08417 14.4854 6.04417 13.952C5.9975 13.4187 5.9775 12.9587 5.9775 12.5587L5.9375 11.9987C5.9375 10.5387 6.04417 9.46536 6.23083 8.7787C6.3975 8.1787 6.78417 7.79203 7.38417 7.62536C7.6975 7.5387 8.27083 7.4787 9.15083 7.4387C10.0175 7.39203 10.8108 7.37203 11.5442 7.37203L12.6042 7.33203C15.3975 7.33203 17.1375 7.4387 17.8242 7.62536C18.4242 7.79203 18.8108 8.1787 18.9775 8.7787Z" fill="white"/>
</svg>
