<svg width="24" height="24" viewBox="0 0 24 24" fill="none" xmlns="http://www.w3.org/2000/svg">
<circle cx="12" cy="12" r="12" fill="#EBEDF0"/>
<path d="M9.55041 11.2777C9.54829 11.7839 9.55041 12.29 9.55255 12.7962C10.4011 12.8238 11.2517 12.811 12.1003 12.8238C11.726 14.7059 9.16552 15.3162 7.81083 14.0871C6.41785 13.0088 6.48378 10.644 7.93205 9.64236C8.94434 8.83422 10.3841 9.03412 11.3964 9.7338C11.7941 9.3659 12.1662 8.97245 12.5256 8.56414C11.6835 7.89212 10.6499 7.41361 9.55041 7.46467C7.25576 7.3881 5.14611 9.39779 5.10785 11.6925C4.96109 13.5682 6.19456 15.4077 7.93631 16.0712C9.67165 16.739 11.8961 16.2839 13.0041 14.7251C13.7357 13.7404 13.8931 12.4729 13.808 11.282C12.3874 11.2714 10.9689 11.2735 9.55041 11.2777Z" fill="#6D747A"/>
<path d="M17.8486 11.2717C17.8443 10.8485 17.8422 10.4232 17.8401 10C17.4169 10 16.9958 10 16.5747 10C16.5705 10.4232 16.5662 10.8464 16.5641 11.2717C16.1388 11.2739 15.7155 11.276 15.2924 11.2803C15.2924 11.7035 15.2924 12.1245 15.2924 12.5456C15.7155 12.5499 16.1409 12.5541 16.5641 12.5584C16.5684 12.9816 16.5684 13.4048 16.5726 13.828C16.9958 13.828 17.4169 13.828 17.8401 13.828C17.8422 13.4048 17.8443 12.9816 17.8486 12.5563C18.2739 12.552 18.6971 12.5499 19.1203 12.5456C19.1203 12.1245 19.1203 11.7013 19.1203 11.2803C18.6971 11.276 18.2718 11.276 17.8486 11.2717Z" fill="#6D747A"/>
</svg>
