<svg width="16" height="16" viewBox="0 0 16 16" fill="none" xmlns="http://www.w3.org/2000/svg">
<path d="M15 7C14.45 7 14 7.45 14 8V13.22C14 13.77 13.55 14.22 13 14.22H3C2.45 14.22 2 13.77 2 13.22V3C2 2.45 2.45 2 3 2H8C8.55 2 9 1.55 9 1C9 0.45 8.55 0 8 0H2C0.9 0 0 0.9 0 2V14C0 15.1 0.9 16 2 16H14C15.1 16 16 15.1 16 14V8C16 7.45 15.55 7 15 7Z" fill="#8064A2"/>
<path d="M11 4H5C4.45 4 4 4.45 4 5C4 5.55 4.45 6 5 6H11C11.55 6 12 5.55 12 5C12 4.45 11.55 4 11 4Z" fill="#8064A2"/>
<path d="M11 7H5C4.45 7 4 7.45 4 8C4 8.55 4.45 9 5 9H11C11.55 9 12 8.55 12 8C12 7.45 11.55 7 11 7Z" fill="#8064A2"/>
<path d="M11 10H5C4.45 10 4 10.45 4 11C4 11.55 4.45 12 5 12H11C11.55 12 12 11.55 12 11C12 10.45 11.55 10 11 10Z" fill="#8064A2"/>
</svg>
