<svg width="23" height="23" viewBox="0 0 23 23" fill="none" xmlns="http://www.w3.org/2000/svg">
<path d="M18.459 10.1992C17.8918 10.1992 17.4277 10.6633 17.4277 11.2305V16.6136C17.4277 17.1808 16.9637 17.6448 16.3965 17.6448H6.08398C5.5168 17.6448 5.05273 17.1808 5.05273 16.6136V6.07422C5.05273 5.50703 5.5168 5.04297 6.08398 5.04297H11.2402C11.8074 5.04297 12.2715 4.57891 12.2715 4.01172C12.2715 3.44453 11.8074 2.98047 11.2402 2.98047H5.05273C3.91836 2.98047 2.99023 3.90859 2.99023 5.04297V17.418C2.99023 18.5523 3.91836 19.4805 5.05273 19.4805H17.4277C18.5621 19.4805 19.4902 18.5523 19.4902 17.418V11.2305C19.4902 10.6633 19.0262 10.1992 18.459 10.1992Z" fill="#8064A2"/>
<path d="M14.334 7.10547H8.14648C7.5793 7.10547 7.11523 7.56953 7.11523 8.13672C7.11523 8.70391 7.5793 9.16797 8.14648 9.16797H14.334C14.9012 9.16797 15.3652 8.70391 15.3652 8.13672C15.3652 7.56953 14.9012 7.10547 14.334 7.10547Z" fill="#8064A2"/>
<path d="M14.334 10.1992H8.14648C7.5793 10.1992 7.11523 10.6633 7.11523 11.2305C7.11523 11.7977 7.5793 12.2617 8.14648 12.2617H14.334C14.9012 12.2617 15.3652 11.7977 15.3652 11.2305C15.3652 10.6633 14.9012 10.1992 14.334 10.1992Z" fill="#8064A2"/>
<path d="M14.334 13.293H8.14648C7.5793 13.293 7.11523 13.757 7.11523 14.3242C7.11523 14.8914 7.5793 15.3555 8.14648 15.3555H14.334C14.9012 15.3555 15.3652 14.8914 15.3652 14.3242C15.3652 13.757 14.9012 13.293 14.334 13.293Z" fill="#8064A2"/>
</svg>
