<svg width="22" height="22" viewBox="0 0 22 22" fill="none" xmlns="http://www.w3.org/2000/svg">
<g clip-path="url(#clip0_1248_63135)">
<path d="M4.58318 12.0828V14.6586C4.58318 15.3278 4.94984 15.9511 5.53651 16.272L10.1198 18.7745C10.6698 19.077 11.3298 19.077 11.8798 18.7745L16.4632 16.272C17.0498 15.9511 17.4165 15.3278 17.4165 14.6586V12.0828L11.8798 15.1078C11.3298 15.4103 10.6698 15.4103 10.1198 15.1078L4.58318 12.0828ZM10.1198 3.22781L2.39234 7.44448C1.75984 7.79281 1.75984 8.70948 2.39234 9.05781L10.1198 13.2745C10.6698 13.577 11.3298 13.577 11.8798 13.2745L19.2498 9.25031V14.6678C19.2498 15.172 19.6623 15.5845 20.1665 15.5845C20.6707 15.5845 21.0832 15.172 21.0832 14.6678V8.79198C21.0832 8.45281 20.8998 8.15031 20.6065 7.98531L11.8798 3.22781C11.3298 2.93448 10.6698 2.93448 10.1198 3.22781Z" fill="#8064A2"/>
</g>
<defs>
<clipPath id="clip0_1248_63135">
<rect width="22" height="22" fill="white"/>
</clipPath>
</defs>
</svg>
