<svg width="22" height="22" viewBox="0 0 22 22" fill="none" xmlns="http://www.w3.org/2000/svg">
<g clip-path="url(#clip0_1248_63126)">
<path d="M12.1553 2.74929C7.48948 2.62096 3.66698 6.37013 3.66698 10.9993H2.02615C1.61365 10.9993 1.41198 11.4943 1.70531 11.7785L4.26281 14.3451C4.44615 14.5285 4.73031 14.5285 4.91365 14.3451L7.47115 11.7785C7.75531 11.4943 7.55365 10.9993 7.14115 10.9993H5.50031C5.50031 7.42429 8.41531 4.53679 12.0086 4.58263C15.4186 4.62846 18.2878 7.49763 18.3336 10.9076C18.3795 14.4918 15.492 17.416 11.917 17.416C10.4411 17.416 9.07531 16.9118 7.99365 16.0593C7.62698 15.7751 7.11365 15.8026 6.78365 16.1326C6.39865 16.5176 6.42615 17.1685 6.85698 17.4985C8.25031 18.5985 10.0011 19.2493 11.917 19.2493C16.5461 19.2493 20.2953 15.4268 20.167 10.761C20.0478 6.46179 16.4545 2.86846 12.1553 2.74929ZM11.6878 7.33263C11.312 7.33263 11.0003 7.64429 11.0003 8.02013V11.3935C11.0003 11.7143 11.1745 12.0168 11.4495 12.1818L14.3095 13.8776C14.6395 14.0701 15.0611 13.9601 15.2536 13.6393C15.4461 13.3093 15.3361 12.8876 15.0153 12.6951L12.3753 11.1276V8.01096C12.3753 7.64429 12.0636 7.33263 11.6878 7.33263Z" fill="#8064A2"/>
</g>
<defs>
<clipPath id="clip0_1248_63126">
<rect width="22" height="22" fill="white"/>
</clipPath>
</defs>
</svg>
