<svg width="23" height="23" viewBox="0 0 23 23" fill="none" xmlns="http://www.w3.org/2000/svg">
<path d="M12.8565 1.23047H6.24023C5.57719 1.23047 4.94131 1.49386 4.47247 1.9627C4.00363 2.43154 3.74023 3.06743 3.74023 3.73047V18.7305C3.74023 19.3935 4.00363 20.0294 4.47247 20.4982C4.94131 20.9671 5.57719 21.2305 6.24023 21.2305H16.2402C16.9033 21.2305 17.5392 20.9671 18.008 20.4982C18.4768 20.0294 18.7402 19.3935 18.7402 18.7305V7.11422C18.7402 6.78272 18.6084 6.46483 18.374 6.23047L13.7402 1.59672C13.5059 1.36228 13.188 1.23054 12.8565 1.23047ZM13.1152 5.60547V3.10547L16.8652 6.85547H14.3652C14.0337 6.85547 13.7158 6.72377 13.4814 6.48935C13.2469 6.25493 13.1152 5.93699 13.1152 5.60547ZM6.86523 4.98047H9.99023C10.156 4.98047 10.315 5.04632 10.4322 5.16353C10.5494 5.28074 10.6152 5.43971 10.6152 5.60547C10.6152 5.77123 10.5494 5.9302 10.4322 6.04741C10.315 6.16462 10.156 6.23047 9.99023 6.23047H6.86523C6.69947 6.23047 6.5405 6.16462 6.42329 6.04741C6.30608 5.9302 6.24023 5.77123 6.24023 5.60547C6.24023 5.43971 6.30608 5.28074 6.42329 5.16353C6.5405 5.04632 6.69947 4.98047 6.86523 4.98047ZM6.86523 8.73047H15.6152C15.781 8.73047 15.94 8.79632 16.0572 8.91353C16.1744 9.03074 16.2402 9.18971 16.2402 9.35547V18.1055C16.2402 18.2712 16.1744 18.4302 16.0572 18.5474C15.94 18.6646 15.781 18.7305 15.6152 18.7305H6.86523C6.69947 18.7305 6.5405 18.6646 6.42329 18.5474C6.30608 18.4302 6.24023 18.2712 6.24023 18.1055V9.35547C6.24023 9.18971 6.30608 9.03074 6.42329 8.91353C6.5405 8.79632 6.69947 8.73047 6.86523 8.73047Z" fill="#8064A2"/>
<rect x="5.79102" y="8.72656" width="10.9985" height="10.3002" fill="#8064A2"/>
<rect x="5.74023" y="11.2285" width="10.9985" height="1.26752" rx="0.63376" fill="white"/>
<rect x="5.79102" y="14.2373" width="10.9985" height="1.26752" rx="0.63376" fill="white"/>
<rect x="5.74023" y="17.2471" width="10.9985" height="1.26752" rx="0.63376" fill="white"/>
</svg>
