<svg width="16" height="16" viewBox="0 0 16 16" fill="none" xmlns="http://www.w3.org/2000/svg">
<path d="M14.6132 4.83351V4.92018L13.6399 8.52018C13.5248 8.94747 13.2713 9.32454 12.9191 9.59235C12.5668 9.86016 12.1357 10.0036 11.6932 10.0002H6.59322C6.09255 10.0022 5.60932 9.81638 5.23902 9.47941C4.86872 9.14243 4.63827 8.67882 4.59322 8.18018L4.15988 3.27351C4.14486 3.1073 4.06805 2.95276 3.94462 2.84044C3.82118 2.72811 3.66011 2.66617 3.49322 2.66685H2.04655C1.86974 2.66685 1.70017 2.59661 1.57514 2.47158C1.45012 2.34656 1.37988 2.17699 1.37988 2.00018C1.37988 1.82337 1.45012 1.6538 1.57514 1.52877C1.70017 1.40375 1.86974 1.33351 2.04655 1.33351H3.49322C3.99389 1.33148 4.47711 1.51731 4.84741 1.85429C5.21771 2.19126 5.44816 2.65487 5.49322 3.15351V3.33351H13.2865C13.4766 3.33202 13.6648 3.37118 13.8384 3.44835C14.0121 3.52553 14.1673 3.63894 14.2936 3.78099C14.4198 3.92303 14.5143 4.09043 14.5705 4.27196C14.6268 4.45349 14.6436 4.64495 14.6199 4.83351H14.6132Z" fill="#C0504D"/>
<path d="M6.04655 14.6668C6.96702 14.6668 7.71322 13.9206 7.71322 13.0002C7.71322 12.0797 6.96702 11.3335 6.04655 11.3335C5.12607 11.3335 4.37988 12.0797 4.37988 13.0002C4.37988 13.9206 5.12607 14.6668 6.04655 14.6668Z" fill="#C0504D"/>
<path d="M11.38 14.6668C12.3005 14.6668 13.0467 13.9206 13.0467 13.0002C13.0467 12.0797 12.3005 11.3335 11.38 11.3335C10.4596 11.3335 9.71338 12.0797 9.71338 13.0002C9.71338 13.9206 10.4596 14.6668 11.38 14.6668Z" fill="#C0504D"/>
</svg>
