<svg width="22" height="22" viewBox="0 0 22 22" fill="none" xmlns="http://www.w3.org/2000/svg">
<path d="M20.0933 6.64455V6.76372L18.755 11.7137C18.5968 12.3012 18.2482 12.8197 17.7639 13.188C17.2795 13.5562 16.6867 13.7534 16.0783 13.7487H9.06579C8.37737 13.7515 7.71294 13.496 7.20377 13.0327C6.69461 12.5693 6.37775 11.9319 6.31579 11.2462L5.71996 4.49955C5.69931 4.27101 5.59369 4.05852 5.42397 3.90407C5.25425 3.74963 5.03277 3.66446 4.80329 3.66539H2.81413C2.57101 3.66539 2.33785 3.56881 2.16595 3.3969C1.99404 3.22499 1.89746 2.99184 1.89746 2.74872C1.89746 2.50561 1.99404 2.27245 2.16595 2.10054C2.33785 1.92863 2.57101 1.83205 2.81413 1.83205H4.80329C5.49172 1.82926 6.15615 2.08478 6.66531 2.54812C7.17448 3.01146 7.49134 3.64892 7.55329 4.33455V4.58205H18.2691C18.5304 4.58 18.7892 4.63384 19.028 4.73996C19.2668 4.84607 19.4802 5.00202 19.6538 5.19733C19.8274 5.39264 19.9572 5.62282 20.0346 5.87242C20.112 6.12202 20.1351 6.38528 20.1025 6.64455H20.0933Z" fill="#8064A2"/>
<path d="M8.31413 20.1654C9.57978 20.1654 10.6058 19.1394 10.6058 17.8737C10.6058 16.608 9.57978 15.582 8.31413 15.582C7.04847 15.582 6.02246 16.608 6.02246 17.8737C6.02246 19.1394 7.04847 20.1654 8.31413 20.1654Z" fill="#8064A2"/>
<path d="M15.6471 20.1654C16.9128 20.1654 17.9388 19.1394 17.9388 17.8737C17.9388 16.608 16.9128 15.582 15.6471 15.582C14.3815 15.582 13.3555 16.608 13.3555 17.8737C13.3555 19.1394 14.3815 20.1654 15.6471 20.1654Z" fill="#8064A2"/>
</svg>
