<svg width="22" height="22" viewBox="0 0 22 22" fill="none" xmlns="http://www.w3.org/2000/svg">
<g clip-path="url(#clip0_1248_63153)">
<rect x="4.40039" y="7.14844" width="13.2" height="10.45" fill="#8064A2"/>
<path d="M14.6667 9.6538C14.4008 9.38797 13.9608 9.38797 13.695 9.6538L9.7075 13.6413L8.25 12.1838C7.98417 11.918 7.54417 11.918 7.27833 12.1838C7.0125 12.4496 7.0125 12.8896 7.27833 13.1555L9.05667 14.9338C9.41417 15.2913 9.99167 15.2913 10.3492 14.9338L14.6575 10.6255C14.9325 10.3596 14.9325 9.91963 14.6667 9.6538ZM17.4167 2.7513H16.5V1.83464C16.5 1.33047 16.0875 0.917969 15.5833 0.917969C15.0792 0.917969 14.6667 1.33047 14.6667 1.83464V2.7513H7.33333V1.83464C7.33333 1.33047 6.92083 0.917969 6.41667 0.917969C5.9125 0.917969 5.5 1.33047 5.5 1.83464V2.7513H4.58333C3.56583 2.7513 2.75917 3.5763 2.75917 4.58464L2.75 17.418C2.75 18.4263 3.56583 19.2513 4.58333 19.2513H17.4167C18.425 19.2513 19.25 18.4263 19.25 17.418V4.58464C19.25 3.5763 18.425 2.7513 17.4167 2.7513ZM16.5 17.418H5.5C4.99583 17.418 4.58333 17.0055 4.58333 16.5013V7.33464H17.4167V16.5013C17.4167 17.0055 17.0042 17.418 16.5 17.418Z" fill="#8064A2"/>
<path d="M14.7381 9.55094C14.4723 9.2851 14.0323 9.2851 13.7664 9.55094L9.77893 13.5384L8.32143 12.0809C8.0556 11.8151 7.6156 11.8151 7.34977 12.0809C7.08393 12.3468 7.08393 12.7868 7.34977 13.0526L9.1281 14.8309C9.4856 15.1884 10.0631 15.1884 10.4206 14.8309L14.7289 10.5226C15.0039 10.2568 15.0039 9.81677 14.7381 9.55094Z" fill="white"/>
</g>
<defs>
<clipPath id="clip0_1248_63153">
<rect width="22" height="22" fill="white"/>
</clipPath>
</defs>
</svg>
