<svg width="24" height="24" viewBox="0 0 24 24" fill="none" xmlns="http://www.w3.org/2000/svg">
<path d="M12.2389 1.16424C11.9436 1.16424 11.6436 1.18439 11.3389 1.21955C9.71699 1.40752 8.30137 2.04408 7.30293 2.95674C6.2998 3.86986 5.6998 5.09236 5.8498 6.38611C5.98105 7.53924 6.68418 8.50486 7.68262 9.17049C7.80449 8.87986 7.95918 8.61268 8.11387 8.39705C7.28887 7.8533 6.78262 7.11736 6.68887 6.28768C6.58105 5.36424 7.00293 4.43236 7.85137 3.65611C8.70449 2.87939 9.97481 2.29393 11.442 2.12424C12.9092 1.95408 14.2826 2.23346 15.2904 2.79455C16.2936 3.35611 16.917 4.16846 17.0248 5.08768C17.1279 5.99236 16.7342 6.90643 15.9279 7.6658C15.4294 7.35434 14.8562 7.18272 14.2686 7.16893H14.1654C13.9264 7.17361 13.692 7.20174 13.4482 7.2533C11.6904 7.66111 10.5982 9.38611 11.0014 11.1299C11.2498 12.208 12.0139 13.033 12.9795 13.4033L14.8404 21.4752L17.0436 22.8392L18.4264 20.6502L17.3248 19.9705L18.0186 18.8736L16.917 18.1892L17.6061 17.0971L16.5045 16.4127L17.1982 15.3158L16.5654 12.5783C17.2732 11.8236 17.5967 10.7455 17.3482 9.66268C17.2217 9.11424 16.9639 8.63143 16.6076 8.23768C17.4936 7.34705 18.0045 6.19861 17.8639 4.99393C17.7139 3.70252 16.8514 2.6483 15.6654 1.98877C14.7045 1.45205 13.5186 1.1558 12.2389 1.16424ZM11.292 7.5158C10.0779 7.56736 8.95293 8.3033 8.46074 9.49393C8.03418 10.5205 8.17949 11.6361 8.75137 12.5033L5.57324 20.1439L6.57168 22.5346L8.97168 21.5549L8.47012 20.3596L9.67012 19.8721L9.17324 18.6767L10.3732 18.1892L9.87168 16.9939L11.0717 16.5017L12.1404 13.933C11.1795 13.3939 10.4436 12.4705 10.1764 11.3174C9.85293 9.89705 10.3217 8.47674 11.292 7.5158ZM14.0107 7.8533C14.4279 7.84861 14.8217 8.01736 15.1076 8.29393C14.8498 8.45799 14.5639 8.6033 14.2639 8.73455C14.1889 8.70643 14.1092 8.69705 14.0248 8.69705C13.9967 8.69705 13.9732 8.69705 13.9498 8.70174C13.6217 8.73924 13.3779 8.98768 13.3357 9.29705C13.3264 9.34393 13.3264 9.3908 13.3264 9.43299C13.3311 9.44705 13.3311 9.4658 13.3311 9.47986C13.3779 9.87361 13.7201 10.1455 14.1139 10.0986C14.4326 10.0611 14.6764 9.82205 14.7232 9.52205C15.0139 9.3908 15.2857 9.24549 15.5436 9.08143C15.5529 9.1283 15.5623 9.17518 15.567 9.22205C15.6654 10.0658 15.0514 10.8392 14.2076 10.9377C13.3686 11.0361 12.5904 10.4221 12.4967 9.5783C12.3982 8.73455 13.0123 7.96111 13.8561 7.86268C13.9076 7.85799 13.9592 7.8533 14.0107 7.8533Z" fill="#8064A2"/>
</svg>
