<svg width="25" height="24" viewBox="0 0 25 24" fill="none" xmlns="http://www.w3.org/2000/svg">
<circle cx="12.2427" cy="12" r="9.5" stroke="#0096C8"/>
<path d="M6.56428 9.0815C7.10509 8.00461 7.93472 7.09933 8.96046 6.46685C9.9862 5.83438 11.1676 5.49962 12.3727 5.5C14.1244 5.5 15.596 6.14415 16.7212 7.19325L14.8576 9.05745C14.1836 8.4133 13.3269 8.08505 12.3727 8.08505C10.6794 8.08505 9.24618 9.22905 8.73593 10.765C8.60593 11.155 8.53183 11.571 8.53183 12C8.53183 12.429 8.60593 12.845 8.73593 13.235C9.24683 14.7716 10.6794 15.915 12.3727 15.915C13.2469 15.915 13.9912 15.6842 14.5736 15.2942C14.9112 15.0719 15.2003 14.7834 15.4233 14.4463C15.6463 14.1091 15.7986 13.7302 15.871 13.3325H12.3727V10.8183H18.4944C18.5711 11.2434 18.6127 11.6867 18.6127 12.1476C18.6127 14.1274 17.9042 15.7941 16.6744 16.925C15.5993 17.9183 14.1277 18.5 12.3727 18.5C11.519 18.5003 10.6736 18.3324 9.88483 18.0059C9.09606 17.6794 8.37937 17.2006 7.77572 16.597C7.17208 15.9933 6.6933 15.2766 6.36677 14.4878C6.04023 13.6991 5.87234 12.8537 5.87268 12C5.87268 10.9509 6.12358 9.959 6.56428 9.0815Z" fill="#0096C8"/>
</svg>
