<svg width="25" height="25" viewBox="0 0 25 25" fill="none" xmlns="http://www.w3.org/2000/svg">
<path d="M19.3782 15.9766L16.8372 15.6866C16.2269 15.6166 15.6267 15.8266 15.1965 16.2566L13.3558 18.0966C10.5246 16.6566 8.20368 14.3466 6.7631 11.5066L8.61384 9.65656C9.04402 9.22656 9.2541 8.62656 9.18407 8.01656L8.89396 5.49656C8.77391 4.48656 7.92356 3.72656 6.90315 3.72656H5.17245C4.042 3.72656 3.10162 4.66656 3.17164 5.79656C3.70186 14.3366 10.5346 21.1566 19.0681 21.6866C20.1985 21.7566 21.1389 20.8166 21.1389 19.6866V17.9566C21.1489 16.9466 20.3886 16.0966 19.3782 15.9766Z" fill="#0096C8"/>
</svg>
