<svg width="24" height="24" viewBox="0 0 24 24" fill="none" xmlns="http://www.w3.org/2000/svg">
<circle cx="12" cy="12" r="12" fill="#F7F5F9"/>
<path d="M8.96135 7.56641C9.38735 7.56641 9.78135 7.59974 10.1413 7.69841C10.502 7.76441 10.7973 7.89641 11.0593 8.06107C11.322 8.22641 11.5187 8.45707 11.6493 8.75374C11.7807 9.05041 11.8467 9.41374 11.8467 9.80907C11.8467 10.2711 11.748 10.6664 11.5187 10.9631C11.322 11.2604 10.994 11.5237 10.6007 11.7217C11.158 11.8871 11.584 12.1837 11.8467 12.5797C12.1087 12.9751 12.2727 13.4697 12.2727 14.0304C12.2727 14.4924 12.174 14.8877 12.01 15.2177C11.8467 15.5477 11.584 15.8444 11.2887 16.0424C10.9679 16.2546 10.6132 16.4106 10.24 16.5037C9.84668 16.6031 9.45335 16.6691 9.06002 16.6691H4.66602V7.56641H8.96135ZM8.69868 11.2597C9.05935 11.2597 9.35468 11.1611 9.58402 10.9964C9.81335 10.8317 9.91202 10.5344 9.91202 10.1717C9.91202 9.97374 9.87868 9.77641 9.81335 9.64441C9.74802 9.51241 9.64935 9.41307 9.51868 9.31441C9.38735 9.24841 9.25602 9.18241 9.09202 9.14974C8.92802 9.11641 8.76468 9.11641 8.56735 9.11641H6.66602V11.2604H8.69935L8.69868 11.2597ZM8.79735 15.1517C8.99402 15.1517 9.19068 15.1184 9.35468 15.0857C9.51868 15.0524 9.68268 14.9871 9.81335 14.8877C9.94694 14.7912 10.0587 14.6677 10.1413 14.5251C10.2067 14.3604 10.2727 14.1624 10.2727 13.9317C10.2727 13.4697 10.1413 13.1397 9.87935 12.9091C9.61668 12.7111 9.25602 12.6124 8.83002 12.6124H6.66602V15.1524L8.79735 15.1517ZM15.1253 15.1184C15.3873 15.3824 15.7807 15.5144 16.3053 15.5144C16.666 15.5144 16.994 15.4157 17.256 15.2511C17.5187 15.0531 17.6827 14.8551 17.748 14.6577H19.3547C19.092 15.4484 18.6987 16.0091 18.1747 16.3724C17.6493 16.7017 17.0267 16.8997 16.2727 16.8997C15.7903 16.9012 15.3119 16.8117 14.8627 16.6357C14.4585 16.4842 14.098 16.235 13.8133 15.9104C13.5089 15.6068 13.2838 15.2329 13.158 14.8217C12.994 14.3931 12.928 13.9317 12.928 13.4037C12.928 12.9091 12.994 12.4477 13.158 12.0184C13.316 11.6053 13.5495 11.2253 13.8467 10.8977C14.1461 10.5903 14.5022 10.3438 14.8953 10.1717C15.3332 9.99578 15.8008 9.90614 16.2727 9.90774C16.83 9.90774 17.322 10.0071 17.748 10.2377C18.1747 10.4684 18.502 10.7324 18.764 11.1284C19.0267 11.4911 19.224 11.9197 19.3547 12.3817C19.42 12.8431 19.4527 13.3051 19.42 13.8324H14.666C14.666 14.3604 14.8627 14.8551 15.1253 15.1191V15.1184ZM17.1907 11.6557C16.9613 11.4251 16.6007 11.2931 16.174 11.2931C15.8793 11.2931 15.6493 11.3597 15.4527 11.4584C15.256 11.5571 15.1253 11.6891 14.994 11.8211C14.8731 11.9485 14.793 12.1092 14.764 12.2824C14.7313 12.4477 14.6987 12.5797 14.6987 12.7111H17.6493C17.584 12.2164 17.42 11.8871 17.1907 11.6557ZM14.3053 8.19307H17.9773V9.08374H14.306V8.19307H14.3053Z" fill="#8064A2"/>
</svg>
