<svg width="12" height="14" viewBox="0 0 12 14" fill="none" xmlns="http://www.w3.org/2000/svg">
<path d="M4 6.33594H2.66667V7.66927H4V6.33594ZM6.66667 6.33594H5.33333V7.66927H6.66667V6.33594ZM9.33333 6.33594H8V7.66927H9.33333V6.33594ZM10.6667 1.66927H10V0.335938H8.66667V1.66927H3.33333V0.335938H2V1.66927H1.33333C0.593333 1.66927 0.00666666 2.26927 0.00666666 3.0026L0 12.3359C0 13.0693 0.593333 13.6693 1.33333 13.6693H10.6667C11.4 13.6693 12 13.0693 12 12.3359V3.0026C12 2.26927 11.4 1.66927 10.6667 1.66927ZM10.6667 12.3359H1.33333V5.0026H10.6667V12.3359Z" fill="#6D747A"/>
</svg>
