<svg width="24" height="25" viewBox="0 0 24 25" fill="none" xmlns="http://www.w3.org/2000/svg">
<g id="cancel">
<path id="Vector" d="M11.9972 2.69531C6.46847 2.69531 1.99951 7.16531 1.99951 12.6953C1.99951 18.2253 6.46847 22.6953 11.9972 22.6953C17.5259 22.6953 21.9949 18.2253 21.9949 12.6953C21.9949 7.16531 17.5259 2.69531 11.9972 2.69531ZM11.9972 20.6953C7.58821 20.6953 3.99905 17.1053 3.99905 12.6953C3.99905 8.28531 7.58821 4.69531 11.9972 4.69531C16.4062 4.69531 19.9953 8.28531 19.9953 12.6953C19.9953 17.1053 16.4062 20.6953 11.9972 20.6953ZM15.5864 7.69531L11.9972 11.2853L8.40802 7.69531L6.99835 9.10531L10.5875 12.6953L6.99835 16.2853L8.40802 17.6953L11.9972 14.1053L15.5864 17.6953L16.996 16.2853L13.4069 12.6953L16.996 9.10531L15.5864 7.69531Z" fill="#B42318"/>
</g>
</svg>
