<svg width="16" height="16" viewBox="0 0 16 16" fill="none" xmlns="http://www.w3.org/2000/svg">
<path d="M14.6161 4.83302V4.91969L13.6428 8.51969C13.5278 8.94698 13.2743 9.32405 12.922 9.59186C12.5698 9.85968 12.1386 10.0031 11.6961 9.99969H6.59615C6.09547 10.0017 5.61225 9.81589 5.24195 9.47892C4.87165 9.14194 4.6412 8.67833 4.59615 8.17969L4.16281 3.27302C4.14779 3.10681 4.07098 2.95227 3.94754 2.83995C3.82411 2.72762 3.66304 2.66568 3.49615 2.66636H2.04948C1.87267 2.66636 1.7031 2.59612 1.57807 2.4711C1.45305 2.34607 1.38281 2.1765 1.38281 1.99969C1.38281 1.82288 1.45305 1.65331 1.57807 1.52829C1.7031 1.40326 1.87267 1.33302 2.04948 1.33302H3.49615C3.99682 1.33099 4.48004 1.51682 4.85034 1.8538C5.22064 2.19077 5.45109 2.65438 5.49615 3.15302V3.33302H13.2895C13.4795 3.33153 13.6677 3.37069 13.8414 3.44786C14.0151 3.52504 14.1702 3.63845 14.2965 3.7805C14.4228 3.92255 14.5172 4.08994 14.5735 4.27147C14.6298 4.453 14.6466 4.64446 14.6228 4.83302H14.6161Z" fill="#C0504D"/>
<path d="M6.04948 14.6663C6.96995 14.6663 7.71614 13.9201 7.71614 12.9997C7.71614 12.0792 6.96995 11.333 6.04948 11.333C5.129 11.333 4.38281 12.0792 4.38281 12.9997C4.38281 13.9201 5.129 14.6663 6.04948 14.6663Z" fill="#C0504D"/>
<path d="M11.3776 14.6663C12.2981 14.6663 13.0443 13.9201 13.0443 12.9997C13.0443 12.0792 12.2981 11.333 11.3776 11.333C10.4571 11.333 9.71094 12.0792 9.71094 12.9997C9.71094 13.9201 10.4571 14.6663 11.3776 14.6663Z" fill="#C0504D"/>
</svg>
