<svg width="25" height="25" viewBox="0 0 25 25" fill="none" xmlns="http://www.w3.org/2000/svg">
<g id="check_circle_outline">
<path id="Vector" d="M12.0331 2.69531C6.49778 2.69531 2.00537 7.17531 2.00537 12.6953C2.00537 18.2153 6.49778 22.6953 12.0331 22.6953C17.5684 22.6953 22.0608 18.2153 22.0608 12.6953C22.0608 7.17531 17.5684 2.69531 12.0331 2.69531ZM12.0331 20.6953C7.61086 20.6953 4.01091 17.1053 4.01091 12.6953C4.01091 8.28531 7.61086 4.69531 12.0331 4.69531C16.4553 4.69531 20.0552 8.28531 20.0552 12.6953C20.0552 17.1053 16.4553 20.6953 12.0331 20.6953ZM15.9238 8.98531L10.0275 14.8653L8.14233 12.9853C7.75125 12.5953 7.1195 12.5953 6.72842 12.9853C6.33734 13.3753 6.33734 14.0053 6.72842 14.3953L9.3256 16.9853C9.71668 17.3753 10.3484 17.3753 10.7395 16.9853L17.3478 10.3953C17.7388 10.0053 17.7388 9.37531 17.3478 8.98531C16.9567 8.59531 16.3149 8.59531 15.9238 8.98531Z" fill="#34A853"/>
</g>
</svg>
