<svg width="16" height="16" viewBox="0 0 16 16" fill="none" xmlns="http://www.w3.org/2000/svg">
<path fill-rule="evenodd" clip-rule="evenodd" d="M1.77778 0H14.2222C15.2 0 16 0.8 16 1.77778V14.2222C16 15.2 15.2 16 14.2222 16H1.77778C0.8 16 0 15.2 0 14.2222V1.77778C0 0.8 0.8 0 1.77778 0ZM5.59998 11.8134C5.94665 12.1601 6.50665 12.1601 6.85332 11.8134L13.5911 5.06672C13.9378 4.72005 13.9378 4.16005 13.5911 3.81339C13.2444 3.46672 12.6844 3.46672 12.3378 3.81339L6.22221 9.92894L3.66221 7.36894C3.31554 7.02227 2.75554 7.02227 2.40887 7.36894C2.24243 7.53501 2.14889 7.76048 2.14889 7.99561C2.14889 8.23073 2.24243 8.4562 2.40887 8.62227L5.59998 11.8134Z" fill="#8064A2"/>
</svg>
