<svg width="24" height="24" viewBox="0 0 24 24" fill="none" xmlns="http://www.w3.org/2000/svg">
<circle cx="12" cy="12" r="12" fill="#F7F5F9"/>
<path d="M15.7698 15.2183L15.0125 14.461C14.0365 13.485 13.4178 12.2263 13.2205 10.877H14.3085V9.72502L13.1618 9.14902H13.1565V8.83968C13.8498 8.43968 14.3085 7.69835 14.3085 6.84502C14.3085 5.57035 13.2792 4.54102 12.0045 4.54102C10.7298 4.54102 9.70048 5.57035 9.70048 6.84502C9.70048 7.69835 10.1592 8.43968 10.8525 8.83968V9.14902L9.70048 9.72502V10.877H10.7885C10.5912 12.2263 9.97248 13.485 8.99648 14.461L8.23915 15.2183C7.70048 15.757 7.39648 16.4877 7.39648 17.2503V18.365C10.3298 19.149 13.3965 19.1543 16.6125 18.365V17.2503C16.6125 16.4877 16.3085 15.757 15.7698 15.2183ZM11.5405 6.20502C11.0978 6.64768 10.5592 6.82902 10.3405 6.61035C10.1165 6.38635 10.2978 5.84768 10.7405 5.40502C11.1778 4.96768 11.7165 4.78635 11.9405 5.01035C12.1592 5.22902 11.9778 5.76768 11.5405 6.20502Z" fill="#8064A2"/>
</svg>
