<svg width="14" height="14" viewBox="0 0 14 14" fill="none" xmlns="http://www.w3.org/2000/svg">
<path d="M7.00016 0.335938C3.3335 0.335938 0.333496 3.33594 0.333496 7.0026C0.333496 10.6693 3.3335 13.6693 7.00016 13.6693C10.6668 13.6693 13.6668 10.6693 13.6668 7.0026C13.6668 3.33594 10.6668 0.335938 7.00016 0.335938ZM9.36683 9.53594L6.64683 7.8626C6.44683 7.7426 6.32683 7.52927 6.32683 7.29594V4.16927C6.3335 3.89594 6.56016 3.66927 6.8335 3.66927C7.10683 3.66927 7.3335 3.89594 7.3335 4.16927V7.13594L9.8935 8.67594C10.1335 8.8226 10.2135 9.13594 10.0668 9.37594C9.92016 9.60927 9.60683 9.6826 9.36683 9.53594Z" fill="#6D747A"/>
</svg>
