<svg width="16" viewBox="0 0 24 20" fill="none" xmlns="http://www.w3.org/2000/svg">
    <path
        d="M11.134 0.499999C11.5189 -0.166667 12.4811 -0.166667 12.866 0.5L23.2583 18.5C23.6432 19.1667 23.1621 20 22.3923 20H1.60769C0.837894 20 0.35677 19.1667 0.74167 18.5L11.134 0.499999Z"
        fill="#DD1D43" />
    <g clip-path="url(#clip0_2_4)">
        <path
            d="M12.0001 17.5001C12.5523 17.5001 13.0001 17.0524 13.0001 16.5001C13.0001 15.9478 12.5523 15.5001 12.0001 15.5001C11.4478 15.5001 11.0001 15.9478 11.0001 16.5001C11.0001 17.0524 11.4478 17.5001 12.0001 17.5001Z"
            fill="white" />
        <path
            d="M12.0001 8.5C11.4501 8.5 11.0001 8.95 11.0001 9.5V13.5C11.0001 14.05 11.4501 14.5 12.0001 14.5C12.5501 14.5 13.0001 14.05 13.0001 13.5V9.5C13.0001 8.95 12.5501 8.5 12.0001 8.5Z"
            fill="white" />
    </g>
    <defs>
        <clipPath id="clip0_2_4">
            <rect width="12" height="12" fill="white" transform="translate(6 7)" />
        </clipPath>
    </defs>
</svg>