<svg width="22" height="17" viewBox="0 0 22 17" fill="none" xmlns="http://www.w3.org/2000/svg">
<g id="Group">
<g id="Group_2">
<g id="Group_3">
<path id="Vector" d="M2.25117 0.9375C1.60664 1.06641 1.03086 1.65937 0.901953 2.32109C0.850391 2.60469 0.850391 14.3953 0.901953 14.6789C1.03086 15.3578 1.61523 15.9422 2.28555 16.0625C2.57773 16.1141 19.4301 16.1141 19.7137 16.0625C20.1863 15.968 20.659 15.6328 20.8996 15.2117C21.1402 14.7906 21.1402 14.9109 21.1402 10.2359V5.96484L19.2152 5.95625L17.2816 5.94766L17.0152 5.81875C16.6887 5.66406 16.4223 5.39766 16.2504 5.07109L16.1301 4.83906L16.1215 2.8625L16.1129 0.894531H9.27227C5.49961 0.903125 2.3457 0.920312 2.25117 0.9375ZM18.6051 7.86406V8.5H10.9996H3.39414V7.86406V7.22812H10.9996H18.6051V7.86406ZM18.6051 10.3992V11.0352H10.9996H3.39414V10.3992V9.76328H10.9996H18.6051V10.3992ZM18.6051 12.9344V13.5703H10.9996H3.39414V12.9344V12.2984H10.9996H18.6051V12.9344Z" fill="#6D747A"/>
<path id="Vector_2" d="M17.3758 2.38047C17.3758 3.94453 17.3844 4.00469 17.6078 4.29688C17.668 4.37422 17.8141 4.49453 17.9344 4.56328L18.1406 4.675L19.2922 4.68359C19.9281 4.69219 20.5898 4.69219 20.7703 4.68359L21.0969 4.675L19.232 2.81016L17.3672 0.945312L17.3758 2.38047Z" fill="#6D747A"/>
</g>
</g>
</g>
</svg>
