<svg width="24" height="24" viewBox="0 0 24 24" fill="none" xmlns="http://www.w3.org/2000/svg">
<path d="M11.9589 2C6.46723 2 1.99933 6.4679 1.99933 11.9596C1.99933 17.4517 6.46723 21.92 11.9589 21.92C17.4506 21.92 21.9185 17.4517 21.9185 11.9596C21.9189 6.4679 17.451 2 11.9589 2ZM17.4619 11.2315V11.2319L14.5786 13.318L15.6891 16.7119C15.7067 16.7649 15.7159 16.8215 15.7159 16.8792C15.7159 17.1757 15.476 17.4164 15.1796 17.4164C15.0616 17.4164 14.9533 17.3787 14.865 17.3149L11.9593 15.2131L9.05361 17.3149C8.96535 17.3787 8.85703 17.4164 8.73949 17.4164C8.44262 17.4164 8.20231 17.1761 8.20231 16.8792C8.20231 16.8211 8.21194 16.7649 8.22959 16.7119L9.34045 13.318L6.4572 11.2319V11.2315C6.3224 11.1344 6.23495 10.9759 6.23495 10.797C6.23495 10.5005 6.47485 10.2606 6.77172 10.2606H10.341L11.4462 6.88231C11.5136 6.66287 11.7178 6.5032 11.9597 6.5032C12.2012 6.5032 12.4058 6.66287 12.4728 6.88231L13.5781 10.2606H17.1473C17.4438 10.2606 17.6841 10.5005 17.6841 10.797C17.6837 10.9759 17.5963 11.1344 17.4619 11.2315Z" fill="#8064A2"/>
</svg>
