<svg width="19" height="19" viewBox="0 0 19 19" fill="none" xmlns="http://www.w3.org/2000/svg">
<path d="M9.98528 1.36572L16.7166 5.25209V13.0248L9.98528 16.9112L3.25391 13.0248V5.25209L9.98528 1.36572Z" fill="#939CA3"/>
<path d="M9.67551 5.16022C9.775 4.86196 10.1969 4.86196 10.2963 5.16022L11.0343 7.37208C11.0786 7.50478 11.2023 7.59466 11.3422 7.59577L13.6739 7.61413C13.9883 7.6166 14.1186 8.01783 13.8657 8.20464L11.9902 9.58999C11.8777 9.67312 11.8304 9.81859 11.8726 9.95196L12.5756 12.1751C12.6705 12.4749 12.3292 12.7229 12.0734 12.5401L10.1762 11.1845C10.0624 11.1031 9.90943 11.1031 9.79562 11.1845L7.89851 12.5401C7.64269 12.7229 7.30139 12.4749 7.39619 12.1751L8.09924 9.95196C8.14142 9.81859 8.09417 9.67312 7.98165 9.58999L6.1061 8.20464C5.85319 8.01783 5.98355 7.6166 6.29796 7.61413L8.62962 7.59577C8.7695 7.59466 8.89322 7.50478 8.93749 7.37208L9.67551 5.16022Z" fill="white"/>
</svg>
