<svg width="15" height="16" viewBox="0 0 15 16" fill="none" xmlns="http://www.w3.org/2000/svg">
<g clip-path="url(#clip0_3556_49826)">
<path d="M0.0792995 3.00552L7.37212 0V15.9558C0.583168 13.1624 -0.31849 6.15838 0.0792995 3.00552Z" fill="#6D747A"/>
<path d="M14.6642 3.00552L7.37109 0V15.9558C14.1603 13.1624 15.062 6.15838 14.6642 3.00552Z" fill="#6D747A"/>
<path d="M10.5201 3.44922H4.06706C3.62768 3.44922 3.27148 3.80541 3.27148 4.2448C3.27148 4.68419 3.62768 5.04038 4.06706 5.04038H10.5201C10.9595 5.04038 11.3157 4.68419 11.3157 4.2448C11.3157 3.80541 10.9595 3.44922 10.5201 3.44922Z" fill="#EBEDF0"/>
<path d="M10.5201 6.36328H4.06706C3.62768 6.36328 3.27148 6.71947 3.27148 7.15886C3.27148 7.59825 3.62768 7.95444 4.06706 7.95444H10.5201C10.9595 7.95444 11.3157 7.59825 11.3157 7.15886C11.3157 6.71947 10.9595 6.36328 10.5201 6.36328Z" fill="#EBEDF0"/>
<path d="M10.5201 9.28125H4.06706C3.62768 9.28125 3.27148 9.63744 3.27148 10.0768C3.27148 10.5162 3.62768 10.8724 4.06706 10.8724H10.5201C10.9595 10.8724 11.3157 10.5162 11.3157 10.0768C11.3157 9.63744 10.9595 9.28125 10.5201 9.28125Z" fill="#EBEDF0"/>
</g>
<defs>
<clipPath id="clip0_3556_49826">
<rect width="14.7624" height="16" fill="white"/>
</clipPath>
</defs>
</svg>
