<svg width="14" height="14" viewBox="0 0 14 14" fill="none" xmlns="http://www.w3.org/2000/svg">
<path d="M6.97299 0.335938C3.31185 0.335938 0.333252 3.31454 0.333252 6.97567C0.333252 10.6371 3.31185 13.6159 6.97299 13.6159C10.6341 13.6159 13.6127 10.6371 13.6127 6.97567C13.613 3.31454 10.6344 0.335938 6.97299 0.335938ZM10.6416 6.49025V6.49052L8.71944 7.88126L9.45974 10.1439C9.47151 10.1792 9.47766 10.2169 9.47766 10.2554C9.47766 10.4531 9.31773 10.6135 9.12008 10.6135C9.04145 10.6135 8.96924 10.5884 8.9104 10.5459L6.97325 9.1447L5.03611 10.5459C4.97727 10.5884 4.90506 10.6135 4.82669 10.6135C4.62878 10.6135 4.46858 10.4533 4.46858 10.2554C4.46858 10.2166 4.475 10.1792 4.48676 10.1439L5.22733 7.88126L3.30516 6.49052V6.49025C3.2153 6.42552 3.157 6.31988 3.157 6.2006C3.157 6.00295 3.31693 5.84302 3.51485 5.84302H5.89436L6.63118 3.59081C6.67611 3.44452 6.81225 3.33807 6.97352 3.33807C7.13452 3.33807 7.27092 3.44452 7.31559 3.59081L8.05242 5.84302H10.4319C10.6296 5.84302 10.7898 6.00295 10.7898 6.2006C10.7895 6.31988 10.7312 6.42552 10.6416 6.49025Z" fill="#939CA3"/>
</svg>
