<svg width="21" height="20" viewBox="0 0 21 20" fill="none" xmlns="http://www.w3.org/2000/svg">
<path d="M10.54 6.75195C11.4338 6.75195 12.165 6.0207 12.165 5.12695C12.165 4.2332 11.4338 3.50195 10.54 3.50195C9.64629 3.50195 8.91504 4.2332 8.91504 5.12695C8.91504 6.0207 9.64629 6.75195 10.54 6.75195ZM10.54 8.37695C9.64629 8.37695 8.91504 9.1082 8.91504 10.002C8.91504 10.8957 9.64629 11.627 10.54 11.627C11.4338 11.627 12.165 10.8957 12.165 10.002C12.165 9.1082 11.4338 8.37695 10.54 8.37695ZM10.54 13.252C9.64629 13.252 8.91504 13.9832 8.91504 14.877C8.91504 15.7707 9.64629 16.502 10.54 16.502C11.4338 16.502 12.165 15.7707 12.165 14.877C12.165 13.9832 11.4338 13.252 10.54 13.252Z" fill="#969696"/>
</svg>
