<svg width="16" height="16" viewBox="0 0 16 16" fill="none" xmlns="http://www.w3.org/2000/svg">
<path d="M8.00008 5.33464C6.52675 5.33464 5.33341 6.52797 5.33341 8.0013C5.33341 9.47464 6.52675 10.668 8.00008 10.668C9.47341 10.668 10.6667 9.47464 10.6667 8.0013C10.6667 6.52797 9.47341 5.33464 8.00008 5.33464ZM13.9601 7.33463C13.6534 4.55464 11.4467 2.34797 8.66675 2.0413V0.667969H7.33341V2.0413C4.55341 2.34797 2.34675 4.55464 2.04008 7.33463H0.666748V8.66797H2.04008C2.34675 11.448 4.55341 13.6546 7.33341 13.9613V15.3346H8.66675V13.9613C11.4467 13.6546 13.6534 11.448 13.9601 8.66797H15.3334V7.33463H13.9601ZM8.00008 12.668C5.42008 12.668 3.33341 10.5813 3.33341 8.0013C3.33341 5.4213 5.42008 3.33464 8.00008 3.33464C10.5801 3.33464 12.6667 5.4213 12.6667 8.0013C12.6667 10.5813 10.5801 12.668 8.00008 12.668Z" fill="#8064A2"/>
</svg>
