<svg width="12" height="14" viewBox="0 0 12 14" fill="none" xmlns="http://www.w3.org/2000/svg">
<path d="M6.00008 0.335938C3.20008 0.335938 0.666748 2.4826 0.666748 5.8026C0.666748 7.9226 2.30008 10.4159 5.56008 13.2893C5.81341 13.5093 6.19341 13.5093 6.44675 13.2893C9.70008 10.4159 11.3334 7.9226 11.3334 5.8026C11.3334 2.4826 8.80008 0.335938 6.00008 0.335938ZM6.00008 7.0026C5.26675 7.0026 4.66675 6.4026 4.66675 5.66927C4.66675 4.93594 5.26675 4.33594 6.00008 4.33594C6.73341 4.33594 7.33341 4.93594 7.33341 5.66927C7.33341 6.4026 6.73341 7.0026 6.00008 7.0026Z" fill="#939CA3"/>
</svg>
