<svg width="48" height="40" viewBox="0 0 48 40" fill="none" xmlns="http://www.w3.org/2000/svg">
<rect width="48" height="40" fill="#F7F5F9"/>
<rect width="48" height="40" rx="8" fill="#F7F5F9"/>
<path d="M16 12L16.7071 11.2929L16 10.5858L15.2929 11.2929L16 12ZM24 29C24.5523 29 25 28.5523 25 28C25 27.4477 24.5523 27 24 27L24 29ZM21.7071 16.2929L16.7071 11.2929L15.2929 12.7071L20.2929 17.7071L21.7071 16.2929ZM15.2929 11.2929L10.2929 16.2929L11.7071 17.7071L16.7071 12.7071L15.2929 11.2929ZM15 12L15 22L17 22L17 12L15 12ZM22 29L24 29L24 27L22 27L22 29ZM15 22C15 25.866 18.134 29 22 29L22 27C19.2386 27 17 24.7614 17 22L15 22Z" fill="#8064A2"/>
<path d="M32 28L31.2929 28.7071L32 29.4142L32.7071 28.7071L32 28ZM24 11C23.4477 11 23 11.4477 23 12C23 12.5523 23.4477 13 24 13L24 11ZM26.2929 23.7071L31.2929 28.7071L32.7071 27.2929L27.7071 22.2929L26.2929 23.7071ZM32.7071 28.7071L37.7071 23.7071L36.2929 22.2929L31.2929 27.2929L32.7071 28.7071ZM33 28L33 18L31 18L31 28L33 28ZM26 11L24 11L24 13L26 13L26 11ZM33 18C33 14.134 29.866 11 26 11L26 13C28.7614 13 31 15.2386 31 18L33 18Z" fill="#8064A2"/>
</svg>
