<svg width="44" height="44" viewBox="0 0 44 44" fill="none" xmlns="http://www.w3.org/2000/svg">
<g filter="url(#filter0_d_6369_48753)">
<rect x="2" y="1" width="40" height="40" rx="8" fill="#8064A2"/>
<g clip-path="url(#clip0_6369_48753)">
<path d="M30.3635 21.707C30.5509 21.5194 30.6562 21.2651 30.6562 21C30.6562 20.7348 30.5509 20.4805 30.3635 20.293L24.7065 14.636C24.6142 14.5405 24.5039 14.4643 24.3819 14.4119C24.2599 14.3595 24.1286 14.3319 23.9959 14.3307C23.8631 14.3296 23.7314 14.3549 23.6085 14.4052C23.4856 14.4554 23.374 14.5297 23.2801 14.6236C23.1862 14.7175 23.1119 14.8291 23.0616 14.952C23.0114 15.0749 22.9861 15.2066 22.9872 15.3394C22.9884 15.4722 23.016 15.6034 23.0684 15.7254C23.1208 15.8474 23.197 15.9577 23.2925 16.05L27.2425 20H13.9995C13.7342 20 13.4799 20.1053 13.2924 20.2929C13.1048 20.4804 12.9995 20.7348 12.9995 21C12.9995 21.2652 13.1048 21.5195 13.2924 21.7071C13.4799 21.8946 13.7342 22 13.9995 22H27.2425L23.2925 25.95C23.1103 26.1386 23.0095 26.3912 23.0118 26.6534C23.0141 26.9156 23.1192 27.1664 23.3046 27.3518C23.4901 27.5372 23.7409 27.6424 24.0031 27.6447C24.2653 27.6469 24.5179 27.5461 24.7065 27.364L30.3635 21.707Z" fill="white"/>
</g>
</g>
<defs>
<filter id="filter0_d_6369_48753" x="0" y="0" width="44" height="44" filterUnits="userSpaceOnUse" color-interpolation-filters="sRGB">
<feFlood flood-opacity="0" result="BackgroundImageFix"/>
<feColorMatrix in="SourceAlpha" type="matrix" values="0 0 0 0 0 0 0 0 0 0 0 0 0 0 0 0 0 0 127 0" result="hardAlpha"/>
<feOffset dy="1"/>
<feGaussianBlur stdDeviation="1"/>
<feComposite in2="hardAlpha" operator="out"/>
<feColorMatrix type="matrix" values="0 0 0 0 0.0627451 0 0 0 0 0.0941176 0 0 0 0 0.156863 0 0 0 0.05 0"/>
<feBlend mode="normal" in2="BackgroundImageFix" result="effect1_dropShadow_6369_48753"/>
<feBlend mode="normal" in="SourceGraphic" in2="effect1_dropShadow_6369_48753" result="shape"/>
</filter>
<clipPath id="clip0_6369_48753">
<rect width="24" height="24" fill="white" transform="matrix(0 1 -1 0 34 9)"/>
</clipPath>
</defs>
</svg>
