<svg width="24" height="24" viewBox="0 0 24 24" fill="none" xmlns="http://www.w3.org/2000/svg">
<circle cx="12" cy="12" r="12" fill="#F7F5F9"/>
<path d="M10.0273 18.3607C10.6673 18.554 11.314 18.6673 12.0007 18.6673C13.7688 18.6673 15.4645 17.9649 16.7147 16.7147C17.9649 15.4645 18.6673 13.7688 18.6673 12.0007C18.6673 11.1252 18.4949 10.2583 18.1598 9.44943C17.8248 8.64059 17.3338 7.90566 16.7147 7.28661C16.0956 6.66755 15.3607 6.17649 14.5519 5.84145C13.743 5.50642 12.8761 5.33398 12.0007 5.33398C11.1252 5.33398 10.2583 5.50642 9.44943 5.84145C8.64059 6.17649 7.90566 6.66755 7.28661 7.28661C6.03636 8.53685 5.33398 10.2325 5.33398 12.0007C5.33398 14.834 7.11398 17.2673 9.62732 18.2273C9.56732 17.7073 9.50732 16.8473 9.62732 16.254L10.394 12.9607C10.394 12.9607 10.2007 12.574 10.2007 11.9607C10.2007 11.0407 10.774 10.354 11.4273 10.354C12.0007 10.354 12.2673 10.774 12.2673 11.314C12.2673 11.8873 11.8873 12.7073 11.694 13.494C11.5807 14.1473 12.0407 14.7207 12.7073 14.7207C13.894 14.7207 14.814 13.454 14.814 11.6673C14.814 10.0673 13.6673 8.97398 12.0207 8.97398C10.1407 8.97398 9.03398 10.374 9.03398 11.8473C9.03398 12.4207 9.22065 13.0007 9.52732 13.3807C9.58732 13.4207 9.58732 13.474 9.56732 13.574L9.37398 14.3007C9.37398 14.414 9.30065 14.454 9.18732 14.374C8.33398 14.0007 7.84065 12.7873 7.84065 11.8073C7.84065 9.70065 9.33398 7.78732 12.214 7.78732C14.5073 7.78732 16.294 9.43398 16.294 11.6207C16.294 13.914 14.874 15.754 12.8407 15.754C12.194 15.754 11.5607 15.4073 11.334 15.0007L10.8873 16.5807C10.734 17.154 10.314 17.9207 10.0273 18.3807V18.3607Z" fill="#8064A2"/>
</svg>
