<svg width="22" height="23" viewBox="0 0 22 23" fill="none" xmlns="http://www.w3.org/2000/svg">
<g id="Posts">
<path id="Vector" d="M12.6163 1.5H6C5.33696 1.5 4.70107 1.76339 4.23223 2.23223C3.76339 2.70107 3.5 3.33696 3.5 4V19C3.5 19.663 3.76339 20.2989 4.23223 20.7678C4.70107 21.2366 5.33696 21.5 6 21.5H16C16.663 21.5 17.2989 21.2366 17.7678 20.7678C18.2366 20.2989 18.5 19.663 18.5 19V7.38375C18.4999 7.05226 18.3682 6.73437 18.1337 6.5L13.5 1.86625C13.2656 1.63181 12.9477 1.50007 12.6163 1.5ZM12.875 5.875V3.375L16.625 7.125H14.125C13.7935 7.125 13.4755 6.9933 13.2411 6.75888C13.0067 6.52446 12.875 6.20652 12.875 5.875ZM6.625 5.25H9.75C9.91576 5.25 10.0747 5.31585 10.1919 5.43306C10.3092 5.55027 10.375 5.70924 10.375 5.875C10.375 6.04076 10.3092 6.19973 10.1919 6.31694C10.0747 6.43415 9.91576 6.5 9.75 6.5H6.625C6.45924 6.5 6.30027 6.43415 6.18306 6.31694C6.06585 6.19973 6 6.04076 6 5.875C6 5.70924 6.06585 5.55027 6.18306 5.43306C6.30027 5.31585 6.45924 5.25 6.625 5.25ZM6.625 9H15.375C15.5408 9 15.6997 9.06585 15.8169 9.18306C15.9342 9.30027 16 9.45924 16 9.625V18.375C16 18.5408 15.9342 18.6997 15.8169 18.8169C15.6997 18.9342 15.5408 19 15.375 19H6.625C6.45924 19 6.30027 18.9342 6.18306 18.8169C6.06585 18.6997 6 18.5408 6 18.375V9.625C6 9.45924 6.06585 9.30027 6.18306 9.18306C6.30027 9.06585 6.45924 9 6.625 9Z" fill="#6D747A"/>
<rect id="Rectangle 3467572" x="5.55176" y="8.99609" width="10.9985" height="10.3002" fill="#6D747A"/>
<rect id="Rectangle 3467573" x="5.50098" y="11.4961" width="10.9985" height="1.26752" rx="0.63376" fill="white"/>
<rect id="Rectangle 3467574" x="5.55176" y="14.5078" width="10.9985" height="1.26752" rx="0.63376" fill="white"/>
<rect id="Rectangle 3467575" x="5.50098" y="17.5156" width="10.9985" height="1.26752" rx="0.63376" fill="white"/>
</g>
</svg>
