<svg width="16" height="16" viewBox="0 0 16 16" fill="none" xmlns="http://www.w3.org/2000/svg">
<g clip-path="url(#clip0_173_53622)">
<rect x="3.2002" y="5.20312" width="9.6" height="7.6" fill="#0096C8"/>
<path d="M10.6667 7.0174C10.4733 6.82406 10.1533 6.82406 9.96 7.0174L7.06 9.9174L6 8.8574C5.80667 8.66406 5.48667 8.66406 5.29333 8.8574C5.1 9.05073 5.1 9.37073 5.29333 9.56406L6.58667 10.8574C6.84667 11.1174 7.26667 11.1174 7.52667 10.8574L10.66 7.72406C10.86 7.53073 10.86 7.21073 10.6667 7.0174ZM12.6667 1.9974H12V1.33073C12 0.964062 11.7 0.664062 11.3333 0.664062C10.9667 0.664062 10.6667 0.964062 10.6667 1.33073V1.9974H5.33333V1.33073C5.33333 0.964062 5.03333 0.664062 4.66667 0.664062C4.3 0.664062 4 0.964062 4 1.33073V1.9974H3.33333C2.59333 1.9974 2.00667 2.5974 2.00667 3.33073L2 12.6641C2 13.3974 2.59333 13.9974 3.33333 13.9974H12.6667C13.4 13.9974 14 13.3974 14 12.6641V3.33073C14 2.5974 13.4 1.9974 12.6667 1.9974ZM12 12.6641H4C3.63333 12.6641 3.33333 12.3641 3.33333 11.9974V5.33073H12.6667V11.9974C12.6667 12.3641 12.3667 12.6641 12 12.6641Z" fill="#0096C8"/>
<path d="M10.7185 6.94187C10.5252 6.74854 10.2052 6.74854 10.0119 6.94187L7.11186 9.84187L6.05186 8.78188C5.85853 8.58854 5.53853 8.58854 5.3452 8.78188C5.15186 8.97521 5.15186 9.29521 5.3452 9.48854L6.63853 10.7819C6.89853 11.0419 7.31853 11.0419 7.57853 10.7819L10.7119 7.64854C10.9119 7.45521 10.9119 7.13521 10.7185 6.94187Z" fill="white"/>
</g>
<defs>
<clipPath id="clip0_173_53622">
<rect width="16" height="16" fill="white"/>
</clipPath>
</defs>
</svg>
