<svg version="1.1" id="Layer_1" xmlns="http://www.w3.org/2000/svg" xmlns:xlink="http://www.w3.org/1999/xlink" x="0px" y="0px"
	 width="100%" viewBox="0 0 136 175" enable-background="new 0 0 136 175" xml:space="preserve">
<path fill="#F7F8F9" opacity="1.000000" stroke="none" 
	d="
M1.000000,70.000000 
	C1.000000,46.666668 1.000000,23.833340 1.000000,1.000006 
	C46.333324,1.000004 91.666649,1.000004 136.999969,1.000002 
	C136.999985,59.333317 136.999985,117.666634 137.000000,175.999969 
	C91.666687,175.999969 46.333374,175.999969 1.000031,175.999985 
	C1.000000,140.833328 1.000000,105.666664 1.000000,70.000000 
M76.156830,136.325226 
	C67.064781,125.154991 57.972733,113.984749 48.385067,102.205605 
	C74.295952,101.586174 94.364304,93.718842 100.102211,65.626099 
	C105.411713,65.626099 110.509796,65.626099 115.684578,65.626099 
	C117.342102,59.747982 118.887695,54.266800 120.632408,48.079472 
	C112.929199,48.079472 106.168869,48.079472 100.270393,48.079472 
	C97.445587,41.460442 94.936440,35.581047 92.301163,29.406109 
	C100.092690,29.406109 107.849083,29.406109 115.716721,29.406109 
	C117.354942,23.608803 118.911194,18.101578 120.550880,12.299076 
	C88.028740,12.299076 56.224216,12.299076 24.062603,12.299076 
	C22.411633,17.730371 20.750164,23.196201 18.971981,29.045994 
	C29.681499,29.045994 39.864891,28.593531 49.981514,29.219721 
	C55.827885,29.581593 61.840195,31.000059 67.282219,33.180141 
	C73.620979,35.719460 77.459068,41.097359 79.559402,48.296513 
	C60.620880,48.296513 42.495403,48.296513 24.072773,48.296513 
	C22.377161,54.128860 20.736763,59.771294 18.930763,65.983337 
	C39.675259,65.983337 59.733273,65.983337 80.113823,65.983337 
	C77.854645,74.945076 72.483482,80.676598 64.290672,82.900139 
	C57.954052,84.619911 51.235699,85.258453 44.644783,85.632126 
	C36.733395,86.080666 28.777157,85.738121 19.414942,85.738121 
	C20.757750,91.384087 20.509901,97.280258 23.275200,100.827484 
	C39.550503,121.704918 56.519848,142.041626 73.293587,162.529205 
	C74.088745,163.500397 75.228294,164.851166 76.238747,164.878754 
	C83.605965,165.079773 90.981201,164.986969 99.559486,164.986969 
	C91.311066,154.876434 83.965202,145.872208 76.156830,136.325226 
z"/>
<path fill="#0D0E0F" opacity="1.000000" stroke="none" 
	d="
M76.388084,136.596603 
	C83.965202,145.872208 91.311066,154.876434 99.559486,164.986969 
	C90.981201,164.986969 83.605965,165.079773 76.238747,164.878754 
	C75.228294,164.851166 74.088745,163.500397 73.293587,162.529205 
	C56.519848,142.041626 39.550503,121.704918 23.275200,100.827484 
	C20.509901,97.280258 20.757750,91.384087 19.414942,85.738121 
	C28.777157,85.738121 36.733395,86.080666 44.644783,85.632126 
	C51.235699,85.258453 57.954052,84.619911 64.290672,82.900139 
	C72.483482,80.676598 77.854645,74.945076 80.113823,65.983337 
	C59.733273,65.983337 39.675259,65.983337 18.930763,65.983337 
	C20.736763,59.771294 22.377161,54.128860 24.072773,48.296513 
	C42.495403,48.296513 60.620880,48.296513 79.559402,48.296513 
	C77.459068,41.097359 73.620979,35.719460 67.282219,33.180141 
	C61.840195,31.000059 55.827885,29.581593 49.981514,29.219721 
	C39.864891,28.593531 29.681499,29.045994 18.971981,29.045994 
	C20.750164,23.196201 22.411633,17.730371 24.062603,12.299076 
	C56.224216,12.299076 88.028740,12.299076 120.550880,12.299076 
	C118.911194,18.101578 117.354942,23.608803 115.716721,29.406109 
	C107.849083,29.406109 100.092690,29.406109 92.301163,29.406109 
	C94.936440,35.581047 97.445587,41.460442 100.270393,48.079472 
	C106.168869,48.079472 112.929199,48.079472 120.632408,48.079472 
	C118.887695,54.266800 117.342102,59.747982 115.684578,65.626099 
	C110.509796,65.626099 105.411713,65.626099 100.102211,65.626099 
	C94.364304,93.718842 74.295952,101.586174 48.385067,102.205605 
	C57.972733,113.984749 67.064781,125.154991 76.388084,136.596603 
z"/>
</svg>