<svg width="24" height="24" viewBox="0 0 24 24" fill="none" xmlns="http://www.w3.org/2000/svg">
<circle cx="12" cy="12" r="12" fill="#F7F5F9"/>
<g clip-path="url(#clip0_2717_41957)">
<path d="M15.7697 8.00967C16.1016 7.97555 16.4441 8.03158 16.7439 8.18029C17.1041 8.35414 17.4023 8.65425 17.5738 9.01578C17.7997 9.4804 17.8069 10.0447 17.5935 10.5151C17.4062 10.9393 17.0463 11.2819 16.6144 11.4506C16.5644 11.4676 16.5147 11.4958 16.4603 11.4944C16.3988 11.4876 16.3821 11.3926 16.4391 11.3669C16.4991 11.3387 16.5644 11.3234 16.6244 11.2949C17.0116 11.1253 17.3284 10.8008 17.4868 10.4086C17.6618 9.98596 17.6469 9.49153 17.4497 9.07935C17.2704 8.70238 16.9434 8.39742 16.5524 8.24943C16.2392 8.1282 15.8884 8.10665 15.5625 8.18855C15.2647 8.26165 14.9894 8.42131 14.7769 8.64221C14.4856 8.94088 14.3141 9.3545 14.315 9.77206C14.3076 10.1501 14.4411 10.528 14.6794 10.8209C14.871 11.0594 15.1312 11.2431 15.4209 11.3421C15.4472 11.3518 15.4775 11.3631 15.4888 11.3913C15.5125 11.4346 15.4691 11.4942 15.4209 11.487C15.3676 11.4781 15.3184 11.4538 15.2685 11.4341C14.9622 11.3064 14.6954 11.0899 14.5028 10.8202C14.2848 10.5138 14.1666 10.1372 14.1742 9.76111C14.1781 9.34139 14.3378 8.92562 14.6153 8.61078C14.9066 8.27476 15.3275 8.05583 15.7697 8.00967Z" fill="#8064A2"/>
<path d="M15.7358 8.41285C16.0449 8.36202 16.3707 8.41752 16.6433 8.57269C17.0437 8.79323 17.3192 9.22229 17.3508 9.67865C17.3705 9.93332 17.3204 10.1945 17.2021 10.4213C17.0582 10.7065 16.8107 10.9364 16.5189 11.0646C16.4916 11.0766 16.4585 11.0842 16.433 11.0642C16.388 11.0352 16.3978 10.9576 16.4501 10.9418C16.6473 10.8557 16.8255 10.7225 16.9555 10.5501C17.0861 10.3829 17.1705 10.1808 17.2017 9.97122C17.2423 9.69481 17.1891 9.4053 17.0489 9.16338C16.9501 8.99259 16.8115 8.84478 16.6455 8.73756C16.3326 8.53012 15.9233 8.47822 15.5677 8.59783C15.217 8.71152 14.9244 8.98989 14.793 9.33436C14.6561 9.68206 14.6866 10.0906 14.8754 10.413C15.0033 10.6339 15.1988 10.8157 15.4314 10.922C15.4564 10.9344 15.4858 10.9486 15.4939 10.978C15.5117 11.026 15.458 11.0824 15.4092 11.0641C15.3657 11.051 15.3262 11.0276 15.2867 11.0061C14.9787 10.8365 14.7401 10.5461 14.6335 10.211C14.5196 9.8543 14.5557 9.45146 14.7369 9.12315C14.9365 8.74905 15.317 8.47858 15.7358 8.41285Z" fill="#8064A2"/>
<path d="M15.8885 8.8251C16.1818 8.80193 16.4821 8.92208 16.6779 9.14191C16.8713 9.35509 16.9631 9.65843 16.9124 9.94256C16.8797 10.1502 16.7754 10.3461 16.6206 10.4887C16.5793 10.5261 16.539 10.5694 16.4855 10.5882C16.4325 10.6001 16.3856 10.5383 16.4103 10.49C16.4316 10.4562 16.4688 10.4377 16.4977 10.4113C16.7488 10.2023 16.8519 9.83516 16.743 9.52661C16.6868 9.35473 16.571 9.20333 16.4205 9.10294C16.2574 8.99194 16.0534 8.94435 15.8582 8.96931C15.6572 8.99392 15.4672 9.09629 15.3363 9.25021C15.2104 9.3973 15.1349 9.59018 15.1394 9.78469C15.1331 10.0352 15.2562 10.2834 15.4546 10.4352C15.4724 10.4506 15.493 10.4675 15.4968 10.4923C15.504 10.5304 15.4731 10.5735 15.4329 10.5724C15.4052 10.5758 15.3828 10.5579 15.3625 10.5426C15.2017 10.4151 15.0834 10.2351 15.0299 10.037C14.9731 9.81738 14.9914 9.57636 15.0916 9.37161C15.2346 9.06432 15.5505 8.84863 15.8885 8.8251Z" fill="#8064A2"/>
<mask id="mask0_2717_41957" style="mask-type:luminance" maskUnits="userSpaceOnUse" x="15" y="9" width="3" height="6">
<path d="M15.6328 9.83984H17.4259V14.6568H15.6328V9.83984Z" fill="white"/>
</mask>
<g mask="url(#mask0_2717_41957)">
<path d="M15.8623 9.8837C15.9555 9.85604 16.0624 9.88316 16.1294 9.95428C16.1849 10.0085 16.2077 10.0877 16.2071 10.1641C16.2068 11.18 16.2073 12.196 16.2068 13.212C16.2046 13.4218 16.2836 13.6299 16.418 13.7901C16.5667 13.9687 16.7861 14.0866 17.0175 14.1102C17.0843 14.1183 17.1547 14.1087 17.2177 14.1364C17.3149 14.1757 17.3844 14.2765 17.3813 14.3823C17.3853 14.4918 17.3106 14.5958 17.2086 14.6335C17.1206 14.6628 17.0248 14.6481 16.9345 14.6389C16.5299 14.5904 16.1527 14.3593 15.9235 14.0224C15.8221 13.8744 15.7477 13.7073 15.7077 13.532C15.6628 13.3465 15.668 13.154 15.6683 12.9642C15.6683 12.0347 15.6687 11.1051 15.6683 10.1759C15.6687 10.1096 15.6793 10.0403 15.7197 9.98589C15.7545 9.93776 15.8048 9.90004 15.8623 9.8837Z" fill="#8064A2"/>
</g>
<mask id="mask1_2717_41957" style="mask-type:luminance" maskUnits="userSpaceOnUse" x="7" y="11" width="6" height="4">
<path d="M7.12695 11.7246H12.4143V14.6565H7.12695V11.7246Z" fill="white"/>
</mask>
<g mask="url(#mask1_2717_41957)">
<path d="M7.70618 12.0506C8.07597 11.7665 8.58837 11.6834 9.02982 11.833C9.31969 11.9267 9.574 12.1184 9.7527 12.364C9.88686 12.1866 10.0544 12.0321 10.2525 11.9291C10.6658 11.7053 11.1895 11.7035 11.6035 11.9256C12.0079 12.1349 12.3001 12.546 12.3621 12.9977C12.3849 13.1541 12.3773 13.3123 12.3786 13.4698C12.3786 13.7337 12.3782 13.9978 12.3786 14.2619C12.3779 14.329 12.3838 14.3983 12.3637 14.4635C12.3367 14.5503 12.262 14.6193 12.1742 14.6408C12.0749 14.6667 11.9635 14.6288 11.9005 14.548C11.8535 14.4921 11.8393 14.417 11.8394 14.3457C11.84 13.9673 11.8394 13.5893 11.84 13.2108C11.8468 12.9574 11.7346 12.706 11.5481 12.5357C11.3806 12.3788 11.151 12.2911 10.9217 12.2947C10.7161 12.296 10.512 12.3703 10.3536 12.5014C10.1501 12.6672 10.0237 12.9244 10.0221 13.1875C10.0192 13.5338 10.0216 13.88 10.0207 14.2263C10.0196 14.2935 10.0246 14.3608 10.0169 14.4274C9.99964 14.5533 9.87967 14.657 9.75162 14.6503C9.61171 14.6559 9.48653 14.5304 9.48689 14.3913C9.48474 14.0214 9.48707 13.6512 9.48582 13.2811C9.48366 13.1904 9.48546 13.0988 9.46498 13.0099C9.41757 12.7913 9.28628 12.592 9.10345 12.4632C8.94954 12.3524 8.75952 12.2926 8.56987 12.2947C8.36962 12.2947 8.17044 12.3648 8.01329 12.4889C7.80065 12.6539 7.66865 12.9174 7.66559 13.187C7.66487 13.5848 7.66595 13.9829 7.66523 14.3809C7.66523 14.4673 7.62177 14.5533 7.54921 14.6015C7.4639 14.6616 7.34232 14.6647 7.25485 14.6072C7.17852 14.5593 7.12913 14.4713 7.13111 14.3806C7.13093 13.9788 7.13057 13.5772 7.13129 13.1753C7.1356 12.7385 7.35543 12.3107 7.70618 12.0506Z" fill="#8064A2"/>
</g>
<mask id="mask2_2717_41957" style="mask-type:luminance" maskUnits="userSpaceOnUse" x="12" y="11" width="4" height="4">
<path d="M12.5508 11.7246H15.4933V14.6565H12.5508V11.7246Z" fill="white"/>
</mask>
<g mask="url(#mask2_2717_41957)">
<path d="M12.7792 11.7645C12.8884 11.7428 13.0077 11.7969 13.0612 11.8951C13.104 11.9675 13.098 12.0542 13.0977 12.135C13.0975 12.4657 13.0977 12.7965 13.0977 13.1271C13.0977 13.2022 13.0948 13.2782 13.1083 13.3525C13.1386 13.5395 13.2302 13.716 13.3649 13.8493C13.5014 13.9854 13.6817 14.0767 13.8726 14.104C14.0693 14.1343 14.2755 14.0959 14.449 13.9986C14.7349 13.8428 14.9211 13.5248 14.9165 13.1993C14.9168 12.8091 14.9159 12.419 14.9168 12.0289C14.9152 11.9352 14.9671 11.8446 15.047 11.797C15.1393 11.7414 15.2654 11.7491 15.3495 11.8172C15.4174 11.8692 15.4543 11.9556 15.4515 12.0406C15.4511 12.3753 15.4515 12.7105 15.4515 13.0452C15.4508 13.1553 15.4552 13.266 15.4409 13.3757C15.3908 13.8245 15.114 14.239 14.7202 14.4596C14.4256 14.6289 14.0689 14.6882 13.7352 14.6228C13.4145 14.5637 13.118 14.3894 12.9068 14.1415C12.764 13.9739 12.6593 13.7737 12.6059 13.56C12.5431 13.3225 12.5621 13.0749 12.5591 12.8321C12.5587 12.5918 12.5592 12.3515 12.5587 12.1112C12.5583 12.0409 12.5583 11.9671 12.5916 11.9034C12.6289 11.8319 12.6999 11.7787 12.7792 11.7645Z" fill="#8064A2"/>
</g>
<mask id="mask3_2717_41957" style="mask-type:luminance" maskUnits="userSpaceOnUse" x="4" y="11" width="3" height="4">
<path d="M4 11.7246H6.89655V14.6565H4V11.7246Z" fill="white"/>
</mask>
<g mask="url(#mask3_2717_41957)">
<path d="M4.72219 11.7793C4.77122 11.7721 4.82061 11.768 4.87036 11.7676C5.41365 11.7678 5.95693 11.7678 6.50039 11.7676C6.57097 11.7669 6.64389 11.7861 6.69723 11.8346C6.76943 11.8957 6.80445 11.9971 6.78433 12.0896C6.76386 12.197 6.67011 12.2863 6.56145 12.3001C6.50219 12.3084 6.4422 12.3044 6.38293 12.305C5.87054 12.305 5.35833 12.3044 4.8463 12.305C4.6922 12.3046 4.55229 12.4341 4.53721 12.5867C4.51907 12.7202 4.59648 12.8587 4.7186 12.9145C4.78344 12.9483 4.85833 12.947 4.92927 12.9459C5.29996 12.9445 5.67047 12.9458 6.04098 12.9438C6.21393 12.9461 6.38545 13.0027 6.52553 13.104C6.69867 13.2275 6.82349 13.4174 6.86569 13.6259C6.90484 13.8082 6.88006 14.0032 6.79852 14.171C6.69885 14.3797 6.51063 14.5436 6.29026 14.614C6.18735 14.6478 6.07834 14.6588 5.9704 14.6575C5.43035 14.6566 4.89048 14.6575 4.35061 14.6571C4.28631 14.6566 4.22076 14.6394 4.16975 14.5988C4.10384 14.5485 4.06433 14.4655 4.06864 14.3824C4.06684 14.2795 4.13473 14.1814 4.2292 14.1424C4.30499 14.1104 4.38904 14.12 4.46932 14.1189C4.99303 14.1187 5.51709 14.1192 6.0408 14.1187C6.20962 14.1191 6.35833 13.9601 6.3463 13.7915C6.35043 13.6234 6.19525 13.475 6.02841 13.479C5.70136 13.4788 5.37431 13.4801 5.04745 13.4799C4.90898 13.4783 4.76763 13.4908 4.63275 13.4508C4.42909 13.3969 4.24824 13.2631 4.13491 13.0857C4.04637 12.9485 3.99859 12.7852 4.00003 12.6218C3.99931 12.3996 4.09091 12.1791 4.24877 12.0228C4.37485 11.8935 4.54367 11.8073 4.72219 11.7793Z" fill="#8064A2"/>
</g>
<mask id="mask4_2717_41957" style="mask-type:luminance" maskUnits="userSpaceOnUse" x="17" y="11" width="3" height="4">
<path d="M17.1035 11.7246H20.0001V14.6565H17.1035V11.7246Z" fill="white"/>
</mask>
<g mask="url(#mask4_2717_41957)">
<path d="M18.0724 12.4334C17.8887 12.5475 17.7511 12.7294 17.6843 12.9345C18.2646 12.9376 18.8452 12.9354 19.4257 12.9354C19.3876 12.8178 19.328 12.7066 19.247 12.6132C19.1026 12.4431 18.8935 12.3296 18.6723 12.3022C18.4652 12.2752 18.2488 12.3212 18.0724 12.4334ZM18.1063 11.8313C18.548 11.6834 19.0589 11.7684 19.4278 12.0531C19.7504 12.2946 19.9632 12.6779 19.9948 13.0802C20.002 13.1655 20.0112 13.2587 19.9657 13.3357C19.9187 13.4221 19.8217 13.4739 19.7242 13.4728C19.0442 13.4748 18.3642 13.471 17.6843 13.4748C17.7392 13.6391 17.8364 13.7898 17.9702 13.9008C18.162 14.0635 18.4235 14.1409 18.6726 14.1062C18.8939 14.0791 19.1017 13.9652 19.2464 13.7962C19.296 13.7418 19.3289 13.6746 19.3745 13.6174C19.4469 13.5283 19.5801 13.4986 19.6843 13.5461C19.8001 13.5956 19.8711 13.7343 19.8357 13.8568C19.812 13.9374 19.7579 14.004 19.7107 14.0725C19.4499 14.4212 19.0257 14.642 18.5895 14.6481C18.1811 14.6612 17.7718 14.4871 17.4961 14.186C17.3292 14.008 17.2098 13.7864 17.152 13.5496C17.1241 13.4428 17.1142 13.3322 17.1074 13.2222C17.1101 13.0112 17.15 12.7991 17.2396 12.6069C17.4032 12.2427 17.7261 11.9534 18.1063 11.8313Z" fill="#8064A2"/>
</g>
</g>
<defs>
<clipPath id="clip0_2717_41957">
<rect width="16" height="6.65609" fill="white" transform="translate(4 8)"/>
</clipPath>
</defs>
</svg>
