<svg width="24" height="24" viewBox="0 0 24 24" fill="none" xmlns="http://www.w3.org/2000/svg">
<circle cx="12" cy="12" r="12" fill="#F7F5F9"/>
<path d="M11.706 9.91396V15.334H17.546C18.7793 15.2473 19.3327 14.4873 19.3327 13.554C19.3327 12.5673 18.586 11.774 17.586 11.774C17.3327 11.774 17.1193 11.8273 16.8993 11.9206C16.7393 10.3606 15.4127 9.14062 13.7793 9.14062C12.9993 9.14062 12.2593 9.43396 11.706 9.91396ZM11.1193 10.594C10.9193 10.474 10.706 10.3806 10.4727 10.334V15.334H11.3993V10.2273C11.2993 10.334 11.206 10.4673 11.1193 10.594ZM9.55268 10.234V15.334H10.166V10.254C10.0393 10.234 9.91268 10.2273 9.77935 10.2273C9.69935 10.2273 9.62602 10.2273 9.55268 10.234ZM8.33268 10.6673V15.334H8.93935V10.3606C8.71935 10.434 8.51268 10.5406 8.33268 10.6673ZM7.21935 12.334C7.17935 12.334 7.13935 12.294 7.09268 12.274V15.334H7.70602V11.2406C7.45935 11.5606 7.29268 11.9406 7.21935 12.334ZM5.85935 12.1473V15.274C5.99935 15.314 6.15935 15.334 6.33268 15.334H6.47935V12.094C6.42602 12.0873 6.37268 12.0806 6.33268 12.0806C6.15935 12.0806 5.99935 12.1073 5.85935 12.1473ZM4.66602 13.7073C4.66602 14.2073 4.89268 14.6473 5.24602 14.9473V12.474C4.89268 12.7673 4.66602 13.214 4.66602 13.7073Z" fill="#8064A2"/>
</svg>
