<svg width="24" height="24" viewBox="0 0 24 24" fill="none" xmlns="http://www.w3.org/2000/svg">
<circle cx="12" cy="12" r="12" fill="#F7F5F9"/>
<path d="M12.004 6.86328C10.224 6.86328 8.44533 7.38595 6.90733 8.43195H4L5.30867 9.85528C4.7124 10.3985 4.29441 11.1094 4.1096 11.8946C3.92479 12.6798 3.9818 13.5025 4.27315 14.2547C4.5645 15.0068 5.07656 15.6533 5.74206 16.1091C6.40756 16.5649 7.19537 16.8088 8.002 16.8086C9.00988 16.8095 9.98063 16.4283 10.7187 15.7419L12 17.1366L13.2813 15.7433C14.0189 16.4289 14.9889 16.8096 15.996 16.8086C17.0566 16.8086 18.0738 16.3874 18.824 15.6375C19.5741 14.8877 19.9956 13.8706 19.996 12.8099C19.9966 12.2537 19.8809 11.7035 19.6562 11.1946C19.4315 10.6858 19.1028 10.2296 18.6913 9.85528L20 8.43195H17.1C15.5974 7.40909 13.8217 6.86247 12.004 6.86328ZM12 8.16995C13.0207 8.16995 14.042 8.37195 15.0027 8.77195C13.2953 9.42528 12 10.9533 12 12.7333C12 10.9526 10.7053 9.42528 8.99733 8.77195C9.94876 8.37541 10.9692 8.17037 12 8.16995ZM8.00133 10.1046C8.35669 10.1046 8.70857 10.1746 9.03687 10.3106C9.36518 10.4466 9.66349 10.6459 9.91476 10.8972C10.166 11.1485 10.3654 11.4468 10.5014 11.7751C10.6373 12.1034 10.7073 12.4553 10.7073 12.8106C10.7073 13.166 10.6373 13.5178 10.5014 13.8462C10.3654 14.1745 10.166 14.4728 9.91476 14.724C9.66349 14.9753 9.36518 15.1746 9.03687 15.3106C8.70857 15.4466 8.35669 15.5166 8.00133 15.5166C7.28366 15.5166 6.59538 15.2315 6.0879 14.724C5.58043 14.2166 5.29533 13.5283 5.29533 12.8106C5.29533 12.0929 5.58043 11.4047 6.0879 10.8972C6.59538 10.3897 7.28366 10.1046 8.00133 10.1046ZM15.996 10.1059C16.3512 10.1058 16.703 10.1757 17.0312 10.3115C17.3595 10.4473 17.6577 10.6464 17.909 10.8975C18.1603 11.1486 18.3597 11.4467 18.4957 11.7749C18.6318 12.103 18.7019 12.4547 18.702 12.8099C18.7021 13.1652 18.6323 13.5169 18.4965 13.8452C18.3607 14.1734 18.1615 14.4717 17.9104 14.723C17.6593 14.9742 17.3612 15.1736 17.0331 15.3097C16.7049 15.4457 16.3532 15.5158 15.998 15.5159C15.2806 15.5162 14.5925 15.2315 14.085 14.7244C13.5775 14.2173 13.2923 13.5294 13.292 12.8119C13.2917 12.0945 13.5765 11.4064 14.0836 10.8989C14.5907 10.3915 15.2786 10.1062 15.996 10.1059ZM8.00133 11.3926C7.62508 11.3926 7.26424 11.5421 6.99818 11.8081C6.73213 12.0742 6.58267 12.435 6.58267 12.8113C6.58267 13.1875 6.73213 13.5484 6.99818 13.8144C7.26424 14.0805 7.62508 14.2299 8.00133 14.2299C8.37759 14.2299 8.73843 14.0805 9.00448 13.8144C9.27053 13.5484 9.42 13.1875 9.42 12.8113C9.42 12.435 9.27053 12.0742 9.00448 11.8081C8.73843 11.5421 8.37759 11.3926 8.00133 11.3926ZM15.996 11.3926C15.6197 11.3926 15.2589 11.5421 14.9929 11.8081C14.7268 12.0742 14.5773 12.435 14.5773 12.8113C14.5773 13.1875 14.7268 13.5484 14.9929 13.8144C15.2589 14.0805 15.6197 14.2299 15.996 14.2299C16.3723 14.2299 16.7331 14.0805 16.9991 13.8144C17.2652 13.5484 17.4147 13.1875 17.4147 12.8113C17.4147 12.435 17.2652 12.0742 16.9991 11.8081C16.7331 11.5421 16.3723 11.3926 15.996 11.3926Z" fill="#8064A2"/>
</svg>
