<svg width="18" height="16" viewBox="0 0 18 16" fill="#1B73C0" xmlns="http://www.w3.org/2000/svg">
<path fill-rule="evenodd" clip-rule="evenodd" d="M15.6665 0.5C16.5452 0.5 17.265 1.1799 17.3286 2.04228L17.3332 2.16667V13.8333C17.3332 14.712 16.6533 15.4318 15.7909 15.4954L15.6665 15.5H2.33317C1.45454 15.5 0.7347 14.8201 0.671075 13.9577L0.666504 13.8333V2.16667C0.666504 1.28803 1.3464 0.568196 2.20879 0.504571L2.33317 0.5H15.6665ZM15.6665 2.16667H2.33317V13.8333H15.6665V2.16667ZM7.61659 4.36504L8.0478 4.55741L8.3299 4.69019L8.65196 4.84773L9.01072 5.03033L9.4029 5.23825L9.82523 5.47178C9.89794 5.51286 9.97178 5.55501 10.0467 5.59824L10.4784 5.85289L10.8736 6.09571L11.2307 6.32373L11.5485 6.53395L11.9482 6.80941L12.2515 7.02806C12.2797 7.04883 12.306 7.06836 12.3303 7.08658C12.8814 7.49867 12.8838 8.32258 12.3304 8.73633L12.0619 8.93259L11.6953 9.18879L11.3984 9.38826L11.0608 9.60741L10.6835 9.84347L10.2677 10.0937L9.82269 10.3506L9.3983 10.5855L9.00537 10.7941L8.64685 10.9769L8.32573 11.1343L7.8075 11.3744L7.61634 11.4581C6.98062 11.7308 6.26797 11.3158 6.18737 10.6319L6.13865 10.1615L6.1127 9.85036L6.07709 9.29669L6.05828 8.87374L6.04562 8.41104C6.04413 8.33076 6.04297 8.24895 6.04219 8.16566L6.04099 7.91142C6.04099 7.73909 6.04264 7.57245 6.04562 7.41195L6.05828 6.94937L6.07707 6.52651L6.10013 6.14621L6.12558 5.81131L6.18733 5.19128C6.26807 4.50615 6.98204 4.09281 7.61659 4.36504ZM8.12587 6.44922L7.76242 6.2672L7.73837 6.67372L7.71972 7.1329L7.70912 7.64062C7.70817 7.72906 7.70767 7.81936 7.70767 7.91142L7.70912 8.1821L7.71969 8.68963C7.72219 8.77029 7.72504 8.84893 7.72816 8.92546L7.74981 9.35869C7.75383 9.42646 7.75803 9.49195 7.76234 9.55508L8.12419 9.37341L8.5301 9.16015L8.97589 8.91476C9.05327 8.87115 9.13215 8.82618 9.21242 8.77983L9.67149 8.50847L10.0835 8.25368L10.4468 8.01936C10.5032 7.98223 10.5575 7.94611 10.6097 7.91108L10.2703 7.68732L9.88222 7.44171C9.67636 7.31414 9.45302 7.17998 9.21334 7.04158L8.97774 6.90723L8.53253 6.66244L8.12587 6.44922Z" fill="#1B73C0"/>
</svg>
