<svg width="40" height="40" viewBox="0 0 40 40" fill="none" xmlns="http://www.w3.org/2000/svg">
<g id="Group">
<path id="Vector" d="M0 40L2.82712 29.7338C1.07927 26.7205 0.162369 23.308 0.17192 19.8194C0.17192 8.88783 9.11174 0 20.0859 0C25.4155 0 30.4202 2.06274 34.1738 5.80799C37.9369 9.55323 40.0095 14.5342 40 19.8289C40 30.7605 31.0601 39.6483 20.0764 39.6483H20.0668C16.7335 39.6483 13.4575 38.8118 10.5444 37.2338L0 40ZM11.0506 33.6502L11.6523 34.0114C14.1929 35.5133 17.106 36.3023 20.0764 36.3118H20.0859C29.2072 36.3118 36.638 28.9259 36.638 19.8384C36.638 15.4373 34.9188 11.3023 31.7956 8.18441C28.6724 5.06654 24.5081 3.35551 20.0859 3.35551C10.9647 3.34601 3.5339 10.7319 3.5339 19.8194C3.5339 22.9278 4.40305 25.9601 6.06494 28.5837L6.45654 29.211L4.7851 35.2852L11.0506 33.6502Z" fill="white"/>
<path id="Vector_2" d="M0.695312 39.3055L3.42692 29.3911C1.73638 26.4918 0.84813 23.1934 0.84813 19.8283C0.857681 9.27701 9.48232 0.693359 20.084 0.693359C25.2321 0.693359 30.0554 2.68956 33.6848 6.30173C37.3142 9.91389 39.3104 14.7238 39.3104 19.8379C39.3104 30.3892 30.6762 38.9728 20.084 38.9728H20.0745C16.8558 38.9728 13.6943 38.1649 10.8863 36.6439L0.695312 39.3055Z" fill="#8064A2"/>
<path id="Vector_3" d="M0 40L2.82712 29.7338C1.07927 26.7205 0.162369 23.308 0.17192 19.8194C0.17192 8.88783 9.11174 0 20.0859 0C25.4155 0 30.4202 2.06274 34.1738 5.80799C37.9369 9.55323 40.0095 14.5342 40 19.8289C40 30.7605 31.0601 39.6483 20.0764 39.6483H20.0668C16.7335 39.6483 13.4575 38.8118 10.5444 37.2338L0 40ZM11.0506 33.6502L11.6523 34.0114C14.1929 35.5133 17.106 36.3023 20.0764 36.3118H20.0859C29.2072 36.3118 36.638 28.9259 36.638 19.8384C36.638 15.4373 34.9188 11.3023 31.7956 8.18441C28.6724 5.06654 24.5081 3.35551 20.0859 3.35551C10.9647 3.34601 3.5339 10.7319 3.5339 19.8194C3.5339 22.9278 4.40305 25.9601 6.06494 28.5837L6.45654 29.211L4.7851 35.2852L11.0506 33.6502Z" fill="white"/>
<path id="Vector_4" fill-rule="evenodd" clip-rule="evenodd" d="M15.1111 11.531C14.7387 10.704 14.3471 10.685 13.9937 10.6755C13.7071 10.666 13.3728 10.666 13.0386 10.666C12.7043 10.666 12.1694 10.7896 11.711 11.2839C11.2525 11.7782 9.97266 12.9759 9.97266 15.4189C9.97266 17.8523 11.7587 20.2097 12.007 20.5424C12.2554 20.8751 15.455 26.0367 20.5075 28.0234C24.71 29.6774 25.5696 29.3447 26.4769 29.2592C27.3843 29.1736 29.4187 28.0615 29.8389 26.9018C30.2496 25.7421 30.2496 24.7535 30.1255 24.5443C30.0013 24.3352 29.667 24.2116 29.1703 23.9645C28.6737 23.7173 26.2286 22.5196 25.7702 22.3485C25.3117 22.1869 24.9774 22.1014 24.6527 22.5957C24.3184 23.09 23.3633 24.2021 23.0768 24.5348C22.7902 24.8675 22.4941 24.9056 21.9975 24.6584C21.5008 24.4113 19.8962 23.8885 17.9956 22.1964C16.5152 20.8846 15.5123 19.2592 15.2258 18.7649C14.9392 18.2706 15.1971 18.0044 15.4454 17.7573C15.6651 17.5386 15.9421 17.1774 16.1904 16.8923C16.4387 16.6071 16.5247 16.398 16.6871 16.0653C16.8494 15.7326 16.773 15.4474 16.6489 15.2002C16.5247 14.9626 15.5505 12.5101 15.1111 11.531Z" fill="white"/>
</g>
</svg>
