<svg width="24" height="24" viewBox="0 0 24 24" fill="none" xmlns="http://www.w3.org/2000/svg">
<circle cx="12" cy="12" r="12" fill="#F7F5F9"/>
<path d="M10.6673 14.0007L14.1273 12.0007L10.6673 10.0007V14.0007ZM18.374 8.78065C18.4606 9.09398 18.5206 9.51398 18.5607 10.0473C18.6073 10.5807 18.6273 11.0407 18.6273 11.4407L18.6673 12.0007C18.6673 13.4607 18.5606 14.534 18.374 15.2207C18.2073 15.8207 17.8207 16.2073 17.2207 16.374C16.9073 16.4607 16.334 16.5207 15.454 16.5607C14.5873 16.6073 13.794 16.6273 13.0607 16.6273L12.0007 16.6673C9.20732 16.6673 7.46732 16.5606 6.78065 16.374C6.18065 16.2073 5.79398 15.8207 5.62732 15.2207C5.54065 14.9073 5.48065 14.4873 5.44065 13.954C5.39398 13.4207 5.37398 12.9607 5.37398 12.5607L5.33398 12.0007C5.33398 10.5407 5.44065 9.46732 5.62732 8.78065C5.79398 8.18065 6.18065 7.79398 6.78065 7.62732C7.09398 7.54065 7.66732 7.48065 8.54732 7.44065C9.41398 7.39398 10.2073 7.37398 10.9407 7.37398L12.0007 7.33398C14.794 7.33398 16.534 7.44065 17.2207 7.62732C17.8207 7.79398 18.2073 8.18065 18.374 8.78065Z" fill="#8064A2"/>
</svg>
