<svg width="24" height="24" viewBox="0 0 24 24" fill="none" xmlns="http://www.w3.org/2000/svg">
<circle cx="12" cy="12" r="12" fill="#EBEDF0"/>
<path d="M8.96233 7.56665C9.38833 7.56665 9.78233 7.59998 10.1423 7.69865C10.503 7.76465 10.7983 7.89665 11.0603 8.06132C11.323 8.22665 11.5197 8.45732 11.6503 8.75398C11.7817 9.05065 11.8477 9.41398 11.8477 9.80932C11.8477 10.2713 11.749 10.6667 11.5197 10.9633C11.323 11.2607 10.995 11.524 10.6017 11.722C11.159 11.8873 11.585 12.184 11.8477 12.58C12.1097 12.9753 12.2737 13.47 12.2737 14.0307C12.2737 14.4927 12.175 14.888 12.011 15.218C11.8477 15.548 11.585 15.8446 11.2897 16.0426C10.9688 16.2549 10.6142 16.4109 10.241 16.504C9.84766 16.6033 9.45433 16.6693 9.06099 16.6693H4.66699V7.56665H8.96233ZM8.69966 11.26C9.06033 11.26 9.35566 11.1613 9.58499 10.9967C9.81433 10.832 9.91299 10.5347 9.91299 10.172C9.91299 9.97398 9.87966 9.77665 9.81433 9.64465C9.74899 9.51265 9.65033 9.41332 9.51966 9.31465C9.38833 9.24865 9.25699 9.18265 9.09299 9.14998C8.92899 9.11665 8.76566 9.11665 8.56833 9.11665H6.66699V11.2607H8.70033L8.69966 11.26ZM8.79833 15.152C8.99499 15.152 9.19166 15.1187 9.35566 15.086C9.51966 15.0527 9.68366 14.9873 9.81433 14.888C9.94792 14.7915 10.0597 14.6679 10.1423 14.5253C10.2077 14.3607 10.2737 14.1627 10.2737 13.932C10.2737 13.47 10.1423 13.14 9.88033 12.9093C9.61766 12.7113 9.25699 12.6127 8.83099 12.6127H6.66699V15.1527L8.79833 15.152ZM15.1263 15.1187C15.3883 15.3827 15.7817 15.5146 16.3063 15.5146C16.667 15.5146 16.995 15.416 17.257 15.2513C17.5197 15.0533 17.6837 14.8553 17.749 14.658H19.3557C19.093 15.4487 18.6997 16.0093 18.1757 16.3727C17.6503 16.702 17.0277 16.9 16.2737 16.9C15.7912 16.9015 15.3129 16.8119 14.8637 16.636C14.4594 16.4844 14.099 16.2352 13.8143 15.9106C13.5099 15.607 13.2848 15.2331 13.159 14.822C12.995 14.3933 12.929 13.932 12.929 13.404C12.929 12.9093 12.995 12.448 13.159 12.0187C13.3169 11.6056 13.5505 11.2255 13.8477 10.898C14.1471 10.5905 14.5032 10.344 14.8963 10.172C15.3341 9.99603 15.8018 9.90638 16.2737 9.90798C16.831 9.90798 17.323 10.0073 17.749 10.238C18.1757 10.4687 18.503 10.7327 18.765 11.1287C19.0277 11.4913 19.225 11.92 19.3557 12.382C19.421 12.8433 19.4537 13.3053 19.421 13.8327H14.667C14.667 14.3607 14.8637 14.8553 15.1263 15.1193V15.1187ZM17.1917 11.656C16.9623 11.4253 16.6017 11.2933 16.175 11.2933C15.8803 11.2933 15.6503 11.36 15.4537 11.4587C15.257 11.5573 15.1263 11.6893 14.995 11.8213C14.8741 11.9488 14.794 12.1094 14.765 12.2827C14.7323 12.448 14.6997 12.58 14.6997 12.7113H17.6503C17.585 12.2167 17.421 11.8873 17.1917 11.656ZM14.3063 8.19332H17.9783V9.08398H14.307V8.19332H14.3063Z" fill="#6D747A"/>
</svg>
