<svg width="24" height="24" viewBox="0 0 24 24" fill="none" xmlns="http://www.w3.org/2000/svg">
<circle cx="12" cy="12" r="12" fill="#8064A2"/>
<path d="M8.96135 7.56665C9.38735 7.56665 9.78135 7.59998 10.1413 7.69865C10.502 7.76465 10.7973 7.89665 11.0593 8.06132C11.322 8.22665 11.5187 8.45732 11.6493 8.75398C11.7807 9.05065 11.8467 9.41398 11.8467 9.80932C11.8467 10.2713 11.748 10.6667 11.5187 10.9633C11.322 11.2607 10.994 11.524 10.6007 11.722C11.158 11.8873 11.584 12.184 11.8467 12.58C12.1087 12.9753 12.2727 13.47 12.2727 14.0307C12.2727 14.4927 12.174 14.888 12.01 15.218C11.8467 15.548 11.584 15.8446 11.2887 16.0426C10.9679 16.2549 10.6132 16.4109 10.24 16.504C9.84668 16.6033 9.45335 16.6693 9.06002 16.6693H4.66602V7.56665H8.96135ZM8.69868 11.26C9.05935 11.26 9.35468 11.1613 9.58402 10.9967C9.81335 10.832 9.91202 10.5347 9.91202 10.172C9.91202 9.97398 9.87868 9.77665 9.81335 9.64465C9.74802 9.51265 9.64935 9.41332 9.51868 9.31465C9.38735 9.24865 9.25602 9.18265 9.09202 9.14998C8.92802 9.11665 8.76468 9.11665 8.56735 9.11665H6.66602V11.2607H8.69935L8.69868 11.26ZM8.79735 15.152C8.99402 15.152 9.19068 15.1187 9.35468 15.086C9.51868 15.0527 9.68268 14.9873 9.81335 14.888C9.94694 14.7915 10.0587 14.6679 10.1413 14.5253C10.2067 14.3607 10.2727 14.1627 10.2727 13.932C10.2727 13.47 10.1413 13.14 9.87935 12.9093C9.61668 12.7113 9.25602 12.6127 8.83002 12.6127H6.66602V15.1527L8.79735 15.152ZM15.1253 15.1187C15.3873 15.3827 15.7807 15.5146 16.3053 15.5146C16.666 15.5146 16.994 15.416 17.256 15.2513C17.5187 15.0533 17.6827 14.8553 17.748 14.658H19.3547C19.092 15.4487 18.6987 16.0093 18.1747 16.3727C17.6493 16.702 17.0267 16.9 16.2727 16.9C15.7903 16.9015 15.3119 16.8119 14.8627 16.636C14.4585 16.4844 14.098 16.2352 13.8133 15.9106C13.5089 15.607 13.2838 15.2331 13.158 14.822C12.994 14.3933 12.928 13.932 12.928 13.404C12.928 12.9093 12.994 12.448 13.158 12.0187C13.316 11.6056 13.5495 11.2255 13.8467 10.898C14.1461 10.5905 14.5022 10.344 14.8953 10.172C15.3332 9.99603 15.8008 9.90638 16.2727 9.90798C16.83 9.90798 17.322 10.0073 17.748 10.238C18.1747 10.4687 18.502 10.7327 18.764 11.1287C19.0267 11.4913 19.224 11.92 19.3547 12.382C19.42 12.8433 19.4527 13.3053 19.42 13.8327H14.666C14.666 14.3607 14.8627 14.8553 15.1253 15.1193V15.1187ZM17.1907 11.656C16.9613 11.4253 16.6007 11.2933 16.174 11.2933C15.8793 11.2933 15.6493 11.36 15.4527 11.4587C15.256 11.5573 15.1253 11.6893 14.994 11.8213C14.8731 11.9488 14.793 12.1094 14.764 12.2827C14.7313 12.448 14.6987 12.58 14.6987 12.7113H17.6493C17.584 12.2167 17.42 11.8873 17.1907 11.656ZM14.3053 8.19332H17.9773V9.08398H14.306V8.19332H14.3053Z" fill="white"/>
</svg>
