<svg width="24" height="24" viewBox="0 0 24 24" fill="none" xmlns="http://www.w3.org/2000/svg">
<circle cx="12" cy="12" r="12" fill="#8064A2"/>
<path d="M5 12.9763C5 12.9549 5 12.9334 5.01586 12.892C5.25812 12.6552 5.49043 12.444 5.7069 12.2176C5.76267 12.1593 5.80192 12.0495 5.79252 11.97C5.65192 10.781 5.50492 9.59277 5.35032 8.40556C5.33043 8.25281 5.38153 8.196 5.51492 8.14716C7.22611 7.52069 8.93601 6.8907 10.6452 6.2588C11.7749 5.84113 12.903 5.41896 14.0498 5C14.0723 5.04987 14.0954 5.10662 14.0784 5.14593C13.9505 5.44084 13.8151 5.73251 13.6813 6.02481C13.3982 6.64309 13.1146 7.26115 12.8085 7.92886C13.2911 7.80122 13.7251 7.68647 14.1672 7.56955C14.1672 7.67108 14.1747 7.74342 14.1661 7.81378C14.0231 8.97844 13.9205 10.1504 13.7164 11.3043C13.6082 11.9154 13.7027 12.3626 14.2213 12.7034C14.389 12.8136 14.3781 12.9429 14.3036 13.1153C13.7585 14.3765 13.2265 15.6434 12.6787 16.9035C12.6317 17.0116 12.5159 17.1238 12.406 17.1654C11.1065 17.6575 9.80229 18.1371 8.49873 18.6185C8.14847 18.7478 7.7963 18.872 7.44092 19C7.40083 18.9127 7.37158 18.8558 7.34801 18.7967C6.77436 17.3574 6.2035 15.9171 5.62696 14.479C5.42502 13.9753 5.20938 13.477 5 12.9763Z" fill="white"/>
<path d="M17.9935 6.2411C18.3396 6.24085 18.6616 6.23796 18.9836 6.24102C19.3654 6.24464 19.4936 6.37167 19.4991 6.74494C19.5012 6.88175 19.4996 7.01862 19.4994 7.15546C19.4989 7.5984 19.4825 7.63132 19.1271 7.88712C19.4646 8.01216 19.5601 8.26681 19.5311 8.59613C19.5177 8.7479 19.5343 8.90206 19.5273 9.05468C19.5154 9.31319 19.4034 9.46555 19.1517 9.47173C18.47 9.48847 17.7877 9.47747 17.0898 9.47747C17.0898 8.40144 17.0898 7.34266 17.0898 6.2411C17.3818 6.2411 17.6756 6.2411 17.9935 6.2411ZM17.9691 8.87524C18.1777 8.87404 18.3868 8.87935 18.5947 8.86579C18.6331 8.86328 18.69 8.78863 18.6986 8.74026C18.7901 8.22032 18.7306 8.15069 18.213 8.15026C18.1411 8.1502 18.0649 8.13623 17.9988 8.15605C17.9511 8.17035 17.8819 8.23094 17.8829 8.26932C17.8879 8.46533 17.9127 8.66082 17.9691 8.87524ZM18.5326 6.88741C18.3276 6.88741 18.1226 6.88741 17.9184 6.88741C17.9184 7.13074 17.9184 7.33454 17.9184 7.5624C18.0717 7.5624 18.2065 7.56232 18.3413 7.56242C18.7062 7.56268 18.7129 7.56248 18.7006 7.19722C18.6969 7.08841 18.7834 6.92362 18.5326 6.88741Z" fill="white"/>
<path d="M19.4406 14.9078C19.443 14.9296 19.4455 14.9514 19.4304 14.9944C19.3748 15.069 19.3366 15.1224 19.2985 15.1757C18.9248 15.1797 18.5512 15.1821 18.1776 15.1886C18.0914 15.1902 18.0055 15.206 17.8988 15.2502C17.8542 15.788 17.8267 16.2907 17.8105 16.7938C17.8085 16.856 17.866 16.92 17.896 16.9831C18.1261 16.9956 18.3561 17.0128 18.5862 17.0153C18.6189 17.0156 18.6778 16.9464 18.6809 16.906C18.6923 16.7564 18.6854 16.6054 18.6854 16.4403C18.5413 16.4299 18.4237 16.4214 18.2647 16.41C18.3557 16.1969 18.4328 15.9984 18.5276 15.8088C18.5477 15.7685 18.632 15.7415 18.6872 15.7407C18.9281 15.737 19.1692 15.7453 19.4159 15.7829C19.4087 16.3987 19.3958 16.9808 19.3829 17.5629C19.2657 17.6167 19.15 17.713 19.0311 17.7169C18.5178 17.7341 18.0035 17.7283 17.4896 17.7227C17.2093 17.7197 17.0774 17.5847 17.0763 17.3057C17.0732 16.5107 17.0737 15.7157 17.0769 14.9208C17.0772 14.8433 17.1058 14.766 17.1515 14.6732C17.2437 14.61 17.3056 14.5623 17.3676 14.5146C17.916 14.5057 18.4644 14.4967 19.0475 14.5034C19.2018 14.5362 19.3214 14.5533 19.441 14.5704C19.4435 14.6224 19.446 14.6744 19.4389 14.7569C19.433 14.8276 19.4368 14.8677 19.4406 14.9078Z" fill="white"/>
<path d="M17.9484 11.0453C17.9332 11.0692 17.918 11.093 17.8904 11.1484C17.865 11.6888 17.8514 12.1976 17.8416 12.7064C17.8412 12.7314 17.8751 12.757 17.8931 12.7824C17.9369 12.8171 17.9793 12.8795 18.0248 12.8819C18.231 12.8928 18.4381 12.8867 18.6667 12.8867C18.6667 12.6907 18.6667 12.5125 18.6667 12.3132C18.545 12.3047 18.4218 12.2961 18.2689 12.2854C18.3486 12.0932 18.421 11.9186 18.5186 11.7264C18.5702 11.6815 18.5965 11.6542 18.6228 11.6269C18.6447 11.6244 18.6667 11.6218 18.7105 11.6245C18.7323 11.6297 18.7494 11.6305 18.7494 11.6305L18.7662 11.6268C18.8186 11.6241 18.871 11.6214 18.957 11.6295C19.0607 11.6358 19.1309 11.6312 19.2011 11.6266C19.2376 11.6238 19.274 11.621 19.3298 11.6423C19.3646 11.9771 19.3796 12.2879 19.3957 12.5986C19.408 12.8368 19.4218 13.075 19.4349 13.3132C19.3888 13.5208 19.2451 13.5996 19.0476 13.6001C18.525 13.6014 18.0023 13.605 17.4798 13.5982C17.2182 13.5948 17.0786 13.4522 17.0772 13.1896C17.0729 12.3856 17.0736 11.5815 17.0772 10.7775C17.0785 10.499 17.2132 10.3718 17.4952 10.3637C17.5675 10.3616 17.6399 10.3646 17.7519 10.3764C18.2313 10.3973 18.6709 10.4137 19.1105 10.4138C19.3133 10.4139 19.4023 10.4856 19.3981 10.6955C19.3942 10.8894 19.3346 11.0011 19.1216 10.996C18.8014 10.9882 18.4809 10.9845 18.1607 10.9877C18.0897 10.9884 18.0192 11.0251 17.9484 11.0453Z" fill="white"/>
</svg>
