<svg width="24" height="24" viewBox="0 0 24 24" fill="none" xmlns="http://www.w3.org/2000/svg">
<circle cx="12" cy="12" r="12" fill="#8064A2"/>
<path d="M15.7698 15.2181L15.0125 14.4608C14.0365 13.4848 13.4178 12.2261 13.2205 10.8768H14.3085V9.72477L13.1618 9.14877H13.1565V8.83944C13.8498 8.43944 14.3085 7.6981 14.3085 6.84477C14.3085 5.5701 13.2792 4.54077 12.0045 4.54077C10.7298 4.54077 9.70048 5.5701 9.70048 6.84477C9.70048 7.6981 10.1592 8.43944 10.8525 8.83944V9.14877L9.70048 9.72477V10.8768H10.7885C10.5912 12.2261 9.97248 13.4848 8.99648 14.4608L8.23915 15.2181C7.70048 15.7568 7.39648 16.4874 7.39648 17.2501V18.3648C10.3298 19.1488 13.3965 19.1541 16.6125 18.3648V17.2501C16.6125 16.4874 16.3085 15.7568 15.7698 15.2181ZM11.5405 6.20477C11.0978 6.64744 10.5592 6.82877 10.3405 6.6101C10.1165 6.3861 10.2978 5.84744 10.7405 5.40477C11.1778 4.96744 11.7165 4.7861 11.9405 5.0101C12.1592 5.22877 11.9778 5.76744 11.5405 6.20477Z" fill="white"/>
</svg>
