<svg width="24" height="24" viewBox="0 0 24 24" fill="none" xmlns="http://www.w3.org/2000/svg">
<circle cx="12" cy="12" r="12" fill="#EBEDF0"/>
<path d="M15.7708 15.2181L15.0135 14.4608C14.0375 13.4848 13.4188 12.2261 13.2215 10.8768H14.3095V9.72477L13.1628 9.14877H13.1575V8.83944C13.8508 8.43944 14.3095 7.6981 14.3095 6.84477C14.3095 5.5701 13.2801 4.54077 12.0055 4.54077C10.7308 4.54077 9.70146 5.5701 9.70146 6.84477C9.70146 7.6981 10.1601 8.43944 10.8535 8.83944V9.14877L9.70146 9.72477V10.8768H10.7895C10.5921 12.2261 9.97346 13.4848 8.99746 14.4608L8.24013 15.2181C7.70146 15.7568 7.39746 16.4874 7.39746 17.2501V18.3648C10.3308 19.1488 13.3975 19.1541 16.6135 18.3648V17.2501C16.6135 16.4874 16.3095 15.7568 15.7708 15.2181ZM11.5415 6.20477C11.0988 6.64744 10.5601 6.82877 10.3415 6.6101C10.1175 6.3861 10.2988 5.84744 10.7415 5.40477C11.1788 4.96744 11.7175 4.7861 11.9415 5.0101C12.1601 5.22877 11.9788 5.76744 11.5415 6.20477Z" fill="#6D747A"/>
</svg>
