<svg width="24" height="24" viewBox="0 0 24 24" fill="none" xmlns="http://www.w3.org/2000/svg">
<circle cx="12" cy="12" r="12" fill="#EBEDF0"/>
<g clip-path="url(#clip0_21_93)">
<path d="M11.6676 18.9971C9.56298 18.8758 8.00781 17.7855 7.90631 16.0349C8.31173 16.039 8.7084 16.0274 9.11381 16.0314C9.24448 16.8143 9.73506 17.4489 10.6789 17.7966C11.6023 18.0859 12.8588 18.0649 13.6434 17.6951C14.4315 17.3241 14.8946 16.6323 15.1035 15.6085C15.2271 15.0007 15.2411 14.597 15.2382 13.9052L15.2353 12.9538H15.2009C14.4746 14.4494 13.2671 15.0129 11.9401 14.9809C8.59173 14.9494 7.46006 12.336 7.54873 9.96069C7.55456 6.90344 9.42706 4.98077 11.957 5.00527C13.3301 4.92361 14.6432 5.79977 15.1968 6.97111L15.2312 6.97227L15.2324 5.27011L16.4568 5.27244L16.4556 14.4407C16.3431 18.5474 13.903 19.0432 11.6671 18.9971H11.6676ZM15.226 9.87786C15.17 7.97619 14.2921 6.01619 12.0159 6.00161C9.7094 5.99169 8.73465 8.09694 8.7469 9.99744C8.73931 12.0035 9.70531 13.6754 11.4903 13.9419C14.134 14.2867 15.3117 11.9522 15.226 9.87786Z" fill="#6D747A"/>
</g>
<defs>
<clipPath id="clip0_21_93">
<rect width="14" height="14" fill="white" transform="translate(5 5)"/>
</clipPath>
</defs>
</svg>
