<svg width="24" height="24" viewBox="0 0 24 24" fill="none" xmlns="http://www.w3.org/2000/svg">
<circle cx="12" cy="12" r="12" fill="#8064A2"/>
<g clip-path="url(#clip0_38_95)">
<path d="M11.6667 18.9971C9.562 18.8758 8.00684 17.7855 7.90534 16.0349C8.31075 16.039 8.70742 16.0274 9.11284 16.0314C9.2435 16.8143 9.73409 17.4489 10.6779 17.7966C11.6013 18.0859 12.8578 18.0649 13.6424 17.6951C14.4305 17.3241 14.8937 16.6323 15.1025 15.6085C15.2262 15.0007 15.2402 14.597 15.2373 13.9052L15.2343 12.9538H15.1999C14.4737 14.4494 13.2662 15.0129 11.9391 14.9809C8.59075 14.9494 7.45909 12.336 7.54775 9.96069C7.55359 6.90344 9.42609 4.98077 11.956 5.00527C13.3292 4.92361 14.6423 5.79977 15.1958 6.97111L15.2303 6.97227L15.2314 5.27011L16.4558 5.27244L16.4547 14.4407C16.3421 18.5474 13.902 19.0432 11.6661 18.9971H11.6667ZM15.225 9.87786C15.169 7.97619 14.2911 6.01619 12.0149 6.00161C9.70842 5.99169 8.73367 8.09694 8.74592 9.99744C8.73834 12.0035 9.70434 13.6754 11.4893 13.9419C14.133 14.2867 15.3108 11.9522 15.225 9.87786Z" fill="white"/>
</g>
<defs>
<clipPath id="clip0_38_95">
<rect width="14" height="14" fill="white" transform="translate(5 5)"/>
</clipPath>
</defs>
</svg>
