<svg width="24" height="24" viewBox="0 0 24 24" fill="none" xmlns="http://www.w3.org/2000/svg">
<circle cx="12" cy="12" r="12" fill="#EBEDF0"/>
<path d="M11.9995 5.17188C10.1455 5.17188 9.91301 5.17973 9.18488 5.21296C8.45826 5.24612 7.96201 5.36151 7.52776 5.53028C7.07884 5.70474 6.69814 5.93816 6.31863 6.31768C5.93911 6.69719 5.70569 7.0779 5.53123 7.52681C5.36246 7.96103 5.24707 8.45729 5.21391 9.1839C5.18068 9.91204 5.17285 10.1445 5.17285 11.9985C5.17285 13.8525 5.18068 14.085 5.21391 14.8131C5.24707 15.5398 5.36246 16.036 5.53123 16.4702C5.70569 16.9191 5.93911 17.2998 6.31863 17.6794C6.69814 18.0589 7.07884 18.2923 7.52776 18.4668C7.96201 18.6355 8.45826 18.7509 9.18488 18.7841C9.91301 18.8173 10.1455 18.8252 11.9995 18.8252C13.8535 18.8252 14.086 18.8173 14.8141 18.7841C15.5407 18.7509 16.037 18.6355 16.4712 18.4668C16.9201 18.2923 17.3008 18.0589 17.6804 17.6794C18.0599 17.2998 18.2933 16.9191 18.4678 16.4702C18.6365 16.036 18.7519 15.5398 18.7851 14.8131C18.8183 14.085 18.8261 13.8525 18.8261 11.9985C18.8261 10.1445 18.8183 9.91204 18.7851 9.1839C18.7519 8.45729 18.6365 7.96103 18.4678 7.52681C18.2933 7.0779 18.0599 6.69719 17.6804 6.31768C17.3008 5.93816 16.9201 5.70474 16.4712 5.53028C16.037 5.36151 15.5407 5.24612 14.8141 5.21296C14.086 5.17973 13.8535 5.17188 11.9995 5.17188ZM11.9995 6.40193C13.8223 6.40193 14.0382 6.40886 14.758 6.44171C15.4236 6.47208 15.7851 6.5833 16.0257 6.67676C16.3443 6.8006 16.5717 6.94855 16.8106 7.18743C17.0495 7.4263 17.1974 7.65374 17.3213 7.97236C17.4147 8.21291 17.526 8.57438 17.5563 9.23997C17.5891 9.95981 17.5961 10.1757 17.5961 11.9985C17.5961 13.8213 17.5891 14.0372 17.5563 14.7571C17.526 15.4227 17.4147 15.7841 17.3213 16.0247C17.1974 16.3433 17.0495 16.5707 16.8106 16.8096C16.5717 17.0485 16.3443 17.1964 16.0257 17.3203C15.7851 17.4138 15.4236 17.525 14.758 17.5553C14.0383 17.5882 13.8224 17.5951 11.9995 17.5951C10.1766 17.5951 9.96071 17.5882 9.24095 17.5553C8.57535 17.525 8.21389 17.4138 7.97334 17.3203C7.65469 17.1964 7.42728 17.0485 7.18838 16.8096C6.9495 16.5707 6.80155 16.3433 6.67773 16.0247C6.58424 15.7841 6.47303 15.4227 6.44266 14.7571C6.40981 14.0372 6.40288 13.8213 6.40288 11.9985C6.40288 10.1757 6.40981 9.95981 6.44266 9.23997C6.47303 8.57438 6.58424 8.21291 6.67773 7.97236C6.80155 7.65374 6.9495 7.4263 7.18838 7.18743C7.42728 6.94855 7.65469 6.8006 7.97334 6.67676C8.21389 6.5833 8.57535 6.47208 9.24095 6.44171C9.96079 6.40886 10.1767 6.40193 11.9995 6.40193Z" fill="#6D747A"/>
<path d="M11.9997 14.2806C10.743 14.2806 9.72416 13.2618 9.72416 12.0051C9.72416 10.7483 10.743 9.72954 11.9997 9.72954C13.2565 9.72954 14.2753 10.7483 14.2753 12.0051C14.2753 13.2618 13.2565 14.2806 11.9997 14.2806ZM11.9997 8.49951C10.0636 8.49951 8.49414 10.069 8.49414 12.0051C8.49414 13.9412 10.0636 15.5107 11.9997 15.5107C13.9358 15.5107 15.5053 13.9412 15.5053 12.0051C15.5053 10.069 13.9358 8.49951 11.9997 8.49951Z" fill="#6D747A"/>
<path d="M16.4626 8.35068C16.4626 8.80311 16.0958 9.16986 15.6434 9.16986C15.191 9.16986 14.8242 8.80311 14.8242 8.35068C14.8242 7.89824 15.191 7.53149 15.6434 7.53149C16.0958 7.53149 16.4626 7.89824 16.4626 8.35068Z" fill="#6D747A"/>
</svg>
