<svg width="24" height="24" viewBox="0 0 24 24" fill="none" xmlns="http://www.w3.org/2000/svg">
<circle cx="12" cy="12" r="12" fill="#8064A2"/>
<path d="M12.0005 5.17194C10.1465 5.17194 9.91399 5.17979 9.18586 5.21302C8.45924 5.24619 7.96299 5.36157 7.52873 5.53034C7.07982 5.7048 6.69912 5.93822 6.3196 6.31774C5.94009 6.69725 5.70666 7.07796 5.5322 7.52687C5.36344 7.96109 5.24805 8.45735 5.21488 9.18396C5.18166 9.9121 5.17383 10.1446 5.17383 11.9986C5.17383 13.8526 5.18166 14.0851 5.21488 14.8132C5.24805 15.5398 5.36344 16.0361 5.5322 16.4703C5.70666 16.9192 5.94009 17.2999 6.3196 17.6794C6.69912 18.059 7.07982 18.2924 7.52873 18.4668C7.96299 18.6356 8.45924 18.751 9.18586 18.7841C9.91399 18.8174 10.1465 18.8252 12.0005 18.8252C13.8545 18.8252 14.087 18.8174 14.8151 18.7841C15.5417 18.751 16.038 18.6356 16.4722 18.4668C16.9211 18.2924 17.3018 18.059 17.6813 17.6794C18.0609 17.2999 18.2943 16.9192 18.4687 16.4703C18.6375 16.0361 18.7529 15.5398 18.786 14.8132C18.8193 14.0851 18.8271 13.8526 18.8271 11.9986C18.8271 10.1446 18.8193 9.9121 18.786 9.18396C18.7529 8.45735 18.6375 7.96109 18.4687 7.52687C18.2943 7.07796 18.0609 6.69725 17.6813 6.31774C17.3018 5.93822 16.9211 5.7048 16.4722 5.53034C16.038 5.36157 15.5417 5.24619 14.8151 5.21302C14.087 5.17979 13.8545 5.17194 12.0005 5.17194ZM12.0005 6.40199C13.8233 6.40199 14.0392 6.40892 14.759 6.44177C15.4246 6.47214 15.7861 6.58336 16.0266 6.67682C16.3453 6.80066 16.5727 6.94862 16.8116 7.18749C17.0505 7.42636 17.1984 7.6538 17.3222 7.97242C17.4157 8.21297 17.5269 8.57444 17.5573 9.24003C17.5901 9.95987 17.5971 10.1758 17.5971 11.9986C17.5971 13.8214 17.5901 14.0373 17.5573 14.7571C17.5269 15.4227 17.4157 15.7842 17.3222 16.0247C17.1984 16.3434 17.0505 16.5708 16.8116 16.8097C16.5727 17.0486 16.3453 17.1965 16.0266 17.3203C15.7861 17.4138 15.4246 17.525 14.759 17.5554C14.0393 17.5882 13.8234 17.5952 12.0005 17.5952C10.1775 17.5952 9.96168 17.5882 9.24192 17.5554C8.57633 17.525 8.21487 17.4138 7.97431 17.3203C7.65566 17.1965 7.42825 17.0486 7.18935 16.8097C6.95048 16.5708 6.80252 16.3434 6.67871 16.0247C6.58522 15.7842 6.47401 15.4227 6.44363 14.7571C6.41079 14.0373 6.40385 13.8214 6.40385 11.9986C6.40385 10.1758 6.41079 9.95987 6.44363 9.24003C6.47401 8.57444 6.58522 8.21297 6.67871 7.97242C6.80252 7.6538 6.95048 7.42636 7.18935 7.18749C7.42825 6.94862 7.65566 6.80066 7.97431 6.67682C8.21487 6.58336 8.57633 6.47214 9.24192 6.44177C9.96176 6.40892 10.1777 6.40199 12.0005 6.40199Z" fill="white"/>
<path d="M11.9997 14.2808C10.743 14.2808 9.72416 13.262 9.72416 12.0052C9.72416 10.7484 10.743 9.72966 11.9997 9.72966C13.2565 9.72966 14.2753 10.7484 14.2753 12.0052C14.2753 13.262 13.2565 14.2808 11.9997 14.2808ZM11.9997 8.49963C10.0636 8.49963 8.49414 10.0691 8.49414 12.0052C8.49414 13.9413 10.0636 15.5108 11.9997 15.5108C13.9358 15.5108 15.5053 13.9413 15.5053 12.0052C15.5053 10.0691 13.9358 8.49963 11.9997 8.49963Z" fill="white"/>
<path d="M16.4646 8.35074C16.4646 8.80317 16.0978 9.16992 15.6454 9.16992C15.1929 9.16992 14.8262 8.80317 14.8262 8.35074C14.8262 7.8983 15.1929 7.53156 15.6454 7.53156C16.0978 7.53156 16.4646 7.8983 16.4646 8.35074Z" fill="white"/>
</svg>
