<svg width="25" height="24" viewBox="0 0 25 24" fill="none" xmlns="http://www.w3.org/2000/svg">
<circle cx="12.6016" cy="12" r="12" fill="#8064A2"/>
<g clip-path="url(#clip0_7443_129867)">
<path d="M13.5625 12C13.5625 14.3297 11.6688 16.2188 9.33156 16.2188C8.77681 16.2195 8.22734 16.111 7.71454 15.8993C7.20173 15.6877 6.73562 15.3772 6.34283 14.9854C5.95004 14.5937 5.63825 14.1284 5.42528 13.6162C5.2123 13.1039 5.1023 12.5548 5.10156 12C5.10156 9.66938 6.99531 7.78126 9.33156 7.78126C9.88639 7.78039 10.436 7.88884 10.9489 8.10039C11.4618 8.31195 11.928 8.62248 12.3209 9.01424C12.7138 9.40599 13.0257 9.87131 13.2387 10.3836C13.4517 10.8959 13.5618 11.4452 13.5625 12ZM18.2031 12C18.2031 14.1938 17.2563 15.9713 16.0881 15.9713C14.92 15.9713 13.9731 14.1928 13.9731 12C13.9731 9.80625 14.92 8.02876 16.0881 8.02876C17.2563 8.02876 18.2031 9.80719 18.2031 12ZM20.1016 12C20.1016 13.965 19.7688 15.5578 19.3572 15.5578C18.9466 15.5578 18.6138 13.9641 18.6138 12C18.6138 10.035 18.9466 8.44219 19.3581 8.44219C19.7688 8.44219 20.1016 10.035 20.1016 12Z" fill="white"/>
</g>
<defs>
<clipPath id="clip0_7443_129867">
<rect width="15" height="15" fill="white" transform="translate(5.10156 4.5)"/>
</clipPath>
</defs>
</svg>
