<svg width="24" height="24" viewBox="0 0 24 24" fill="none" xmlns="http://www.w3.org/2000/svg">
<circle cx="12" cy="12" r="12" fill="#8064A2"/>
<g clip-path="url(#clip0_38_39)">
<path d="M12.9609 12C12.9609 14.3297 11.0672 16.2188 8.73 16.2188C8.17525 16.2195 7.62578 16.111 7.11297 15.8993C6.60017 15.6877 6.13406 15.3772 5.74127 14.9854C5.34848 14.5937 5.03669 14.1284 4.82371 13.6162C4.61074 13.1039 4.50074 12.5548 4.5 12C4.5 9.66938 6.39375 7.78126 8.73 7.78126C9.28483 7.78039 9.8344 7.88884 10.3473 8.10039C10.8602 8.31195 11.3264 8.62248 11.7193 9.01424C12.1122 9.40599 12.4241 9.87131 12.6371 10.3836C12.8502 10.8959 12.9602 11.4452 12.9609 12ZM17.6016 12C17.6016 14.1938 16.6547 15.9713 15.4866 15.9713C14.3184 15.9713 13.3716 14.1928 13.3716 12C13.3716 9.80625 14.3184 8.02876 15.4866 8.02876C16.6547 8.02876 17.6016 9.80719 17.6016 12ZM19.5 12C19.5 13.965 19.1672 15.5578 18.7556 15.5578C18.345 15.5578 18.0122 13.9641 18.0122 12C18.0122 10.035 18.345 8.44219 18.7566 8.44219C19.1672 8.44219 19.5 10.035 19.5 12Z" fill="white"/>
</g>
<defs>
<clipPath id="clip0_38_39">
<rect width="15" height="15" fill="white" transform="translate(4.5 4.5)"/>
</clipPath>
</defs>
</svg>
