<svg width="24" height="24" viewBox="0 0 24 24" fill="none" xmlns="http://www.w3.org/2000/svg">
<circle cx="12" cy="12" r="12" fill="#8064A2"/>
<path d="M13.75 12C13.75 12.3461 13.6474 12.6845 13.4551 12.9722C13.2628 13.26 12.9895 13.4843 12.6697 13.6168C12.3499 13.7492 11.9981 13.7839 11.6586 13.7164C11.3191 13.6489 11.0073 13.4822 10.7626 13.2374C10.5178 12.9927 10.3512 12.6809 10.2836 12.3414C10.2161 12.0019 10.2508 11.6501 10.3832 11.3303C10.5157 11.0105 10.74 10.7372 11.0278 10.5449C11.3155 10.3526 11.6539 10.25 12 10.25C12.4641 10.25 12.9092 10.4344 13.2374 10.7626C13.5656 11.0908 13.75 11.5359 13.75 12ZM7 10.25C6.65388 10.25 6.31554 10.3526 6.02775 10.5449C5.73997 10.7372 5.51566 11.0105 5.38321 11.3303C5.25076 11.6501 5.2161 12.0019 5.28363 12.3414C5.35115 12.6809 5.51782 12.9927 5.76256 13.2374C6.00731 13.4822 6.31913 13.6489 6.65859 13.7164C6.99806 13.7839 7.34993 13.7492 7.6697 13.6168C7.98947 13.4843 8.26278 13.26 8.45507 12.9722C8.64737 12.6845 8.75 12.3461 8.75 12C8.75 11.5359 8.56563 11.0908 8.23744 10.7626C7.90925 10.4344 7.46413 10.25 7 10.25ZM17 10.25C16.6539 10.25 16.3155 10.3526 16.0278 10.5449C15.74 10.7372 15.5157 11.0105 15.3832 11.3303C15.2508 11.6501 15.2161 12.0019 15.2836 12.3414C15.3512 12.6809 15.5178 12.9927 15.7626 13.2374C16.0073 13.4822 16.3191 13.6489 16.6586 13.7164C16.9981 13.7839 17.3499 13.7492 17.6697 13.6168C17.9895 13.4843 18.2628 13.26 18.4551 12.9722C18.6474 12.6845 18.75 12.3461 18.75 12C18.75 11.7702 18.7047 11.5426 18.6168 11.3303C18.5288 11.118 18.3999 10.9251 18.2374 10.7626C18.0749 10.6001 17.882 10.4712 17.6697 10.3832C17.4574 10.2953 17.2298 10.25 17 10.25Z" fill="white"/>
</svg>
