<svg width="24" height="24" viewBox="0 0 24 24" fill="none" xmlns="http://www.w3.org/2000/svg">
<circle cx="12" cy="12" r="12" fill="#EBEDF0"/>
<path d="M10.0263 18.3599C10.6663 18.5533 11.313 18.6666 11.9997 18.6666C13.7678 18.6666 15.4635 17.9642 16.7137 16.714C17.964 15.4637 18.6663 13.768 18.6663 11.9999C18.6663 11.1244 18.4939 10.2575 18.1589 9.4487C17.8238 8.63986 17.3328 7.90493 16.7137 7.28587C16.0947 6.66682 15.3597 6.17575 14.5509 5.84072C13.7421 5.50569 12.8752 5.33325 11.9997 5.33325C11.1242 5.33325 10.2573 5.50569 9.44845 5.84072C8.63961 6.17575 7.90469 6.66682 7.28563 7.28587C6.03539 8.53612 5.33301 10.2318 5.33301 11.9999C5.33301 14.8333 7.11301 17.2666 9.62634 18.2266C9.56634 17.7066 9.50634 16.8466 9.62634 16.2533L10.393 12.9599C10.393 12.9599 10.1997 12.5733 10.1997 11.9599C10.1997 11.0399 10.773 10.3533 11.4263 10.3533C11.9997 10.3533 12.2663 10.7733 12.2663 11.3133C12.2663 11.8866 11.8863 12.7066 11.693 13.4933C11.5797 14.1466 12.0397 14.7199 12.7063 14.7199C13.893 14.7199 14.813 13.4533 14.813 11.6666C14.813 10.0666 13.6663 8.97325 12.0197 8.97325C10.1397 8.97325 9.03301 10.3733 9.03301 11.8466C9.03301 12.4199 9.21967 12.9999 9.52634 13.3799C9.58634 13.4199 9.58634 13.4733 9.56634 13.5733L9.37301 14.2999C9.37301 14.4133 9.29967 14.4533 9.18634 14.3733C8.33301 13.9999 7.83967 12.7866 7.83967 11.8066C7.83967 9.69992 9.33301 7.78659 12.213 7.78659C14.5063 7.78659 16.293 9.43325 16.293 11.6199C16.293 13.9133 14.873 15.7533 12.8397 15.7533C12.193 15.7533 11.5597 15.4066 11.333 14.9999L10.8863 16.5799C10.733 17.1533 10.313 17.9199 10.0263 18.3799V18.3599Z" fill="#6D747A"/>
</svg>
