<svg width="24" height="24" viewBox="0 0 24 24" fill="none" xmlns="http://www.w3.org/2000/svg">
<circle cx="12" cy="12" r="12" fill="#8064A2"/>
<path d="M10.0273 18.36C10.6673 18.5533 11.314 18.6666 12.0007 18.6666C13.7688 18.6666 15.4645 17.9643 16.7147 16.714C17.9649 15.4638 18.6673 13.7681 18.6673 12C18.6673 11.1245 18.4949 10.2576 18.1598 9.44876C17.8248 8.63992 17.3338 7.90499 16.7147 7.28593C16.0956 6.66688 15.3607 6.17581 14.5519 5.84078C13.743 5.50575 12.8761 5.33331 12.0007 5.33331C11.1252 5.33331 10.2583 5.50575 9.44943 5.84078C8.64059 6.17581 7.90566 6.66688 7.28661 7.28593C6.03636 8.53618 5.33398 10.2319 5.33398 12C5.33398 14.8333 7.11398 17.2666 9.62732 18.2266C9.56732 17.7066 9.50732 16.8466 9.62732 16.2533L10.394 12.96C10.394 12.96 10.2007 12.5733 10.2007 11.96C10.2007 11.04 10.774 10.3533 11.4273 10.3533C12.0007 10.3533 12.2673 10.7733 12.2673 11.3133C12.2673 11.8866 11.8873 12.7066 11.694 13.4933C11.5807 14.1466 12.0407 14.72 12.7073 14.72C13.894 14.72 14.814 13.4533 14.814 11.6666C14.814 10.0666 13.6673 8.97331 12.0207 8.97331C10.1407 8.97331 9.03398 10.3733 9.03398 11.8466C9.03398 12.42 9.22065 13 9.52732 13.38C9.58732 13.42 9.58732 13.4733 9.56732 13.5733L9.37398 14.3C9.37398 14.4133 9.30065 14.4533 9.18732 14.3733C8.33398 14 7.84065 12.7866 7.84065 11.8066C7.84065 9.69998 9.33398 7.78665 12.214 7.78665C14.5073 7.78665 16.294 9.43331 16.294 11.62C16.294 13.9133 14.874 15.7533 12.8407 15.7533C12.194 15.7533 11.5607 15.4066 11.334 15L10.8873 16.58C10.734 17.1533 10.314 17.92 10.0273 18.38V18.36Z" fill="white"/>
</svg>
