<svg width="24" height="24" viewBox="0 0 24 24" fill="none" xmlns="http://www.w3.org/2000/svg">
<circle cx="12" cy="12" r="12" fill="#EBEDF0"/>
<g clip-path="url(#clip0_21_99)">
<path d="M15.7707 8.00967C16.1026 7.97555 16.4451 8.03158 16.7448 8.18029C17.1051 8.35414 17.4032 8.65425 17.5748 9.01578C17.8007 9.4804 17.8079 10.0447 17.5945 10.5151C17.4072 10.9393 17.0473 11.2819 16.6153 11.4506C16.5654 11.4676 16.5157 11.4958 16.4612 11.4944C16.3998 11.4876 16.3831 11.3926 16.4401 11.3669C16.5 11.3387 16.5654 11.3234 16.6254 11.2949C17.0126 11.1253 17.3294 10.8008 17.4878 10.4086C17.6628 9.98596 17.6478 9.49153 17.4506 9.07935C17.2714 8.70238 16.9444 8.39742 16.5534 8.24943C16.2402 8.1282 15.8894 8.10665 15.5634 8.18855C15.2657 8.26165 14.9903 8.42131 14.7779 8.64221C14.4866 8.94088 14.3151 9.3545 14.3159 9.77206C14.3086 10.1501 14.442 10.528 14.6804 10.8209C14.872 11.0594 15.1322 11.2431 15.4219 11.3421C15.4481 11.3518 15.4785 11.3631 15.4898 11.3913C15.5135 11.4346 15.47 11.4942 15.4219 11.487C15.3686 11.4781 15.3194 11.4538 15.2694 11.4341C14.9632 11.3064 14.6963 11.0899 14.5038 10.8202C14.2858 10.5138 14.1676 10.1372 14.1751 9.76111C14.1791 9.34139 14.3388 8.92562 14.6162 8.61078C14.9075 8.27476 15.3285 8.05583 15.7707 8.00967Z" fill="#6D747A"/>
<path d="M15.7368 8.41211C16.0459 8.36129 16.3717 8.41678 16.6443 8.57196C17.0446 8.7925 17.3201 9.22156 17.3518 9.67792C17.3715 9.93259 17.3214 10.1937 17.2031 10.4206C17.0592 10.7058 16.8117 10.9356 16.5199 11.0639C16.4926 11.0759 16.4595 11.0834 16.434 11.0635C16.3889 11.0344 16.3988 10.9568 16.4511 10.941C16.6483 10.855 16.8264 10.7217 16.9565 10.5493C17.087 10.3821 17.1714 10.1801 17.2027 9.97048C17.2433 9.69408 17.1901 9.40457 17.0499 9.16265C16.9511 8.99185 16.8124 8.84405 16.6465 8.73683C16.3336 8.52939 15.9243 8.47749 15.5687 8.5971C15.218 8.71078 14.9254 8.98916 14.7939 9.33363C14.6571 9.68133 14.6876 10.0899 14.8764 10.4123C15.0042 10.6332 15.1998 10.815 15.4324 10.9213C15.4574 10.9337 15.4868 10.9479 15.4949 10.9773C15.5127 11.0253 15.459 11.0817 15.4101 11.0633C15.3667 11.0502 15.3272 11.0269 15.2876 11.0053C14.9796 10.8358 14.7411 10.5454 14.6344 10.2102C14.5206 9.85356 14.5567 9.45073 14.7379 9.12242C14.9374 8.74832 15.318 8.47785 15.7368 8.41211Z" fill="#6D747A"/>
<path d="M15.8895 8.82485C16.1828 8.80169 16.4831 8.92184 16.6788 9.14166C16.8723 9.35485 16.964 9.65819 16.9134 9.94231C16.8807 10.1499 16.7764 10.3459 16.6215 10.4885C16.5802 10.5258 16.54 10.5691 16.4865 10.588C16.4335 10.5998 16.3866 10.538 16.4112 10.4897C16.4326 10.456 16.4698 10.4375 16.4987 10.4111C16.7498 10.202 16.8529 9.83491 16.744 9.52636C16.6878 9.35449 16.572 9.20309 16.4215 9.10269C16.2584 8.9917 16.0544 8.94411 15.8591 8.96907C15.6582 8.99368 15.4682 9.09605 15.3372 9.24996C15.2113 9.39705 15.1359 9.58994 15.1404 9.78444C15.1341 10.035 15.2571 10.2832 15.4556 10.4349C15.4734 10.4504 15.494 10.4673 15.4978 10.4921C15.505 10.5301 15.4741 10.5732 15.4339 10.5722C15.4062 10.5756 15.3838 10.5576 15.3635 10.5423C15.2027 10.4148 15.0844 10.2349 15.0308 10.0368C14.9741 9.81713 14.9924 9.57611 15.0926 9.37137C15.2356 9.06408 15.5515 8.84838 15.8895 8.82485Z" fill="#6D747A"/>
<mask id="mask0_21_99" style="mask-type:luminance" maskUnits="userSpaceOnUse" x="15" y="9" width="3" height="6">
<path d="M15.6318 9.83911H17.4249V14.6561H15.6318V9.83911Z" fill="white"/>
</mask>
<g mask="url(#mask0_21_99)">
<path d="M15.8603 9.88199C15.9536 9.85433 16.0604 9.88145 16.1274 9.95257C16.1829 10.0068 16.2057 10.086 16.2052 10.1623C16.2048 11.1783 16.2053 12.1943 16.2048 13.2103C16.2027 13.4201 16.2817 13.6282 16.416 13.7884C16.5647 13.9669 16.7842 14.0849 17.0155 14.1085C17.0823 14.1165 17.1527 14.107 17.2158 14.1347C17.3129 14.174 17.3824 14.2748 17.3794 14.3806C17.3833 14.4901 17.3086 14.5941 17.2066 14.6318C17.1186 14.6611 17.0229 14.6464 16.9325 14.6372C16.5279 14.5887 16.1507 14.3576 15.9216 14.0206C15.8201 13.8727 15.7458 13.7056 15.7057 13.5303C15.6608 13.3448 15.666 13.1523 15.6664 12.9625C15.6664 12.033 15.6667 11.1034 15.6664 10.1742C15.6667 10.1079 15.6773 10.0386 15.7177 9.98418C15.7526 9.93605 15.8029 9.89834 15.8603 9.88199Z" fill="#6D747A"/>
</g>
<mask id="mask1_21_99" style="mask-type:luminance" maskUnits="userSpaceOnUse" x="7" y="11" width="6" height="4">
<path d="M7.12598 11.7241H12.4133V14.6561H7.12598V11.7241Z" fill="white"/>
</mask>
<g mask="url(#mask1_21_99)">
<path d="M7.70423 12.0504C8.07402 11.7663 8.58641 11.6831 9.02786 11.8327C9.31773 11.9265 9.57204 12.1181 9.75074 12.3638C9.8849 12.1864 10.0525 12.0319 10.2506 11.9288C10.6638 11.705 11.1875 11.7032 11.6015 11.9254C12.006 12.1346 12.2982 12.5457 12.3601 12.9974C12.3829 13.1539 12.3754 13.3121 12.3766 13.4696C12.3766 13.7334 12.3763 13.9976 12.3766 14.2616C12.3759 14.3288 12.3819 14.3981 12.3617 14.4633C12.3348 14.55 12.2601 14.619 12.1723 14.6406C12.0729 14.6664 11.9616 14.6285 11.8986 14.5477C11.8515 14.4919 11.8373 14.4168 11.8375 14.3455C11.838 13.9671 11.8375 13.589 11.838 13.2106C11.8449 12.9572 11.7326 12.7058 11.5462 12.5355C11.3786 12.3785 11.1491 12.2909 10.9197 12.2945C10.7141 12.2957 10.5101 12.3701 10.3517 12.5012C10.1482 12.667 10.0218 12.9241 10.0201 13.1873C10.0173 13.5335 10.0196 13.8798 10.0187 14.2261C10.0176 14.2932 10.0227 14.3606 10.0149 14.4272C9.99769 14.5531 9.87772 14.6567 9.74967 14.6501C9.60976 14.6556 9.48458 14.5301 9.48494 14.3911C9.48278 14.0211 9.48512 13.651 9.48386 13.2808C9.48171 13.1901 9.4835 13.0985 9.46303 13.0096C9.41561 12.7911 9.28433 12.5917 9.1015 12.4629C8.94758 12.3521 8.75757 12.2923 8.56791 12.2945C8.36766 12.2945 8.16849 12.3645 8.01134 12.4886C7.7987 12.6537 7.66669 12.9171 7.66364 13.1867C7.66292 13.5845 7.664 13.9827 7.66328 14.3807C7.66328 14.4671 7.61982 14.5531 7.54726 14.6012C7.46195 14.6614 7.34036 14.6644 7.2529 14.607C7.17657 14.559 7.12718 14.471 7.12916 14.3803C7.12898 13.9786 7.12862 13.577 7.12934 13.175C7.13365 12.7383 7.35347 12.3105 7.70423 12.0504Z" fill="#6D747A"/>
</g>
<mask id="mask2_21_99" style="mask-type:luminance" maskUnits="userSpaceOnUse" x="12" y="11" width="4" height="4">
<path d="M12.5518 11.7241H15.4943V14.6561H12.5518V11.7241Z" fill="white"/>
</mask>
<g mask="url(#mask2_21_99)">
<path d="M12.7802 11.7645C12.8894 11.7428 13.0087 11.7969 13.0622 11.8951C13.1049 11.9675 13.099 12.0542 13.0986 12.135C13.0985 12.4657 13.0986 12.7965 13.0986 13.1271C13.0986 13.2022 13.0958 13.2782 13.1092 13.3525C13.1396 13.5395 13.2312 13.716 13.3659 13.8493C13.5024 13.9854 13.6827 14.0767 13.8736 14.104C14.0703 14.1343 14.2764 14.0959 14.4499 13.9986C14.7359 13.8428 14.9221 13.5248 14.9174 13.1993C14.9178 12.8091 14.9169 12.419 14.9178 12.0289C14.9162 11.9352 14.9681 11.8446 15.048 11.797C15.1403 11.7414 15.2664 11.7491 15.3504 11.8172C15.4183 11.8692 15.4553 11.9556 15.4525 12.0406C15.4521 12.3753 15.4525 12.7105 15.4525 13.0452C15.4517 13.1553 15.4562 13.266 15.4419 13.3757C15.3917 13.8245 15.115 14.239 14.7211 14.4596C14.4266 14.6289 14.0699 14.6882 13.7362 14.6228C13.4155 14.5637 13.1189 14.3894 12.9077 14.1415C12.765 13.9739 12.6602 13.7737 12.6069 13.56C12.544 13.3225 12.5631 13.0749 12.56 12.8321C12.5597 12.5918 12.5602 12.3515 12.5597 12.1112C12.5593 12.0409 12.5593 11.9671 12.5925 11.9034C12.6299 11.8319 12.7008 11.7787 12.7802 11.7645Z" fill="#6D747A"/>
</g>
<mask id="mask3_21_99" style="mask-type:luminance" maskUnits="userSpaceOnUse" x="4" y="11" width="3" height="4">
<path d="M4 11.7241H6.89655V14.6561H4V11.7241Z" fill="white"/>
</mask>
<g mask="url(#mask3_21_99)">
<path d="M4.72219 11.7778C4.77122 11.7706 4.82061 11.7665 4.87036 11.7661C5.41364 11.7663 5.95693 11.7663 6.50039 11.7661C6.57097 11.7654 6.64389 11.7846 6.69723 11.8331C6.76943 11.8942 6.80445 11.9957 6.78433 12.0882C6.76386 12.1956 6.67011 12.2848 6.56145 12.2986C6.50219 12.3069 6.4422 12.303 6.38293 12.3035C5.87054 12.3035 5.35833 12.303 4.8463 12.3035C4.6922 12.3031 4.55229 12.4326 4.53721 12.5853C4.51907 12.7187 4.59648 12.8572 4.7186 12.913C4.78344 12.9468 4.85833 12.9456 4.92927 12.9445C5.29996 12.943 5.67047 12.9443 6.04098 12.9423C6.21393 12.9447 6.38545 13.0012 6.52553 13.1025C6.69867 13.2261 6.82349 13.4159 6.86569 13.6244C6.90484 13.8067 6.88006 14.0018 6.79852 14.1695C6.69885 14.3782 6.51063 14.5422 6.29026 14.6126C6.18735 14.6463 6.07834 14.6573 5.9704 14.656C5.43035 14.6551 4.89048 14.656 4.35061 14.6557C4.28631 14.6551 4.22076 14.6379 4.16975 14.5973C4.10384 14.547 4.06433 14.464 4.06864 14.3809C4.06684 14.278 4.13473 14.1799 4.2292 14.141C4.30499 14.109 4.38904 14.1185 4.46932 14.1174C4.99303 14.1172 5.51709 14.1178 6.0408 14.1172C6.20962 14.1176 6.35833 13.9587 6.3463 13.79C6.35043 13.6219 6.19525 13.4736 6.02841 13.4775C5.70136 13.4773 5.37431 13.4786 5.04745 13.4784C4.90898 13.4768 4.76763 13.4894 4.63275 13.4493C4.42909 13.3954 4.24824 13.2616 4.13491 13.0842C4.04637 12.947 3.99859 12.7837 4.00003 12.6203C3.99931 12.3981 4.09091 12.1776 4.24877 12.0213C4.37485 11.892 4.54367 11.8058 4.72219 11.7778Z" fill="#6D747A"/>
</g>
<mask id="mask4_21_99" style="mask-type:luminance" maskUnits="userSpaceOnUse" x="17" y="11" width="3" height="4">
<path d="M17.1035 11.7241H20.0001V14.6561H17.1035V11.7241Z" fill="white"/>
</mask>
<g mask="url(#mask4_21_99)">
<path d="M18.0714 12.4332C17.8877 12.5472 17.7501 12.7292 17.6833 12.9343C18.2636 12.9373 18.8442 12.9352 19.4247 12.9352C19.3866 12.8175 19.327 12.7064 19.246 12.613C19.1016 12.4429 18.8925 12.3294 18.6713 12.3019C18.4642 12.275 18.2478 12.321 18.0714 12.4332ZM18.1054 11.831C18.547 11.6832 19.058 11.7682 19.4268 12.0528C19.7494 12.2944 19.9622 12.6776 19.9938 13.0799C20.001 13.1652 20.0102 13.2585 19.9647 13.3355C19.9177 13.4219 19.8207 13.4736 19.7232 13.4725C19.0432 13.4745 18.3633 13.4707 17.6833 13.4745C17.7383 13.6388 17.8354 13.7895 17.9692 13.9005C18.161 14.0632 18.4225 14.1406 18.6716 14.106C18.8929 14.0789 19.1007 13.965 19.2455 13.796C19.295 13.7416 19.3279 13.6744 19.3735 13.6171C19.4459 13.528 19.5791 13.4984 19.6833 13.5458C19.7992 13.5954 19.8701 13.734 19.8347 13.8565C19.811 13.9372 19.7569 14.0038 19.7097 14.0722C19.4489 14.421 19.0247 14.6417 18.5885 14.6478C18.1801 14.6609 17.7708 14.4869 17.4951 14.1857C17.3282 14.0077 17.2088 13.7861 17.151 13.5494C17.1231 13.4425 17.1133 13.3319 17.1064 13.222C17.1091 13.011 17.149 12.7989 17.2386 12.6067C17.4022 12.2425 17.7252 11.9531 18.1054 11.831Z" fill="#6D747A"/>
</g>
</g>
<defs>
<clipPath id="clip0_21_99">
<rect width="16" height="6.65609" fill="white" transform="translate(4 8)"/>
</clipPath>
</defs>
</svg>
