<svg width="24" height="24" viewBox="0 0 24 24" fill="none" xmlns="http://www.w3.org/2000/svg">
<circle cx="12" cy="12" r="12" fill="#8064A2"/>
<g clip-path="url(#clip0_38_101)">
<path d="M15.7697 8.00979C16.1016 7.97567 16.4441 8.0317 16.7439 8.18041C17.1041 8.35426 17.4023 8.65437 17.5738 9.0159C17.7997 9.48052 17.8069 10.0448 17.5935 10.5152C17.4062 10.9394 17.0463 11.2821 16.6144 11.4507C16.5644 11.4678 16.5147 11.496 16.4603 11.4945C16.3988 11.4877 16.3821 11.3927 16.4391 11.367C16.4991 11.3388 16.5644 11.3235 16.6244 11.295C17.0116 11.1255 17.3284 10.8009 17.4868 10.4087C17.6618 9.98608 17.6469 9.49165 17.4497 9.07948C17.2704 8.7025 16.9434 8.39754 16.5524 8.24955C16.2392 8.12833 15.8884 8.10677 15.5625 8.18867C15.2647 8.26177 14.9894 8.42143 14.7769 8.64233C14.4856 8.94101 14.3141 9.35462 14.315 9.77218C14.3076 10.1502 14.4411 10.5281 14.6794 10.821C14.871 11.0595 15.1312 11.2433 15.4209 11.3422C15.4472 11.3519 15.4775 11.3632 15.4888 11.3914C15.5125 11.4347 15.4691 11.4943 15.4209 11.4872C15.3676 11.4782 15.3184 11.4539 15.2685 11.4342C14.9622 11.3065 14.6954 11.0901 14.5028 10.8203C14.2848 10.5139 14.1666 10.1373 14.1742 9.76123C14.1781 9.34151 14.3378 8.92574 14.6153 8.61091C14.9066 8.27488 15.3275 8.05595 15.7697 8.00979Z" fill="white"/>
<path d="M15.7358 8.41224C16.0449 8.36141 16.3707 8.4169 16.6433 8.57208C17.0437 8.79262 17.3192 9.22168 17.3508 9.67804C17.3705 9.93271 17.3204 10.1938 17.2021 10.4207C17.0582 10.7059 16.8107 10.9358 16.5189 11.064C16.4916 11.076 16.4585 11.0836 16.433 11.0636C16.388 11.0345 16.3978 10.957 16.4501 10.9412C16.6473 10.8551 16.8255 10.7219 16.9555 10.5494C17.0861 10.3822 17.1705 10.1802 17.2017 9.9706C17.2423 9.6942 17.1891 9.40469 17.0489 9.16277C16.9501 8.99198 16.8115 8.84417 16.6455 8.73695C16.3326 8.52951 15.9233 8.47761 15.5677 8.59722C15.217 8.71091 14.9244 8.98928 14.793 9.33375C14.6561 9.68145 14.6866 10.09 14.8754 10.4124C15.0033 10.6333 15.1988 10.8151 15.4314 10.9214C15.4564 10.9338 15.4858 10.948 15.4939 10.9774C15.5117 11.0254 15.458 11.0818 15.4092 11.0635C15.3657 11.0503 15.3262 11.027 15.2867 11.0054C14.9787 10.8359 14.7401 10.5455 14.6335 10.2104C14.5196 9.85369 14.5557 9.45085 14.7369 9.12254C14.9365 8.74844 15.317 8.47797 15.7358 8.41224Z" fill="white"/>
<path d="M15.8885 8.82498C16.1818 8.80181 16.4821 8.92196 16.6779 9.14179C16.8713 9.35497 16.9631 9.65831 16.9124 9.94243C16.8797 10.15 16.7754 10.346 16.6206 10.4886C16.5793 10.5259 16.539 10.5692 16.4855 10.5881C16.4325 10.5999 16.3856 10.5382 16.4103 10.4898C16.4316 10.4561 16.4688 10.4376 16.4977 10.4112C16.7488 10.2021 16.8519 9.83503 16.743 9.52648C16.6868 9.35461 16.571 9.20321 16.4205 9.10281C16.2574 8.99182 16.0534 8.94423 15.8582 8.96919C15.6572 8.9938 15.4672 9.09617 15.3363 9.25008C15.2104 9.39717 15.1349 9.59006 15.1394 9.78457C15.1331 10.0351 15.2562 10.2833 15.4546 10.4351C15.4724 10.4505 15.493 10.4674 15.4968 10.4922C15.504 10.5303 15.4731 10.5734 15.4329 10.5723C15.4052 10.5757 15.3828 10.5577 15.3625 10.5425C15.2017 10.415 15.0834 10.235 15.0299 10.0369C14.9731 9.81725 14.9914 9.57623 15.0916 9.37149C15.2346 9.0642 15.5505 8.8485 15.8885 8.82498Z" fill="white"/>
<mask id="mask0_38_101" style="mask-type:luminance" maskUnits="userSpaceOnUse" x="15" y="9" width="3" height="6">
<path d="M15.6328 9.83911H17.4259V14.6561H15.6328V9.83911Z" fill="white"/>
</mask>
<g mask="url(#mask0_38_101)">
<path d="M15.8623 9.88199C15.9555 9.85433 16.0624 9.88145 16.1294 9.95257C16.1849 10.0068 16.2077 10.086 16.2071 10.1623C16.2068 11.1783 16.2073 12.1943 16.2068 13.2103C16.2046 13.4201 16.2836 13.6282 16.418 13.7884C16.5667 13.9669 16.7861 14.0849 17.0175 14.1085C17.0843 14.1165 17.1547 14.107 17.2177 14.1347C17.3149 14.174 17.3844 14.2748 17.3813 14.3806C17.3853 14.4901 17.3106 14.5941 17.2086 14.6318C17.1206 14.6611 17.0248 14.6464 16.9345 14.6372C16.5299 14.5887 16.1527 14.3576 15.9235 14.0206C15.8221 13.8727 15.7477 13.7056 15.7077 13.5303C15.6628 13.3448 15.668 13.1523 15.6683 12.9625C15.6683 12.033 15.6687 11.1034 15.6683 10.1742C15.6687 10.1079 15.6793 10.0386 15.7197 9.98418C15.7545 9.93605 15.8048 9.89834 15.8623 9.88199Z" fill="white"/>
</g>
<mask id="mask1_38_101" style="mask-type:luminance" maskUnits="userSpaceOnUse" x="7" y="11" width="6" height="4">
<path d="M7.12695 11.7242H12.4143V14.6562H7.12695V11.7242Z" fill="white"/>
</mask>
<g mask="url(#mask1_38_101)">
<path d="M7.70618 12.0505C8.07597 11.7664 8.58837 11.6832 9.02982 11.8329C9.31969 11.9266 9.574 12.1182 9.7527 12.3639C9.88686 12.1865 10.0544 12.032 10.2525 11.9289C10.6658 11.7052 11.1895 11.7034 11.6035 11.9255C12.0079 12.1348 12.3001 12.5459 12.3621 12.9975C12.3849 13.154 12.3773 13.3122 12.3786 13.4697C12.3786 13.7335 12.3782 13.9977 12.3786 14.2617C12.3779 14.3289 12.3838 14.3982 12.3637 14.4634C12.3367 14.5502 12.262 14.6191 12.1742 14.6407C12.0749 14.6665 11.9635 14.6287 11.9005 14.5478C11.8535 14.492 11.8393 14.4169 11.8394 14.3456C11.84 13.9672 11.8394 13.5891 11.84 13.2107C11.8468 12.9573 11.7346 12.7059 11.5481 12.5356C11.3806 12.3787 11.151 12.291 10.9217 12.2946C10.7161 12.2959 10.512 12.3702 10.3536 12.5013C10.1501 12.6671 10.0237 12.9243 10.0221 13.1874C10.0192 13.5336 10.0216 13.8799 10.0207 14.2262C10.0196 14.2933 10.0246 14.3607 10.0169 14.4273C9.99964 14.5532 9.87967 14.6568 9.75162 14.6502C9.61171 14.6558 9.48653 14.5302 9.48689 14.3912C9.48474 14.0213 9.48707 13.6511 9.48581 13.2809C9.48366 13.1903 9.48546 13.0987 9.46498 13.0098C9.41757 12.7912 9.28628 12.5918 9.10345 12.4631C8.94954 12.3523 8.75952 12.2924 8.56987 12.2946C8.36962 12.2946 8.17044 12.3646 8.01329 12.4887C7.80065 12.6538 7.66865 12.9173 7.66559 13.1868C7.66487 13.5846 7.66595 13.9828 7.66523 14.3808C7.66523 14.4672 7.62177 14.5532 7.54921 14.6014C7.4639 14.6615 7.34232 14.6646 7.25485 14.6071C7.17852 14.5591 7.12913 14.4711 7.13111 14.3804C7.13093 13.9787 7.13057 13.5771 7.13129 13.1752C7.1356 12.7384 7.35543 12.3106 7.70618 12.0505Z" fill="white"/>
</g>
<mask id="mask2_38_101" style="mask-type:luminance" maskUnits="userSpaceOnUse" x="12" y="11" width="4" height="4">
<path d="M12.5508 11.7242H15.4933V14.6562H12.5508V11.7242Z" fill="white"/>
</mask>
<g mask="url(#mask2_38_101)">
<path d="M12.7792 11.7647C12.8884 11.7429 13.0077 11.797 13.0612 11.8952C13.104 11.9676 13.098 12.0543 13.0977 12.1352C13.0975 12.4658 13.0977 12.7966 13.0977 13.1273C13.0977 13.2023 13.0948 13.2783 13.1083 13.3527C13.1386 13.5396 13.2302 13.7162 13.3649 13.8494C13.5014 13.9856 13.6817 14.0768 13.8726 14.1041C14.0693 14.1345 14.2755 14.096 14.449 13.9987C14.7349 13.843 14.9211 13.5249 14.9165 13.1995C14.9168 12.8092 14.9159 12.4191 14.9168 12.029C14.9152 11.9353 14.9671 11.8448 15.047 11.7972C15.1393 11.7415 15.2654 11.7492 15.3495 11.8173C15.4174 11.8694 15.4543 11.9558 15.4515 12.0407C15.4511 12.3755 15.4515 12.7106 15.4515 13.0454C15.4508 13.1555 15.4552 13.2661 15.4409 13.3758C15.3908 13.8246 15.114 14.2392 14.7202 14.4597C14.4256 14.6291 14.0689 14.6883 13.7352 14.623C13.4145 14.5639 13.118 14.3895 12.9068 14.1416C12.764 13.9741 12.6593 13.7738 12.6059 13.5601C12.5431 13.3227 12.5621 13.075 12.5591 12.8322C12.5587 12.5919 12.5592 12.3516 12.5587 12.1113C12.5583 12.0411 12.5583 11.9672 12.5916 11.9035C12.6289 11.832 12.6999 11.7788 12.7792 11.7647Z" fill="white"/>
</g>
<mask id="mask3_38_101" style="mask-type:luminance" maskUnits="userSpaceOnUse" x="4" y="11" width="3" height="4">
<path d="M4 11.7242H6.89655V14.6562H4V11.7242Z" fill="white"/>
</mask>
<g mask="url(#mask3_38_101)">
<path d="M4.72219 11.7779C4.77122 11.7707 4.82061 11.7666 4.87036 11.7663C5.41364 11.7664 5.95693 11.7664 6.50039 11.7663C6.57097 11.7655 6.64389 11.7848 6.69723 11.8332C6.76943 11.8943 6.80445 11.9958 6.78433 12.0883C6.76386 12.1957 6.67011 12.2849 6.56145 12.2988C6.50219 12.307 6.4422 12.3031 6.38293 12.3036C5.87054 12.3036 5.35833 12.3031 4.8463 12.3036C4.6922 12.3033 4.55229 12.4327 4.53721 12.5854C4.51907 12.7188 4.59648 12.8573 4.7186 12.9132C4.78344 12.9469 4.85833 12.9457 4.92927 12.9446C5.29996 12.9432 5.67047 12.9444 6.04098 12.9424C6.21393 12.9448 6.38545 13.0013 6.52553 13.1026C6.69867 13.2262 6.82349 13.416 6.86569 13.6246C6.90484 13.8068 6.88006 14.0019 6.79852 14.1696C6.69885 14.3783 6.51063 14.5423 6.29026 14.6127C6.18735 14.6465 6.07834 14.6574 5.9704 14.6562C5.43035 14.6553 4.89048 14.6562 4.35061 14.6558C4.28631 14.6553 4.22076 14.638 4.16975 14.5974C4.10384 14.5471 4.06433 14.4642 4.06864 14.381C4.06684 14.2781 4.13473 14.18 4.2292 14.1411C4.30499 14.1091 4.38904 14.1186 4.46932 14.1175C4.99303 14.1174 5.51709 14.1179 6.0408 14.1174C6.20962 14.1177 6.35833 13.9588 6.3463 13.7901C6.35043 13.622 6.19525 13.4737 6.02841 13.4776C5.70136 13.4775 5.37431 13.4787 5.04745 13.4785C4.90898 13.4769 4.76763 13.4895 4.63275 13.4494C4.42909 13.3956 4.24824 13.2618 4.13491 13.0843C4.04637 12.9471 3.99859 12.7839 4.00003 12.6204C3.99931 12.3983 4.09091 12.1777 4.24877 12.0215C4.37485 11.8922 4.54367 11.8059 4.72219 11.7779Z" fill="white"/>
</g>
<mask id="mask4_38_101" style="mask-type:luminance" maskUnits="userSpaceOnUse" x="17" y="11" width="3" height="4">
<path d="M17.1035 11.7242H20.0001V14.6562H17.1035V11.7242Z" fill="white"/>
</mask>
<g mask="url(#mask4_38_101)">
<path d="M18.0724 12.4333C17.8887 12.5474 17.7511 12.7293 17.6843 12.9344C18.2646 12.9375 18.8452 12.9353 19.4257 12.9353C19.3876 12.8177 19.328 12.7065 19.247 12.6131C19.1026 12.443 18.8935 12.3295 18.6723 12.302C18.4652 12.2751 18.2488 12.3211 18.0724 12.4333ZM18.1063 11.8311C18.548 11.6833 19.0589 11.7683 19.4278 12.0529C19.7504 12.2945 19.9632 12.6778 19.9948 13.0801C20.002 13.1654 20.0112 13.2586 19.9657 13.3356C19.9187 13.422 19.8217 13.4737 19.7242 13.4727C19.0442 13.4746 18.3642 13.4709 17.6843 13.4746C17.7392 13.639 17.8364 13.7896 17.9702 13.9006C18.162 14.0634 18.4235 14.1408 18.6726 14.1061C18.8939 14.079 19.1017 13.9651 19.2464 13.7961C19.296 13.7417 19.3289 13.6745 19.3745 13.6172C19.4469 13.5282 19.5801 13.4985 19.6843 13.5459C19.8001 13.5955 19.8711 13.7342 19.8357 13.8566C19.812 13.9373 19.7579 14.0039 19.7107 14.0723C19.4499 14.4211 19.0257 14.6418 18.5895 14.6479C18.1811 14.6611 17.7718 14.487 17.4961 14.1858C17.3292 14.0079 17.2098 13.7862 17.152 13.5495C17.1241 13.4427 17.1142 13.332 17.1074 13.2221C17.1101 13.0111 17.15 12.799 17.2396 12.6068C17.4032 12.2426 17.7261 11.9533 18.1063 11.8311Z" fill="white"/>
</g>
</g>
<defs>
<clipPath id="clip0_38_101">
<rect width="16" height="6.65609" fill="white" transform="translate(4 8)"/>
</clipPath>
</defs>
</svg>
