<svg width="24" height="24" viewBox="0 0 24 24" fill="none" xmlns="http://www.w3.org/2000/svg">
<circle cx="12" cy="12" r="12" fill="#8064A2"/>
<path d="M11.706 9.91335V15.3333H17.546C18.7793 15.2467 19.3327 14.4867 19.3327 13.5533C19.3327 12.5667 18.586 11.7733 17.586 11.7733C17.3327 11.7733 17.1193 11.8267 16.8993 11.92C16.7393 10.36 15.4127 9.14001 13.7793 9.14001C12.9993 9.14001 12.2593 9.43335 11.706 9.91335ZM11.1193 10.5933C10.9193 10.4733 10.706 10.38 10.4727 10.3333V15.3333H11.3993V10.2267C11.2993 10.3333 11.206 10.4667 11.1193 10.5933ZM9.55268 10.2333V15.3333H10.166V10.2533C10.0393 10.2333 9.91268 10.2267 9.77935 10.2267C9.69935 10.2267 9.62602 10.2267 9.55268 10.2333ZM8.33268 10.6667V15.3333H8.93935V10.36C8.71935 10.4333 8.51268 10.54 8.33268 10.6667ZM7.21935 12.3333C7.17935 12.3333 7.13935 12.2933 7.09268 12.2733V15.3333H7.70602V11.24C7.45935 11.56 7.29268 11.94 7.21935 12.3333ZM5.85935 12.1467V15.2733C5.99935 15.3133 6.15935 15.3333 6.33268 15.3333H6.47935V12.0933C6.42602 12.0867 6.37268 12.08 6.33268 12.08C6.15935 12.08 5.99935 12.1067 5.85935 12.1467ZM4.66602 13.7067C4.66602 14.2067 4.89268 14.6467 5.24602 14.9467V12.4733C4.89268 12.7667 4.66602 13.2133 4.66602 13.7067Z" fill="white"/>
</svg>
