<svg width="24" height="24" viewBox="0 0 24 24" fill="none" xmlns="http://www.w3.org/2000/svg">
<circle cx="12" cy="12" r="12" fill="#EBEDF0"/>
<path d="M11.707 9.91323V15.3332H17.547C18.7803 15.2466 19.3337 14.4866 19.3337 13.5532C19.3337 12.5666 18.587 11.7732 17.587 11.7732C17.3337 11.7732 17.1203 11.8266 16.9003 11.9199C16.7403 10.3599 15.4137 9.13989 13.7803 9.13989C13.0003 9.13989 12.2603 9.43323 11.707 9.91323ZM11.1203 10.5932C10.9203 10.4732 10.707 10.3799 10.4737 10.3332V15.3332H11.4003V10.2266C11.3003 10.3332 11.207 10.4666 11.1203 10.5932ZM9.55366 10.2332V15.3332H10.167V10.2532C10.0403 10.2332 9.91366 10.2266 9.78033 10.2266C9.70033 10.2266 9.62699 10.2266 9.55366 10.2332ZM8.33366 10.6666V15.3332H8.94033V10.3599C8.72033 10.4332 8.51366 10.5399 8.33366 10.6666ZM7.22033 12.3332C7.18033 12.3332 7.14033 12.2932 7.09366 12.2732V15.3332H7.70699V11.2399C7.46033 11.5599 7.29366 11.9399 7.22033 12.3332ZM5.86033 12.1466V15.2732C6.00033 15.3132 6.16033 15.3332 6.33366 15.3332H6.48033V12.0932C6.42699 12.0866 6.37366 12.0799 6.33366 12.0799C6.16033 12.0799 6.00033 12.1066 5.86033 12.1466ZM4.66699 13.7066C4.66699 14.2066 4.89366 14.6466 5.24699 14.9466V12.4732C4.89366 12.7666 4.66699 13.2132 4.66699 13.7066Z" fill="#6D747A"/>
</svg>
