<svg width="24" height="24" viewBox="0 0 24 24" fill="none" xmlns="http://www.w3.org/2000/svg">
<circle cx="12" cy="12" r="12" fill="#8064A2"/>
<path d="M12.004 6.86334C10.224 6.86334 8.44533 7.38601 6.90733 8.43201H4L5.30867 9.85534C4.7124 10.3986 4.29441 11.1095 4.1096 11.8947C3.92479 12.6798 3.9818 13.5026 4.27315 14.2547C4.5645 15.0069 5.07656 15.6534 5.74206 16.1092C6.40756 16.565 7.19537 16.8088 8.002 16.8087C9.00988 16.8096 9.98063 16.4284 10.7187 15.742L12 17.1367L13.2813 15.7433C14.0189 16.429 14.9889 16.8097 15.996 16.8087C17.0566 16.8087 18.0738 16.3874 18.824 15.6376C19.5741 14.8877 19.9956 13.8706 19.996 12.81C19.9966 12.2538 19.8809 11.7035 19.6562 11.1947C19.4315 10.6858 19.1028 10.2296 18.6913 9.85534L20 8.43201H17.1C15.5974 7.40916 13.8217 6.86253 12.004 6.86334ZM12 8.17001C13.0207 8.17001 14.042 8.37201 15.0027 8.77201C13.2953 9.42534 12 10.9533 12 12.7333C12 10.9527 10.7053 9.42534 8.99733 8.77201C9.94876 8.37547 10.9692 8.17043 12 8.17001ZM8.00133 10.1047C8.35669 10.1047 8.70857 10.1747 9.03687 10.3107C9.36518 10.4466 9.66349 10.646 9.91476 10.8972C10.166 11.1485 10.3654 11.4468 10.5014 11.7751C10.6373 12.1034 10.7073 12.4553 10.7073 12.8107C10.7073 13.166 10.6373 13.5179 10.5014 13.8462C10.3654 14.1745 10.166 14.4728 9.91476 14.7241C9.66349 14.9754 9.36518 15.1747 9.03687 15.3107C8.70857 15.4467 8.35669 15.5167 8.00133 15.5167C7.28366 15.5167 6.59538 15.2316 6.0879 14.7241C5.58043 14.2166 5.29533 13.5284 5.29533 12.8107C5.29533 12.093 5.58043 11.4047 6.0879 10.8972C6.59538 10.3898 7.28366 10.1047 8.00133 10.1047ZM15.996 10.106C16.3512 10.1059 16.703 10.1757 17.0312 10.3115C17.3595 10.4474 17.6577 10.6465 17.909 10.8976C18.1603 11.1487 18.3597 11.4468 18.4957 11.7749C18.6318 12.1031 18.7019 12.4548 18.702 12.81C18.7021 13.1652 18.6323 13.517 18.4965 13.8452C18.3607 14.1735 18.1615 14.4718 17.9104 14.723C17.6593 14.9743 17.3612 15.1737 17.0331 15.3097C16.7049 15.4458 16.3532 15.5159 15.998 15.516C15.2806 15.5163 14.5925 15.2315 14.085 14.7244C13.5775 14.2173 13.2923 13.5294 13.292 12.812C13.2917 12.0946 13.5765 11.4065 14.0836 10.899C14.5907 10.3915 15.2786 10.1063 15.996 10.106ZM8.00133 11.3927C7.62508 11.3927 7.26424 11.5421 6.99818 11.8082C6.73213 12.0742 6.58267 12.4351 6.58267 12.8113C6.58267 13.1876 6.73213 13.5484 6.99818 13.8145C7.26424 14.0805 7.62508 14.23 8.00133 14.23C8.37759 14.23 8.73843 14.0805 9.00448 13.8145C9.27053 13.5484 9.42 13.1876 9.42 12.8113C9.42 12.4351 9.27053 12.0742 9.00448 11.8082C8.73843 11.5421 8.37759 11.3927 8.00133 11.3927ZM15.996 11.3927C15.6197 11.3927 15.2589 11.5421 14.9929 11.8082C14.7268 12.0742 14.5773 12.4351 14.5773 12.8113C14.5773 13.1876 14.7268 13.5484 14.9929 13.8145C15.2589 14.0805 15.6197 14.23 15.996 14.23C16.3723 14.23 16.7331 14.0805 16.9991 13.8145C17.2652 13.5484 17.4147 13.1876 17.4147 12.8113C17.4147 12.4351 17.2652 12.0742 16.9991 11.8082C16.7331 11.5421 16.3723 11.3927 15.996 11.3927Z" fill="white"/>
</svg>
