<svg width="24" height="24" viewBox="0 0 24 24" fill="none" xmlns="http://www.w3.org/2000/svg">
<circle cx="12" cy="12" r="12" fill="#8064A2"/>
<path d="M10.6673 14L14.1273 12L10.6673 9.99998V14ZM18.374 8.77998C18.4606 9.09331 18.5207 9.51331 18.5607 10.0466C18.6073 10.58 18.6273 11.04 18.6273 11.44L18.6673 12C18.6673 13.46 18.5606 14.5333 18.374 15.22C18.2073 15.82 17.8207 16.2066 17.2207 16.3733C16.9073 16.46 16.334 16.52 15.454 16.56C14.5873 16.6066 13.794 16.6266 13.0607 16.6266L12.0007 16.6666C9.20732 16.6666 7.46732 16.56 6.78065 16.3733C6.18065 16.2066 5.79398 15.82 5.62732 15.22C5.54065 14.9066 5.48065 14.4866 5.44065 13.9533C5.39398 13.42 5.37398 12.96 5.37398 12.56L5.33398 12C5.33398 10.54 5.44065 9.46665 5.62732 8.77998C5.79398 8.17998 6.18065 7.79331 6.78065 7.62665C7.09398 7.53998 7.66732 7.47998 8.54732 7.43998C9.41398 7.39331 10.2073 7.37331 10.9407 7.37331L12.0007 7.33331C14.794 7.33331 16.534 7.43998 17.2207 7.62665C17.8207 7.79331 18.2073 8.17998 18.374 8.77998Z" fill="white"/>
</svg>
