<svg width="24" height="24" viewBox="0 0 24 24" fill="none" xmlns="http://www.w3.org/2000/svg">
<circle cx="12" cy="12" r="12" fill="#EBEDF0"/>
<path d="M10.6663 13.9999L14.1263 11.9999L10.6663 9.99992V13.9999ZM18.373 8.77992C18.4597 9.09325 18.5197 9.51325 18.5597 10.0466C18.6063 10.5799 18.6263 11.0399 18.6263 11.4399L18.6663 11.9999C18.6663 13.4599 18.5597 14.5333 18.373 15.2199C18.2063 15.8199 17.8197 16.2066 17.2197 16.3733C16.9063 16.4599 16.333 16.5199 15.453 16.5599C14.5863 16.6066 13.793 16.6266 13.0597 16.6266L11.9997 16.6666C9.20634 16.6666 7.46634 16.5599 6.77967 16.3733C6.17967 16.2066 5.79301 15.8199 5.62634 15.2199C5.53967 14.9066 5.47967 14.4866 5.43967 13.9533C5.39301 13.4199 5.37301 12.9599 5.37301 12.5599L5.33301 11.9999C5.33301 10.5399 5.43967 9.46659 5.62634 8.77992C5.79301 8.17992 6.17967 7.79325 6.77967 7.62659C7.09301 7.53992 7.66634 7.47992 8.54634 7.43992C9.41301 7.39325 10.2063 7.37325 10.9397 7.37325L11.9997 7.33325C14.793 7.33325 16.533 7.43992 17.2197 7.62659C17.8197 7.79325 18.2063 8.17992 18.373 8.77992Z" fill="#6D747A"/>
</svg>
