<svg width="647" height="96" viewBox="0 0 647 96" fill="none" xmlns="http://www.w3.org/2000/svg">
<rect y="64" width="32" height="32" rx="8" fill="#F7F5F9"/>
<rect x="40.5" y="64.5" width="606" height="31" rx="7.5" fill="#F8F9FA"/>
<rect x="40.5" y="64.5" width="606" height="31" rx="7.5" stroke="#EBEDF0"/>
<path d="M63.436 75.636L61.012 84H59.788L57.844 77.268L55.828 84L54.616 84.012L52.276 75.636H53.44L55.264 82.728L57.28 75.636H58.504L60.424 82.704L62.26 75.636H63.436ZM65.723 78.492C65.915 78.116 66.187 77.824 66.539 77.616C66.899 77.408 67.335 77.304 67.847 77.304V78.432H67.559C66.335 78.432 65.723 79.096 65.723 80.424V84H64.631V77.424H65.723V78.492ZM69.6716 76.356C69.4636 76.356 69.2876 76.284 69.1436 76.14C68.9996 75.996 68.9276 75.82 68.9276 75.612C68.9276 75.404 68.9996 75.228 69.1436 75.084C69.2876 74.94 69.4636 74.868 69.6716 74.868C69.8716 74.868 70.0396 74.94 70.1756 75.084C70.3196 75.228 70.3916 75.404 70.3916 75.612C70.3916 75.82 70.3196 75.996 70.1756 76.14C70.0396 76.284 69.8716 76.356 69.6716 76.356ZM70.1996 77.424V84H69.1076V77.424H70.1996ZM73.3927 78.324V82.2C73.3927 82.52 73.4607 82.748 73.5967 82.884C73.7327 83.012 73.9687 83.076 74.3047 83.076H75.1087V84H74.1247C73.5167 84 73.0607 83.86 72.7567 83.58C72.4527 83.3 72.3007 82.84 72.3007 82.2V78.324H71.4487V77.424H72.3007V75.768H73.3927V77.424H75.1087V78.324H73.3927ZM82.4318 80.46C82.4318 80.668 82.4198 80.888 82.3958 81.12H77.1398C77.1798 81.768 77.3998 82.276 77.7998 82.644C78.2078 83.004 78.6998 83.184 79.2758 83.184C79.7478 83.184 80.1398 83.076 80.4518 82.86C80.7718 82.636 80.9958 82.34 81.1238 81.972H82.2998C82.1238 82.604 81.7718 83.12 81.2438 83.52C80.7158 83.912 80.0598 84.108 79.2758 84.108C78.6518 84.108 78.0918 83.968 77.5958 83.688C77.1078 83.408 76.7238 83.012 76.4438 82.5C76.1638 81.98 76.0238 81.38 76.0238 80.7C76.0238 80.02 76.1598 79.424 76.4318 78.912C76.7038 78.4 77.0838 78.008 77.5718 77.736C78.0678 77.456 78.6358 77.316 79.2758 77.316C79.8998 77.316 80.4518 77.452 80.9318 77.724C81.4118 77.996 81.7798 78.372 82.0358 78.852C82.2998 79.324 82.4318 79.86 82.4318 80.46ZM81.3038 80.232C81.3038 79.816 81.2118 79.46 81.0278 79.164C80.8438 78.86 80.5918 78.632 80.2718 78.48C79.9598 78.32 79.6118 78.24 79.2278 78.24C78.6758 78.24 78.2038 78.416 77.8118 78.768C77.4278 79.12 77.2078 79.608 77.1518 80.232H81.3038ZM86.6644 80.688C86.6644 80.016 86.8004 79.428 87.0724 78.924C87.3444 78.412 87.7164 78.016 88.1884 77.736C88.6684 77.456 89.2004 77.316 89.7844 77.316C90.3604 77.316 90.8604 77.44 91.2844 77.688C91.7084 77.936 92.0244 78.248 92.2324 78.624V77.424H93.3364V84H92.2324V82.776C92.0164 83.16 91.6924 83.48 91.2604 83.736C90.8364 83.984 90.3404 84.108 89.7724 84.108C89.1884 84.108 88.6604 83.964 88.1884 83.676C87.7164 83.388 87.3444 82.984 87.0724 82.464C86.8004 81.944 86.6644 81.352 86.6644 80.688ZM92.2324 80.7C92.2324 80.204 92.1324 79.772 91.9324 79.404C91.7324 79.036 91.4604 78.756 91.1164 78.564C90.7804 78.364 90.4084 78.264 90.0004 78.264C89.5924 78.264 89.2204 78.36 88.8844 78.552C88.5484 78.744 88.2804 79.024 88.0804 79.392C87.8804 79.76 87.7804 80.192 87.7804 80.688C87.7804 81.192 87.8804 81.632 88.0804 82.008C88.2804 82.376 88.5484 82.66 88.8844 82.86C89.2204 83.052 89.5924 83.148 90.0004 83.148C90.4084 83.148 90.7804 83.052 91.1164 82.86C91.4604 82.66 91.7324 82.376 91.9324 82.008C92.1324 81.632 92.2324 81.196 92.2324 80.7ZM97.973 80.7C97.973 80.02 98.109 79.428 98.381 78.924C98.653 78.412 99.029 78.016 99.509 77.736C99.997 77.456 100.553 77.316 101.177 77.316C101.985 77.316 102.649 77.512 103.169 77.904C103.697 78.296 104.045 78.84 104.213 79.536H103.037C102.925 79.136 102.705 78.82 102.377 78.588C102.057 78.356 101.657 78.24 101.177 78.24C100.553 78.24 100.049 78.456 99.665 78.888C99.281 79.312 99.089 79.916 99.089 80.7C99.089 81.492 99.281 82.104 99.665 82.536C100.049 82.968 100.553 83.184 101.177 83.184C101.657 83.184 102.057 83.072 102.377 82.848C102.697 82.624 102.917 82.304 103.037 81.888H104.213C104.037 82.56 103.685 83.1 103.157 83.508C102.629 83.908 101.969 84.108 101.177 84.108C100.553 84.108 99.997 83.968 99.509 83.688C99.029 83.408 98.653 83.012 98.381 82.5C98.109 81.988 97.973 81.388 97.973 80.7ZM108.538 84.108C107.922 84.108 107.362 83.968 106.858 83.688C106.362 83.408 105.97 83.012 105.682 82.5C105.402 81.98 105.262 81.38 105.262 80.7C105.262 80.028 105.406 79.436 105.694 78.924C105.99 78.404 106.39 78.008 106.894 77.736C107.398 77.456 107.962 77.316 108.586 77.316C109.21 77.316 109.774 77.456 110.278 77.736C110.782 78.008 111.178 78.4 111.466 78.912C111.762 79.424 111.91 80.02 111.91 80.7C111.91 81.38 111.758 81.98 111.454 82.5C111.158 83.012 110.754 83.408 110.242 83.688C109.73 83.968 109.162 84.108 108.538 84.108ZM108.538 83.148C108.93 83.148 109.298 83.056 109.642 82.872C109.986 82.688 110.262 82.412 110.47 82.044C110.686 81.676 110.794 81.228 110.794 80.7C110.794 80.172 110.69 79.724 110.482 79.356C110.274 78.988 110.002 78.716 109.666 78.54C109.33 78.356 108.966 78.264 108.574 78.264C108.174 78.264 107.806 78.356 107.47 78.54C107.142 78.716 106.878 78.988 106.678 79.356C106.478 79.724 106.378 80.172 106.378 80.7C106.378 81.236 106.474 81.688 106.666 82.056C106.866 82.424 107.13 82.7 107.458 82.884C107.786 83.06 108.146 83.148 108.538 83.148ZM121.254 77.304C121.766 77.304 122.222 77.412 122.622 77.628C123.022 77.836 123.338 78.152 123.57 78.576C123.802 79 123.918 79.516 123.918 80.124V84H122.838V80.28C122.838 79.624 122.674 79.124 122.346 78.78C122.026 78.428 121.59 78.252 121.038 78.252C120.47 78.252 120.018 78.436 119.682 78.804C119.346 79.164 119.178 79.688 119.178 80.376V84H118.098V80.28C118.098 79.624 117.934 79.124 117.606 78.78C117.286 78.428 116.85 78.252 116.298 78.252C115.73 78.252 115.278 78.436 114.942 78.804C114.606 79.164 114.438 79.688 114.438 80.376V84H113.346V77.424H114.438V78.372C114.654 78.028 114.942 77.764 115.302 77.58C115.67 77.396 116.074 77.304 116.514 77.304C117.066 77.304 117.554 77.428 117.978 77.676C118.402 77.924 118.718 78.288 118.926 78.768C119.11 78.304 119.414 77.944 119.838 77.688C120.262 77.432 120.734 77.304 121.254 77.304ZM133.617 77.304C134.129 77.304 134.585 77.412 134.985 77.628C135.385 77.836 135.701 78.152 135.933 78.576C136.165 79 136.281 79.516 136.281 80.124V84H135.201V80.28C135.201 79.624 135.037 79.124 134.709 78.78C134.389 78.428 133.953 78.252 133.401 78.252C132.833 78.252 132.381 78.436 132.045 78.804C131.709 79.164 131.541 79.688 131.541 80.376V84H130.461V80.28C130.461 79.624 130.297 79.124 129.969 78.78C129.649 78.428 129.213 78.252 128.661 78.252C128.093 78.252 127.641 78.436 127.305 78.804C126.969 79.164 126.801 79.688 126.801 80.376V84H125.709V77.424H126.801V78.372C127.017 78.028 127.305 77.764 127.665 77.58C128.033 77.396 128.437 77.304 128.877 77.304C129.429 77.304 129.917 77.428 130.341 77.676C130.765 77.924 131.081 78.288 131.289 78.768C131.473 78.304 131.777 77.944 132.201 77.688C132.625 77.432 133.097 77.304 133.617 77.304ZM144.072 80.46C144.072 80.668 144.06 80.888 144.036 81.12H138.78C138.82 81.768 139.04 82.276 139.44 82.644C139.848 83.004 140.34 83.184 140.916 83.184C141.388 83.184 141.78 83.076 142.092 82.86C142.412 82.636 142.636 82.34 142.764 81.972H143.94C143.764 82.604 143.412 83.12 142.884 83.52C142.356 83.912 141.7 84.108 140.916 84.108C140.292 84.108 139.732 83.968 139.236 83.688C138.748 83.408 138.364 83.012 138.084 82.5C137.804 81.98 137.664 81.38 137.664 80.7C137.664 80.02 137.8 79.424 138.072 78.912C138.344 78.4 138.724 78.008 139.212 77.736C139.708 77.456 140.276 77.316 140.916 77.316C141.54 77.316 142.092 77.452 142.572 77.724C143.052 77.996 143.42 78.372 143.676 78.852C143.94 79.324 144.072 79.86 144.072 80.46ZM142.944 80.232C142.944 79.816 142.852 79.46 142.668 79.164C142.484 78.86 142.232 78.632 141.912 78.48C141.6 78.32 141.252 78.24 140.868 78.24C140.316 78.24 139.844 78.416 139.452 78.768C139.068 79.12 138.848 79.608 138.792 80.232H142.944ZM148.718 77.304C149.518 77.304 150.166 77.548 150.662 78.036C151.158 78.516 151.406 79.212 151.406 80.124V84H150.326V80.28C150.326 79.624 150.162 79.124 149.834 78.78C149.506 78.428 149.058 78.252 148.49 78.252C147.914 78.252 147.454 78.432 147.11 78.792C146.774 79.152 146.606 79.676 146.606 80.364V84H145.514V77.424H146.606V78.36C146.822 78.024 147.114 77.764 147.482 77.58C147.858 77.396 148.27 77.304 148.718 77.304ZM154.522 78.324V82.2C154.522 82.52 154.59 82.748 154.726 82.884C154.862 83.012 155.098 83.076 155.434 83.076H156.238V84H155.254C154.646 84 154.19 83.86 153.886 83.58C153.582 83.3 153.43 82.84 153.43 82.2V78.324H152.578V77.424H153.43V75.768H154.522V77.424H156.238V78.324H154.522ZM157.909 84.072C157.701 84.072 157.525 84 157.381 83.856C157.237 83.712 157.165 83.536 157.165 83.328C157.165 83.12 157.237 82.944 157.381 82.8C157.525 82.656 157.701 82.584 157.909 82.584C158.109 82.584 158.277 82.656 158.413 82.8C158.557 82.944 158.629 83.12 158.629 83.328C158.629 83.536 158.557 83.712 158.413 83.856C158.277 84 158.109 84.072 157.909 84.072ZM160.428 84.072C160.22 84.072 160.044 84 159.9 83.856C159.756 83.712 159.684 83.536 159.684 83.328C159.684 83.12 159.756 82.944 159.9 82.8C160.044 82.656 160.22 82.584 160.428 82.584C160.628 82.584 160.796 82.656 160.932 82.8C161.076 82.944 161.148 83.12 161.148 83.328C161.148 83.536 161.076 83.712 160.932 83.856C160.796 84 160.628 84.072 160.428 84.072ZM162.948 84.072C162.74 84.072 162.564 84 162.42 83.856C162.276 83.712 162.204 83.536 162.204 83.328C162.204 83.12 162.276 82.944 162.42 82.8C162.564 82.656 162.74 82.584 162.948 82.584C163.148 82.584 163.316 82.656 163.452 82.8C163.596 82.944 163.668 83.12 163.668 83.328C163.668 83.536 163.596 83.712 163.452 83.856C163.316 84 163.148 84.072 162.948 84.072Z" fill="#939CA3"/>
<g clip-path="url(#clip0_40_1905)">
<path d="M621.265 85.6003L632.899 80.6137C633.439 80.3803 633.439 79.6203 632.899 79.387L621.265 74.4003C620.825 74.207 620.339 74.5337 620.339 75.007L620.332 78.0803C620.332 78.4137 620.579 78.7003 620.912 78.7403L630.332 80.0003L620.912 81.2537C620.579 81.3003 620.332 81.587 620.332 81.9203L620.339 84.9937C620.339 85.467 620.825 85.7937 621.265 85.6003V85.6003Z" fill="#8064A2"/>
</g>
<g clip-path="url(#clip1_40_1905)">
<path d="M127 25.925H126.969L126.947 25.947L123.075 29.8189V12C123.075 10.9414 123.941 10.075 125 10.075H141C142.059 10.075 142.925 10.9414 142.925 12V24C142.925 25.0586 142.059 25.925 141 25.925H127ZM141 24.075H141.075V24V12V11.925H141H125H124.925V12V26V26.1811L125.053 26.053L127.031 24.075H141Z" fill="#8064A2" stroke="white" stroke-width="0.15"/>
</g>
<g clip-path="url(#clip2_40_1905)">
<path d="M635.05 26.5518L635 26.5307L634.951 26.5518L627.348 29.8104V12.2222C627.348 11.069 628.292 10.125 629.445 10.125H640.556C641.709 10.125 642.653 11.069 642.653 12.2222V29.8104L635.05 26.5518ZM640.506 26.7812L640.681 26.8575V26.6667V13.3333C640.681 12.6532 640.125 12.0972 639.445 12.0972H630.556C629.876 12.0972 629.32 12.6532 629.32 13.3333V26.6667V26.8575L629.495 26.7812L635 24.3808L640.506 26.7812Z" fill="#8064A2" stroke="white" stroke-width="0.25"/>
</g>
<circle cx="595" cy="20" r="11.25" fill="white" stroke="#8064A2" stroke-width="1.5"/>
<g clip-path="url(#clip3_40_1905)">
<path d="M596.332 17.9998V16.9398C596.332 16.3465 597.052 16.0465 597.472 16.4665L600.532 19.5265C600.792 19.7865 600.792 20.2065 600.532 20.4665L597.472 23.5265C597.052 23.9465 596.332 23.6532 596.332 23.0598V21.9332C592.998 21.9332 590.665 22.9998 588.998 25.3332C589.665 21.9998 591.665 18.6665 596.332 17.9998Z" fill="#8064A2"/>
</g>
<rect width="105" height="40" rx="20" fill="#F7F5F9"/>
<path d="M71.7358 10.5L82.2585 10.5C82.3486 10.5 82.4349 10.5358 82.4986 10.5994C82.5622 10.6631 82.598 10.7494 82.598 10.8394L82.598 16.61L87.5199 16.61C87.5848 16.61 87.6483 16.6286 87.703 16.6636C87.7576 16.6986 87.8011 16.7485 87.8282 16.8074C87.8554 16.8663 87.8651 16.9318 87.8562 16.9961C87.8472 17.0604 87.8201 17.1207 87.7779 17.1701L77.2551 29.39C77.2225 29.4247 77.183 29.4524 77.1392 29.4713C77.0954 29.4902 77.0483 29.5 77.0006 29.5C76.9529 29.5 76.9057 29.4902 76.8619 29.4713C76.8181 29.4524 76.7787 29.4247 76.746 29.39L66.2232 17.1701C66.1814 17.1212 66.1543 17.0614 66.1452 16.9978C66.136 16.9341 66.1451 16.8691 66.1714 16.8104C66.1977 16.7518 66.2402 16.7017 66.2938 16.6663C66.3475 16.6308 66.4101 16.6112 66.4744 16.61L71.3964 16.61L71.3964 10.8394C71.3964 10.7494 71.4321 10.6631 71.4958 10.5994C71.5594 10.5358 71.6458 10.5 71.7358 10.5ZM81.9191 11.1789L72.0752 11.1789L72.0752 16.9494C72.0752 17.0394 72.0395 17.1258 71.9758 17.1894C71.9122 17.2531 71.8258 17.2889 71.7358 17.2889L67.2144 17.2889L76.9972 28.6483L86.7799 17.2889L82.2585 17.2889C82.1685 17.2889 82.0822 17.2531 82.0185 17.1894C81.9549 17.1258 81.9191 17.0394 81.9191 16.9494L81.9191 11.1789Z" fill="#8064A2" stroke="#8064A2"/>
<path d="M33.2642 29.5L22.7415 29.5C22.6514 29.5 22.5651 29.4642 22.5014 29.4006C22.4378 29.3369 22.402 29.2506 22.402 29.1606L22.402 23.39H17.4801C17.4152 23.39 17.3517 23.3714 17.297 23.3364C17.2424 23.3014 17.1989 23.2515 17.1718 23.1926C17.1446 23.1337 17.1349 23.0682 17.1439 23.0039C17.1528 22.9396 17.1799 22.8793 17.2221 22.8299L27.7449 10.61C27.7775 10.5753 27.817 10.5476 27.8608 10.5287C27.9046 10.5098 27.9517 10.5 27.9994 10.5C28.0471 10.5 28.0943 10.5098 28.1381 10.5287C28.1819 10.5476 28.2213 10.5753 28.254 10.61L38.7768 22.8299C38.8186 22.8788 38.8457 22.9386 38.8548 23.0022C38.864 23.0659 38.8549 23.1309 38.8286 23.1896C38.8023 23.2482 38.7598 23.2982 38.7062 23.3337C38.6525 23.3692 38.5899 23.3888 38.5256 23.39H33.6036V29.1606C33.6036 29.2506 33.5679 29.3369 33.5042 29.4006C33.4406 29.4642 33.3542 29.5 33.2642 29.5ZM23.0809 28.8211L32.9248 28.8211V23.0506C32.9248 22.9606 32.9605 22.8742 33.0242 22.8106C33.0878 22.7469 33.1742 22.7111 33.2642 22.7111H37.7856L28.0028 11.3517L18.2201 22.7111H22.7415C22.8315 22.7111 22.9178 22.7469 22.9815 22.8106C23.0451 22.8742 23.0809 22.9606 23.0809 23.0506L23.0809 28.8211Z" fill="#8064A2" stroke="#8064A2"/>
<rect x="52" y="8" width="1" height="24" rx="0.5" fill="#EBEDF0"/>
<defs>
<clipPath id="clip0_40_1905">
<rect width="16" height="16" fill="white" transform="translate(619 72)"/>
</clipPath>
<clipPath id="clip1_40_1905">
<rect width="24" height="24" fill="white" transform="translate(121 8)"/>
</clipPath>
<clipPath id="clip2_40_1905">
<rect width="24" height="24" fill="white" transform="translate(623 8)"/>
</clipPath>
<clipPath id="clip3_40_1905">
<rect width="16" height="16" fill="white" transform="matrix(-1 0 0 1 603 12)"/>
</clipPath>
</defs>
</svg>
