<svg width="50" height="50" viewBox="0 0 50 50" fill="none" xmlns="http://www.w3.org/2000/svg">
<g id="107175_circle_facebook_icon 1" clip-path="url(#clip0_2099_10541)">
<path id="Vector" fill-rule="evenodd" clip-rule="evenodd" d="M21.4708 38.6H27.0908V24.9983H30.84L31.3367 20.3117H27.0908L27.0967 17.965C27.0967 16.7433 27.2133 16.0875 28.9667 16.0875H31.31V11.4H27.56C23.0558 11.4 21.4708 13.6742 21.4708 17.4975V20.3117H18.6633V24.9992H21.4708V38.6ZM25 50C11.1933 50 0 38.8067 0 25C0 11.1925 11.1933 0 25 0C38.8067 0 50 11.1925 50 25C50 38.8067 38.8067 50 25 50Z" fill="#3A589B"/>
</g>
<defs>
<clipPath id="clip0_2099_10541">
<rect width="50" height="50" fill="white"/>
</clipPath>
</defs>
</svg>
