<svg width="50" height="50" viewBox="0 0 50 50" fill="none" xmlns="http://www.w3.org/2000/svg">
<circle cx="25" cy="25" r="25" fill="#CD486B"/>
<g clip-path="url(#clip0_2099_10577)">
<path d="M25 12C21.4694 12 21.0267 12.015 19.6401 12.0783C18.2564 12.1414 17.3114 12.3611 16.4844 12.6825C15.6296 13.0147 14.9046 13.4592 14.1819 14.182C13.4592 14.9046 13.0147 15.6296 12.6824 16.4845C12.3611 17.3114 12.1413 18.2564 12.0782 19.6401C12.0149 21.0267 12 21.4694 12 25C12 28.5305 12.0149 28.9732 12.0782 30.3598C12.1413 31.7435 12.3611 32.6885 12.6824 33.5154C13.0147 34.3703 13.4592 35.0953 14.1819 35.818C14.9046 36.5407 15.6296 36.9852 16.4844 37.3174C17.3114 37.6388 18.2564 37.8586 19.6401 37.9217C21.0267 37.9849 21.4694 37.9999 25 37.9999C28.5305 37.9999 28.9732 37.9849 30.3598 37.9217C31.7435 37.8586 32.6885 37.6388 33.5154 37.3174C34.3703 36.9852 35.0953 36.5407 35.818 35.818C36.5407 35.0953 36.9852 34.3703 37.3174 33.5154C37.6388 32.6885 37.8586 31.7435 37.9217 30.3598C37.9849 28.9732 37.9999 28.5305 37.9999 25C37.9999 21.4694 37.9849 21.0267 37.9217 19.6401C37.8586 18.2564 37.6388 17.3114 37.3174 16.4845C36.9852 15.6296 36.5407 14.9046 35.818 14.182C35.0953 13.4592 34.3703 13.0147 33.5154 12.6825C32.6885 12.3611 31.7435 12.1414 30.3598 12.0783C28.9732 12.015 28.5305 12 25 12V12ZM25 14.3424C28.4711 14.3424 28.8823 14.3556 30.2531 14.4182C31.5205 14.476 32.2089 14.6877 32.667 14.8657C33.2737 15.1016 33.7068 15.3833 34.1617 15.8382C34.6166 16.2931 34.8983 16.7262 35.1342 17.3329C35.3122 17.791 35.524 18.4794 35.5818 19.7468C35.6443 21.1177 35.6576 21.5288 35.6576 25C35.6576 28.4711 35.6443 28.8823 35.5818 30.2531C35.524 31.5205 35.3122 32.2089 35.1342 32.667C34.8983 33.2737 34.6166 33.7068 34.1617 34.1617C33.7068 34.6166 33.2737 34.8983 32.667 35.1342C32.2089 35.3122 31.5205 35.524 30.2531 35.5817C28.8825 35.6443 28.4714 35.6576 25 35.6576C21.5285 35.6576 21.1175 35.6443 19.7468 35.5817C18.4794 35.524 17.791 35.3122 17.3329 35.1342C16.7262 34.8983 16.2931 34.6166 15.8381 34.1617C15.3832 33.7068 15.1015 33.2737 14.8657 32.667C14.6877 32.2089 14.4759 31.5205 14.4181 30.2531C14.3555 28.8823 14.3423 28.4711 14.3423 25C14.3423 21.5288 14.3555 21.1177 14.4181 19.7468C14.4759 18.4794 14.6877 17.791 14.8657 17.3329C15.1015 16.7262 15.3832 16.2931 15.8381 15.8382C16.2931 15.3833 16.7262 15.1016 17.3329 14.8657C17.791 14.6877 18.4794 14.476 19.7468 14.4182C21.1177 14.3556 21.5288 14.3424 25 14.3424Z" fill="white"/>
<path d="M24.998 29.3332C22.6047 29.3332 20.6646 27.3931 20.6646 25C20.6646 22.6067 22.6047 20.6666 24.998 20.6666C27.3911 20.6666 29.3312 22.6067 29.3312 25C29.3312 27.3931 27.3911 29.3332 24.998 29.3332ZM24.998 18.3242C21.311 18.3242 18.3223 21.313 18.3223 25C18.3223 28.6868 21.311 31.6756 24.998 31.6756C28.6848 31.6756 31.6736 28.6868 31.6736 25C31.6736 21.313 28.6848 18.3242 24.998 18.3242Z" fill="white"/>
<path d="M33.5028 18.0604C33.5028 18.922 32.8044 19.6204 31.9428 19.6204C31.0813 19.6204 30.3828 18.922 30.3828 18.0604C30.3828 17.1989 31.0813 16.5005 31.9428 16.5005C32.8044 16.5005 33.5028 17.1989 33.5028 18.0604Z" fill="white"/>
</g>
<defs>
<clipPath id="clip0_2099_10577">
<rect width="26" height="26" fill="white" transform="translate(12 12)"/>
</clipPath>
</defs>
</svg>
