<svg width="50" height="50" viewBox="0 0 50 50" fill="none" xmlns="http://www.w3.org/2000/svg">
<circle cx="25" cy="25" r="25" fill="#0E76A8"/>
<path d="M14.6064 21.4377H19.1773V35.1929H14.6064V21.4377ZM16.9224 14.8071C15.358 14.8071 14.3359 15.8341 14.3359 17.1822C14.3359 18.5025 15.3281 19.5594 16.8626 19.5594H16.8918C18.4861 19.5594 19.479 18.5024 19.479 17.1822C19.4491 15.8341 18.4861 14.8071 16.9224 14.8071ZM30.4 21.1146C27.9737 21.1146 26.8868 22.4491 26.2804 23.385V21.4377H21.7082C21.7687 22.7281 21.7082 35.1929 21.7082 35.1929H26.2804V27.511C26.2804 27.0996 26.3103 26.6897 26.4306 26.395C26.7617 25.5736 27.5139 24.7231 28.7758 24.7231C30.4314 24.7231 31.0925 25.9851 31.0925 27.8333V35.1929H35.6641V27.3054C35.6641 23.0804 33.4093 21.1146 30.4 21.1146Z" fill="white"/>
</svg>
