<svg width="50" height="50" viewBox="0 0 50 50" fill="none" xmlns="http://www.w3.org/2000/svg">
<circle cx="25" cy="25" r="25" fill="#8064A2"/>
<g clip-path="url(#clip0_2099_10582)">
<path d="M33.667 16.3333H16.3337C15.142 16.3333 14.1778 17.3083 14.1778 18.5L14.167 31.5C14.167 32.6917 15.142 33.6667 16.3337 33.6667H33.667C34.8587 33.6667 35.8337 32.6917 35.8337 31.5V18.5C35.8337 17.3083 34.8587 16.3333 33.667 16.3333ZM32.5837 31.5H17.417C16.8212 31.5 16.3337 31.0125 16.3337 30.4167V20.6667L23.852 25.3683C24.5562 25.8125 25.4445 25.8125 26.1487 25.3683L33.667 20.6667V30.4167C33.667 31.0125 33.1795 31.5 32.5837 31.5ZM25.0003 23.9167L16.3337 18.5H33.667L25.0003 23.9167Z" fill="white"/>
</g>
<defs>
<clipPath id="clip0_2099_10582">
<rect width="26" height="26" fill="white" transform="translate(12 12)"/>
</clipPath>
</defs>
</svg>
