<svg width="30" height="30" viewBox="0 0 30 30" fill="none" xmlns="http://www.w3.org/2000/svg">
<g clip-path="url(#clip0_3546_49797)">
<path d="M15 30C23.2843 30 30 23.2843 30 15C30 6.71573 23.2843 0 15 0C6.71573 0 0 6.71573 0 15C0 23.2843 6.71573 30 15 30Z" fill="black"/>
<path d="M7.66675 8.33325H9.33341L19.3334 21.6666H17.6667L7.66675 8.33325ZM10.6667 8.33325H12.3334L22.3334 21.6666H20.6667L10.6667 8.33325ZM9.00008 8.33325H12.3334V9.66659H9.00008V8.33325ZM17.6667 20.3333H21.0001V21.6666H17.6667V20.3333ZM19.3334 8.33325H21.6667L10.3334 21.6666H8.00008L19.3334 8.33325Z" fill="white"/>
</g>
<defs>
<clipPath id="clip0_3546_49797">
<rect width="30" height="30" fill="white"/>
</clipPath>
</defs>
</svg>
