<svg width="50" height="50" viewBox="0 0 50 50" fill="none" xmlns="http://www.w3.org/2000/svg">
<g id="294709_circle_twitter_icon 1" clip-path="url(#clip0_2099_10543)">
<path id="Vector" d="M25 50C38.8071 50 50 38.8071 50 25C50 11.1929 38.8071 0 25 0C11.1929 0 0 11.1929 0 25C0 38.8071 11.1929 50 25 50Z" fill="#1CB7EB"/>
<g id="Group">
<g id="Group_2">
<path id="Vector_2" d="M40 14.8761C38.9923 15.4292 37.7606 15.7611 36.6409 15.8717C37.8726 15.0973 38.7683 13.8805 39.2162 12.4425C38.0965 13.1062 36.8649 13.6593 35.4093 13.9911C34.2896 12.7743 32.834 12 31.1544 12C27.9073 12 25.2201 14.7655 25.2201 18.3053C25.2201 18.7478 25.2201 19.3009 25.332 19.7434C20.4054 19.5221 16.0386 16.9779 13.1274 13.2168C12.5676 14.1018 12.3436 15.208 12.3436 16.4248C12.3436 18.6372 13.3514 20.5177 14.9189 21.6239C13.9112 21.6239 13.0154 21.292 12.2317 20.8496V20.9602C12.2317 23.9469 14.2471 26.4911 16.9344 27.1549C16.4865 27.2655 15.9266 27.3761 15.3668 27.3761C15.0309 27.3761 14.583 27.3761 14.2471 27.2655C15.0309 29.8097 17.1583 31.5796 19.7336 31.5796C17.7181 33.2389 15.1429 34.2345 12.4556 34.2345C12.0077 34.2345 11.5598 34.2345 11 34.1239C13.5753 35.8938 16.7104 37 20.0695 37C30.9305 37 36.8649 27.4867 36.8649 19.1903C36.8649 18.969 36.8649 18.6372 36.8649 18.4159C38.2085 17.3097 39.2162 16.2035 40 14.8761Z" fill="white"/>
</g>
</g>
</g>
<defs>
<clipPath id="clip0_2099_10543">
<rect width="50" height="50" fill="white"/>
</clipPath>
</defs>
</svg>
