<svg width="50" height="50" viewBox="0 0 50 50" fill="none" xmlns="http://www.w3.org/2000/svg">
<circle cx="25" cy="25" r="25" fill="#2CB742"/>
<g clip-path="url(#clip0_2099_10559)">
<path d="M34.137 14.8095C31.7053 12.372 28.467 11.0313 25.0254 11.0313C17.9218 11.0313 12.1414 16.8118 12.1414 23.9152C12.1414 26.1844 12.7334 28.4014 13.8593 30.3572L12.0312 37.0313L18.862 35.238C20.7424 36.2652 22.8606 36.805 25.0196 36.805H25.0254C32.1232 36.805 38.0312 31.0246 38.0312 23.9211C38.0311 20.4795 36.5687 17.247 34.137 14.8095Z" fill="white"/>
<path d="M25.025 34.6345C23.0982 34.6345 21.212 34.118 19.5696 33.143L19.1808 32.9108L15.1299 33.9728L16.2094 30.0206L15.954 29.6143C14.8804 27.9081 14.3174 25.9407 14.3174 23.9152C14.3174 18.013 19.1228 13.2077 25.0308 13.2077C27.8919 13.2077 30.5789 14.322 32.5987 16.3474C34.6183 18.3729 35.8603 21.06 35.8545 23.9211C35.8545 29.8292 30.9271 34.6345 25.025 34.6345Z" fill="#2CB742"/>
<path d="M30.899 26.6139C30.5798 26.4515 28.9955 25.6736 28.6995 25.5693C28.4035 25.459 28.1889 25.4068 27.9741 25.7318C27.7594 26.0568 27.1442 26.7764 26.9526 26.997C26.7669 27.2118 26.5754 27.2408 26.2562 27.0783C24.3642 26.1324 23.1223 25.3895 21.8746 23.2479C21.5437 22.6791 22.2054 22.7197 22.8205 21.4895C22.9251 21.2746 22.8728 21.089 22.7915 20.9265C22.7103 20.764 22.0661 19.1796 21.7991 18.5354C21.538 17.9086 21.271 17.9956 21.0736 17.984C20.888 17.9724 20.6731 17.9724 20.4585 17.9724C20.2437 17.9724 19.8956 18.0537 19.5996 18.3729C19.3036 18.6979 18.4736 19.4756 18.4736 21.06C18.4736 22.6443 19.6285 24.1765 19.7852 24.3912C19.9477 24.6059 22.0545 27.8559 25.287 29.2546C27.3299 30.1368 28.1308 30.2121 29.1523 30.0613C29.7732 29.9684 31.0559 29.2836 31.3228 28.5291C31.5897 27.7747 31.5897 27.1306 31.5084 26.9971C31.433 26.8518 31.2182 26.7707 30.899 26.6139Z" fill="white"/>
</g>
<defs>
<clipPath id="clip0_2099_10559">
<rect width="27" height="27" fill="white" transform="translate(12 11)"/>
</clipPath>
</defs>
</svg>
