<svg width="16" height="16" viewBox="0 0 16 16" fill="none" xmlns="http://www.w3.org/2000/svg">
<g clip-path="url(#clip0_25103_72563)">
<path d="M15.6407 7.00538L14.6228 6.85236C14.4731 6.82908 14.35 6.71598 14.3168 6.56962C14.1538 5.83781 13.8644 5.15258 13.4785 4.5372C13.3987 4.41079 13.4054 4.24447 13.4952 4.12472L14.1072 3.29645C14.2336 3.12681 14.2137 2.89063 14.064 2.74094L13.9309 2.60789L13.3954 2.07234L13.2623 1.93929C13.1126 1.7896 12.8765 1.77297 12.7068 1.89604L11.8819 2.50477C11.7588 2.59458 11.5958 2.60124 11.4694 2.5214C10.854 2.12889 10.1688 1.83949 9.43364 1.6765C9.28395 1.64324 9.17418 1.52016 9.1509 1.37047L8.99788 0.362576C8.96795 0.153014 8.78499 0 8.57543 0H8.38583H7.62741H7.43781C7.22492 0 7.04529 0.153014 7.01536 0.362576L6.86234 1.37047C6.83906 1.52016 6.72596 1.64324 6.5796 1.6765C5.84447 1.84282 5.15923 2.13222 4.54385 2.5214C4.41745 2.60124 4.25113 2.59458 4.13138 2.50477L3.30643 1.89604C3.13679 1.76964 2.90061 1.7896 2.75092 1.93929L2.61787 2.07234L2.07234 2.60456L1.93929 2.73762C1.7896 2.88731 1.77297 3.12348 1.89604 3.29313L2.5081 4.1214C2.59791 4.24115 2.60456 4.40747 2.52473 4.53387C2.13554 5.14925 1.84947 5.83449 1.68648 6.56629C1.65322 6.71598 1.53014 6.82908 1.38045 6.84904L0.362576 7.00205C0.153014 7.03199 0 7.21494 0 7.4245V7.61411V8.37252V8.56213C0 8.77502 0.153014 8.95464 0.362576 8.98458L1.3871 9.14092C1.53679 9.1642 1.65987 9.27397 1.69313 9.42366C1.85945 10.1521 2.14885 10.8341 2.53804 11.4461C2.61787 11.5725 2.61122 11.7322 2.5214 11.8519L1.89937 12.6968C1.77297 12.8665 1.79292 13.1026 1.94261 13.2523L2.07567 13.3854L2.61122 13.9209L2.74427 14.054C2.89396 14.2037 3.13013 14.2203 3.29978 14.0972L4.14801 13.4719C4.26776 13.3854 4.42742 13.3787 4.55383 13.4552C5.16588 13.8411 5.84447 14.1272 6.57295 14.2935C6.72263 14.3268 6.8324 14.4498 6.85569 14.5995L7.01203 15.634C7.04197 15.8436 7.22492 15.9966 7.43448 15.9966H7.62408H8.3825H8.57211C8.785 15.9966 8.96462 15.8436 8.99456 15.634L9.1509 14.5995C9.17418 14.4498 9.28728 14.3268 9.43364 14.2935C10.1621 14.1305 10.8407 13.8444 11.4528 13.4552C11.5792 13.3754 11.7388 13.3821 11.8586 13.4719L12.7068 14.0972C12.8765 14.2236 13.1126 14.2037 13.2623 14.054L13.3954 13.9209L13.9309 13.3854L14.064 13.2523C14.2137 13.1026 14.2303 12.8665 14.1072 12.6968L13.4785 11.8553C13.392 11.7355 13.3854 11.5758 13.4619 11.4494C13.8511 10.8374 14.1405 10.1555 14.3068 9.42699C14.3401 9.2773 14.4631 9.16753 14.6128 9.14425L15.6374 8.9879C15.8469 8.95797 15.9999 8.77502 15.9999 8.56545V8.37585V7.61743V7.42783C16.0033 7.21827 15.8469 7.03864 15.6407 7.00538ZM8.00329 13.1093C5.17586 13.1126 2.88398 10.8207 2.88731 7.99331C2.89063 5.21245 5.21578 2.88398 7.99664 2.88398C10.8241 2.88065 13.116 5.17254 13.1126 7.99997C13.1126 10.7808 10.7842 13.1093 8.00329 13.1093Z" fill="#8064A2"/>
<path d="M10.1717 7.38346C10.1816 7.31028 10.185 7.2371 10.185 7.16059V5.97972C10.185 4.9685 9.36001 4.14355 8.34879 4.14355H7.66355C6.65233 4.14355 5.82739 4.9685 5.82739 5.97972V7.16059C5.82739 7.23377 5.83404 7.30695 5.84069 7.38013C5.45483 7.46329 5.16211 7.80591 5.16211 8.21506V10.4703C5.16211 10.9394 5.54797 11.3252 6.01699 11.3252H9.98205C10.4511 11.3252 10.8369 10.9394 10.8369 10.4703V8.21506C10.8403 7.81256 10.5542 7.46994 10.1717 7.38346ZM8.28559 9.42919C8.249 9.4558 8.23569 9.48574 8.23569 9.52898C8.23569 9.73189 8.23569 9.93147 8.23569 10.1344C8.23569 10.2641 8.13258 10.3672 8.00285 10.3672C7.87312 10.3672 7.77 10.2641 7.77 10.1344C7.77 9.93147 7.77 9.72856 7.77 9.52565C7.77 9.48574 7.76002 9.4558 7.72343 9.42919C7.54048 9.29281 7.4806 9.06328 7.57042 8.86037C7.66023 8.66412 7.87644 8.54769 8.08268 8.58761C8.30887 8.63418 8.46854 8.81713 8.47187 9.04665C8.47519 9.20632 8.41199 9.33605 8.28559 9.42919ZM9.25357 7.16059C9.25357 7.23044 9.24359 7.29697 9.23028 7.3635H6.78539C6.77208 7.29697 6.7621 7.23044 6.7621 7.16059V5.97972C6.7621 5.48076 7.16792 5.07827 7.66355 5.07827H8.34879C8.84775 5.07827 9.25024 5.48409 9.25024 5.97972V7.16059H9.25357Z" fill="#8064A2"/>
</g>
<defs>
<clipPath id="clip0_25103_72563">
<rect width="16" height="16" fill="white"/>
</clipPath>
</defs>
</svg>
