<svg width="32" height="32" viewBox="0 0 32 32" fill="none" xmlns="http://www.w3.org/2000/svg">
<rect width="32" height="32" rx="16" fill="#70ADA5"/>
<g clip-path="url(#clip0_7239_108246)">
<path d="M22.2216 9H9.77713C8.06602 9 6.66602 10.4 6.66602 12.1111V19.8889C6.66602 21.6 8.06602 23 9.77713 23H22.2216C23.9327 23 25.3327 21.6 25.3327 19.8889V12.1111C25.3327 10.4 23.9327 9 22.2216 9ZM23.466 13.5111L17.3216 17.6333C16.9327 17.8667 16.466 18.0222 15.9993 18.0222C15.5327 18.0222 15.066 17.8667 14.6771 17.6333L8.53268 13.5111C8.22157 13.2778 8.14379 12.8111 8.37713 12.4222C8.61046 12.1111 9.07713 12.0333 9.46602 12.2667L15.6105 16.3889C15.8438 16.5444 16.2327 16.5444 16.466 16.3889L22.6105 12.2667C22.9993 12.0333 23.466 12.1111 23.6993 12.5C23.8549 12.8111 23.7771 13.2778 23.466 13.5111Z" fill="white"/>
</g>
<defs>
<clipPath id="clip0_7239_108246">
<rect width="18.6667" height="18.6667" fill="white" transform="translate(6.66602 6.66406)"/>
</clipPath>
</defs>
</svg>
